<svg width="80" height="80" viewBox="0 0 80 80" fill="none" xmlns="http://www.w3.org/2000/svg">
<circle cx="40" cy="40" r="40" fill="#AACC3A"/>
<path d="M23.0628 39.1608H20V46.376H23.0628V60H32.868V46.376H35.0974V60H44.9026V46.376H47.132V60H56.9372V46.376H60V39.1608H56.9372V26.6594L52.0346 20L47.132 26.6594V39.1608H44.9026V26.6594L40 20L35.0974 26.6594V39.1608H32.868V26.6594L27.9654 20L23.0628 26.6594V39.1608ZM31.829 58.9537H24.1017V46.376H31.829V58.9537ZM43.8636 58.9537H36.1364V46.376H43.8636V58.9537ZM55.8983 58.9537H48.171V46.376H55.8983V58.9537ZM58.961 45.3297H21.039V40.2071H58.961V45.3297ZM48.171 27.0082L52.0346 21.7548L55.8983 27.0082V39.1608H48.171V27.0082ZM36.1364 27.0082L40 21.7548L43.8636 27.0082V39.1608H36.1364V27.0082ZM27.9654 21.7548L31.829 27.0082V39.1608H24.1017V27.0082L27.9654 21.7548Z" fill="white"/>
<path d="M28.4853 41.8965H27.4463V43.6513H28.4853V41.8965Z" fill="white"/>
<path d="M40.5194 41.8965H39.4805V43.6513H40.5194V41.8965Z" fill="white"/>
<path d="M52.5546 41.8965H51.5156V43.6513H52.5546V41.8965Z" fill="white"/>
</svg>
