<svg width="80" height="80" viewBox="0 0 80 80" fill="none" xmlns="http://www.w3.org/2000/svg">
<circle cx="40" cy="40" r="40" fill="#AACC3A"/>
<path d="M43.0554 34.8016H41.6719V35.9892H43.0554V34.8016Z" fill="white"/>
<path d="M53.979 46.1269C53.6908 43.5789 50.4194 41.2901 49.1368 40.4804C49.7565 39.7247 50.1168 38.9042 50.1744 38.0189C50.3474 35.4602 48.0415 33.2686 47.1048 32.5668C46.9895 23.6275 40.6629 20.3239 40.3891 20.1943L40 20L39.6109 20.1943C39.337 20.3347 33.0104 23.6275 32.8951 32.5668C31.944 33.2686 29.6382 35.4602 29.8255 38.0189C29.8832 38.8934 30.2434 39.7139 30.8631 40.4804C29.5805 41.2901 26.3091 43.5897 26.0209 46.1269C25.8912 47.2497 26.3668 48.2753 27.4044 49.1714C27.2315 50.6397 27.3323 52.2807 27.8944 54.0621L28.0241 54.4615H30.0129C30.474 55.0877 31.7278 56.61 33.5725 57.776C32.7654 58.3806 31.7566 59.1147 31.7566 59.1147L30.5461 60H39.337H40.7205H49.5115L48.3009 59.1147C48.3009 59.1147 47.2921 58.3806 46.4851 57.776C48.3153 56.61 49.5691 55.0877 50.0447 54.4615H52.0335L52.1632 54.0621C52.7252 52.2807 52.8261 50.6397 52.6532 49.1714C53.6332 48.2753 54.1087 47.2497 53.979 46.1269ZM44.7845 38.9582C44.1649 38.7962 43.1272 38.5479 42.2337 38.4507C42.1184 37.587 41.1529 36.9069 39.9856 36.9069C38.8038 36.9069 37.8383 37.587 37.723 38.4507C36.8295 38.5587 35.7774 38.807 35.1721 38.9582C34.4372 38.1484 32.7366 35.7517 35.2586 33.3225H44.6981C47.2057 35.7409 45.5195 38.1377 44.7845 38.9582ZM40.8791 38.6127C40.8791 38.9798 40.4755 39.2821 39.9856 39.2821C39.4956 39.2821 39.092 38.9798 39.092 38.6127C39.092 38.2456 39.4956 37.9433 39.9856 37.9433C40.4755 37.9433 40.8791 38.2456 40.8791 38.6127ZM39.9856 21.2848C41.297 22.1269 45.5051 25.3441 45.7069 32.2861H34.2642C34.466 25.3765 38.6741 22.1269 39.9856 21.2848ZM33.1978 33.8731C31.2811 37.0148 34.3507 39.8758 34.3939 39.9082L34.711 40.1889L35.1721 40.0594C35.7054 39.9082 37.0889 39.5628 38.0256 39.4656C38.4147 39.973 39.1497 40.3293 39.9856 40.3293C40.8214 40.3293 41.5564 39.9838 41.9455 39.4656C42.8822 39.5628 44.2657 39.919 44.799 40.0702L45.2601 40.1997L45.5772 39.919C45.6204 39.8866 48.69 37.0256 46.7733 33.8839C47.6668 34.7368 48.8918 36.2699 48.7765 37.9757C48.6756 39.4872 47.4939 40.8151 45.2601 41.9271C44.0784 42.5209 42.9831 42.888 42.0896 43.1795C41.2538 43.4602 40.49 43.7193 39.9711 44.0864C39.4523 43.7193 38.6741 43.4602 37.8527 43.1795C36.9736 42.888 35.8639 42.5101 34.6822 41.9271C32.4628 40.8151 31.2811 39.4872 31.1658 37.9757C31.0793 36.2591 32.3043 34.726 33.1978 33.8731ZM27.3756 46.2132C27.5917 44.2591 30.0993 42.3482 31.4108 41.4845C30.3299 42.5209 28.4852 44.637 27.6782 47.6059C27.4332 47.1741 27.3179 46.7099 27.3756 46.2132ZM39.2938 58.9744H33.8895C34.3075 58.6721 34.7398 58.3482 35.0568 58.0999L35.6333 57.668L34.9848 57.3117C33.4428 56.4696 32.261 55.2389 31.5981 54.4615H39.3082V58.9744H39.2938ZM45.0007 57.3225L44.3522 57.6788L44.9287 58.1107C45.2457 58.3482 45.6781 58.6721 46.096 58.9852H40.6773V54.4723H48.3874C47.7245 55.2497 46.5427 56.4804 45.0007 57.3225ZM50.8806 53.4251H50.7076H40.6773H39.2938H29.2635H29.0905C27.4476 47.5088 31.0937 43.4062 32.6069 42.0135C33.0104 42.2834 33.4428 42.5425 33.9328 42.78C35.2154 43.417 36.3683 43.8057 37.305 44.1188C38.8038 44.6262 39.2938 44.8205 39.2938 45.2847H40.6773C40.6773 44.8205 41.1673 44.6262 42.6661 44.1188C43.6028 43.8057 44.7557 43.417 46.0383 42.78C46.5283 42.5317 46.9607 42.2726 47.3642 42.0135C48.8774 43.417 52.5235 47.5088 50.8806 53.4251ZM48.5748 41.4953C49.8718 42.3698 52.3794 44.2699 52.5955 46.224C52.6532 46.7206 52.5379 47.1741 52.2929 47.6167C51.5003 44.637 49.6556 42.5209 48.5748 41.4953Z" fill="white"/>
<path d="M38.2995 34.8016H36.916V35.9892H38.2995V34.8016Z" fill="white"/>
<path d="M39.9851 45.6842C38.8898 45.6842 38.0107 46.3428 38.0107 47.1633C38.0107 47.9838 38.8898 48.6424 39.9851 48.6424C41.0804 48.6424 41.9595 47.9838 41.9595 47.1633C41.9595 46.3428 41.0804 45.6842 39.9851 45.6842ZM39.9851 47.6059C39.6536 47.6059 39.3942 47.4116 39.3942 47.1633C39.3942 46.915 39.6536 46.7206 39.9851 46.7206C40.3166 46.7206 40.576 46.915 40.576 47.1633C40.576 47.4008 40.3166 47.6059 39.9851 47.6059Z" fill="white"/>
<path d="M39.9851 48.7395C38.8898 48.7395 38.0107 49.4089 38.0107 50.2186C38.0107 51.0391 38.8898 51.6977 39.9851 51.6977C41.0804 51.6977 41.9595 51.0391 41.9595 50.2186C41.9595 49.3981 41.0804 48.7395 39.9851 48.7395ZM39.9851 50.6612C39.6536 50.6612 39.3942 50.4669 39.3942 50.2186C39.3942 49.9703 39.6536 49.7759 39.9851 49.7759C40.3166 49.7759 40.576 49.9703 40.576 50.2186C40.576 50.4561 40.3166 50.6612 39.9851 50.6612Z" fill="white"/>
<path d="M41.5988 41.4737L41.08 40.5128C40.6476 40.6424 40.1288 40.7611 39.9703 40.7611C39.8118 40.7611 39.3074 40.6424 38.8606 40.5128L38.3418 41.4737C38.5868 41.5493 39.4371 41.7868 39.9559 41.7868C40.5035 41.7868 41.3538 41.5493 41.5988 41.4737Z" fill="white"/>
</svg>
