<svg width="80" height="80" viewBox="0 0 80 80" fill="none" xmlns="http://www.w3.org/2000/svg">
<circle cx="40" cy="40" r="40" fill="#AACC3A"/>
<path d="M22 36.8438C22 39.2329 23.4076 41.4466 25.6129 42.6082C25.4135 43.211 25.3079 43.8247 25.3079 44.4493C25.3079 47.8356 28.2639 50.5973 31.8886 50.5973C33.6364 50.5973 35.2903 49.9507 36.5103 48.811C36.6862 51.8027 36.1232 55.5178 34.1173 60H43.6774C43.6774 60 40.8856 55.4192 40.5572 48.9206C41.8827 50.1041 43.6422 50.7836 45.4956 50.7836C48.9677 50.7836 51.912 48.4493 52.4985 45.2931C54.1994 44.8877 55.4311 43.4411 55.4311 41.7863C55.4311 41.1616 55.2551 40.5479 54.915 40C56.8856 38.4 58 36.1425 58 33.7205C58 29.0959 53.9062 25.337 48.8856 25.337C48.393 25.337 47.9003 25.3699 47.4076 25.4466C45.39 22.0822 41.5543 20 37.2727 20C30.9267 20 25.7654 24.6247 25.7654 30.3123C25.7654 30.5205 25.7771 30.7397 25.7889 30.9589C23.478 32.1315 22 34.389 22 36.8438ZM35.7713 58.9589C39.0088 50.7945 37.5543 45.2055 35.7595 41.9397L37.1437 42.5425L38.61 43.1781L38.7507 41.6767L39.3138 35.5945L39.9472 37.9726L40.2639 39.1671L41.4839 38.674L44.7683 37.3479C42.2111 40.1425 39.3959 44.0329 39.3959 47.6493C39.3959 52.7233 40.9091 56.811 41.8827 58.937H35.7713V58.9589ZM26.61 31.7808L26.9736 31.6274L26.9384 31.2548C26.9032 30.9479 26.8915 30.6411 26.8915 30.3452C26.8915 25.2384 31.5484 21.0849 37.2727 21.0849C41.2727 21.0849 44.8387 23.0795 46.5982 26.3014L46.7977 26.663L47.2199 26.5753C47.7713 26.4658 48.3343 26.411 48.8856 26.411C53.2962 26.411 56.8739 29.6986 56.8739 33.7425C56.8739 36 55.7595 38.0932 53.824 39.4959L53.3783 39.8137L53.7185 40.2301C54.1056 40.6904 54.305 41.2384 54.305 41.7973C54.305 43.0685 53.2845 44.1644 51.9238 44.3397L51.4897 44.3945L51.4428 44.8C51.0909 47.6164 48.5337 49.7425 45.4956 49.7425C43.7478 49.7425 42.1056 49.0301 40.956 47.8027L40.5924 47.4082L40.5455 47.4521C40.7566 41.4247 49.5777 34.3014 49.5777 34.3014L41.0381 37.7315L38.7625 29.2493L37.6246 41.589L32.2522 39.2329C32.2522 39.2329 35.5718 41.8521 36.3812 47.3973L36.0411 47.7589C34.9971 48.8877 33.4956 49.5452 31.9003 49.5452C28.8974 49.5452 26.4457 47.2548 26.4457 44.4493C26.4457 43.8027 26.5748 43.1562 26.8446 42.5425L27.044 42.0822L26.563 41.874C24.4868 40.9534 23.1378 38.9808 23.1378 36.8438C23.1261 34.674 24.4985 32.6904 26.61 31.7808Z" fill="white"/>
</svg>
