<svg width="80" height="80" viewBox="0 0 80 80" fill="none" xmlns="http://www.w3.org/2000/svg">
<circle cx="40" cy="40" r="40" fill="#AACC3A"/>
<path d="M30.8561 28.8V24.6162H25.9329V33.5459L20 39.2649H25.2147V60H54.7749V39.2649H60L39.9948 20L30.8561 28.8ZM26.9217 25.6541H29.8569V29.7622L26.9217 32.5838V25.6541ZM26.2139 38.973L28.3893 36.8973V58.973H26.2139V38.973ZM50.6011 35.9351V58.9622H48.4257V33.8595L50.6011 35.9351ZM47.4265 58.9622H45.2511V30.8216L47.4265 32.8973V58.9622ZM44.2623 58.9622H43.8147V45.2865H42.0869V27.7946L44.2623 29.8703V58.9622ZM42.8155 46.3243V58.9622H37.1741V46.3243H42.8155ZM41.0877 45.2865H38.9123V26.8324L39.9948 25.7946L41.0773 26.8324V45.2865H41.0877ZM37.9131 45.2865H36.1853V58.9622H35.7377V29.8703L37.9131 27.7946V45.2865ZM34.7385 58.9622H32.5631V32.9081L34.7385 30.8324V58.9622ZM31.5639 58.9622H29.3885V35.9351L31.5639 33.8595V58.9622ZM51.6003 58.9622V36.8973L53.7757 38.973V58.9622H51.6003ZM54.4731 38.227L39.9948 24.3892L25.5165 38.227H22.5293L39.9948 21.4162L57.4603 38.227H54.4731Z" fill="white"/>
<path d="M39.0266 51.3622H38.0273V53.8703H39.0266V51.3622Z" fill="white"/>
</svg>
