<svg width="32" height="32" viewBox="0 0 32 32" fill="none" xmlns="http://www.w3.org/2000/svg">
<path d="M11.9994 13.3333L16.5908 16.7769C17.0093 17.0907 17.5989 17.029 17.9434 16.6354L26.666 6.66663" stroke="#AACC3A" stroke-width="1.5" stroke-linecap="round"/>
<path d="M28 16C28 18.5073 27.2146 20.9517 25.7542 22.9897C24.2937 25.0278 22.2315 26.5572 19.8573 27.3632C17.483 28.1691 14.9159 28.2111 12.5166 27.4833C10.1172 26.7554 8.00612 25.2943 6.47976 23.3051C4.9534 21.3159 4.08846 18.8986 4.00642 16.3926C3.92439 13.8867 4.62937 11.4179 6.02236 9.33316C7.41536 7.2484 9.42638 5.65233 11.773 4.76913C14.1196 3.88592 16.6839 3.75995 19.1058 4.40889" stroke="#AACC3A" stroke-width="1.5" stroke-linecap="round"/>
</svg>
