<svg width="80" height="80" viewBox="0 0 80 80" fill="none" xmlns="http://www.w3.org/2000/svg">
<circle cx="40" cy="40" r="40" fill="#AACC3A"/>
<path d="M50.641 36.7757C58.468 36.7757 59.8958 22.2272 59.9479 21.6025L60 21L59.4268 21.0223C49.2652 21.357 43.2621 23.8227 41.5842 28.3635C40.3231 31.7775 42.0115 35.515 43.5122 37.3001C42.4388 39.7657 41.6884 42.3876 41.4278 45.0206C40.8546 43.9272 39.9896 42.4099 38.7493 40.7029C39.5102 37.8244 39.1662 35.303 37.7071 33.1944C34.6222 28.7317 27.5769 27.5379 23.9083 27.5379C23.1683 27.5379 22.4805 27.5825 21.8656 27.6606L20 27.9172L21.7405 28.687C21.8239 28.7205 23.8041 29.6354 24.7629 33.2167C25.8885 37.4563 28.9838 42.3987 34.0177 42.3987C35.2892 42.3987 36.6441 42.064 38.0406 41.4392C39.7394 43.8045 40.7087 45.7569 41.1256 46.6829C39.0412 47.118 37.2069 48.4457 36.0813 50.4204C35.0391 49.7733 33.8718 49.4386 32.6628 49.4386C28.9005 49.4386 25.8364 52.7187 25.8364 56.7463C25.8364 57.2372 25.8781 57.7393 25.9719 58.219C25.9927 58.3418 26.024 58.4756 26.0552 58.5984L26.149 59H57.7697L57.8009 58.4979C57.8114 58.3864 57.8114 58.286 57.8114 58.1744C57.8114 55.798 56.1334 53.8456 53.9865 53.5778C53.9656 51.5807 52.4336 49.963 50.568 49.963C50.0261 49.963 49.4945 50.108 49.0151 50.3758C47.629 47.9994 45.2006 46.5379 42.5638 46.5379C42.4909 46.5379 42.4179 46.549 42.3345 46.549C42.4179 43.5255 43.1996 40.4909 44.4502 37.6571C45.1902 37.4563 47.8791 36.7757 50.641 36.7757ZM34.0177 41.3388C28.1292 41.3388 25.951 33.7968 25.7217 32.9378C25.3778 31.6324 24.8984 30.6506 24.4085 29.892C27.1391 31.2419 29.4633 32.815 31.4539 34.4439H28.7337V35.515H32.715C34.6222 37.2331 36.1751 38.9736 37.3945 40.5802C36.2168 41.0822 35.0808 41.3388 34.0177 41.3388ZM37.9677 39.6541C37.2173 38.6947 36.3523 37.6794 35.383 36.6641L34.9557 33.3171L33.9656 33.4621L34.2262 35.5038C33.3299 34.6447 32.3502 33.7968 31.2871 32.9712L30.7869 30.394L29.8072 30.606L30.0886 32.0787C28.3481 30.8291 26.3887 29.6577 24.2001 28.6201C28.6816 28.687 34.4763 30.3159 36.9151 33.8303C38.0406 35.4703 38.395 37.4339 37.9677 39.6541ZM42.5638 47.5978C45.013 47.5978 47.2434 49.037 48.4002 51.3576L48.6712 51.9043L49.1402 51.5361C49.5675 51.2014 50.0573 51.0229 50.5784 51.0229C51.9125 51.0229 52.9964 52.1832 52.9964 53.6113C52.9964 53.734 52.9755 53.8567 52.9547 53.9906L52.8713 54.6042H53.4549H53.5279C55.2684 54.6265 56.6962 56.0769 56.8108 57.9178H26.9411C26.8682 57.5273 26.8369 57.1368 26.8369 56.7352C26.8369 53.2989 29.4528 50.4985 32.6628 50.4985C33.851 50.4985 34.9974 50.8779 35.9771 51.6031L36.4461 51.9489L36.7066 51.4134C37.8426 49.0705 40.0938 47.5978 42.5638 47.5978ZM42.5221 28.754C43.5539 25.9759 47.2329 22.5954 58.8848 22.1045C58.5305 24.8268 56.7275 35.7046 50.641 35.7046C48.4002 35.7046 46.2637 36.1174 45.0339 36.4075C46.1907 34.0757 47.6498 31.9113 49.2548 30.0705C49.6404 30.0035 51.0266 29.7692 52.3502 29.7692V28.6982C51.6727 28.6982 50.9849 28.754 50.4117 28.8209C52.2147 27.0024 54.1428 25.5743 56.0083 24.7375L55.6227 23.7446C54.6535 24.1797 53.6738 24.7598 52.6941 25.4739L52.8504 23.9342L51.8603 23.8227L51.6102 26.3218C50.297 27.404 49.0255 28.7093 47.8478 30.1709V27.4152H46.8473V31.4762C45.7843 32.9489 44.815 34.5555 44.0021 36.2402C42.7514 34.5778 41.5008 31.532 42.5221 28.754Z" fill="white"/>
</svg>
