<svg width="80" height="80" viewBox="0 0 80 80" fill="none" xmlns="http://www.w3.org/2000/svg">
<circle cx="40" cy="40" r="40" fill="#AACC3A"/>
<path d="M29.238 58.2641C29.7945 59.0892 30.5652 59.6143 31.5071 59.8178C32.0494 59.9357 32.5489 60 32.9913 60C33.7619 60 34.3756 59.8178 34.8323 59.4642C36.3593 58.2748 35.3318 55.6282 34.9893 54.846C33.1197 50.6563 35.0606 41.5269 35.0749 41.4305C35.2461 40.659 36.0168 39.3839 36.6162 38.9231C37.3155 38.3659 38.1575 37.9695 38.9709 37.573C39.342 37.4016 39.6845 37.2194 40.027 37.0372C41.4398 38.1302 43.0097 39.4267 43.6233 40.1447C43.238 43.5092 42.3675 51.9314 46.7487 57.1283C48.2186 58.8749 49.4888 59.7643 50.5306 59.7643C50.7446 59.7643 50.9444 59.7321 51.1442 59.6571C52.2146 59.2499 52.2859 57.8569 51.3298 56.0246C47.1769 48.0525 49.8313 38.023 49.8598 37.9266L49.9312 37.6587L44.9791 33.887C45.1503 33.6512 45.2931 33.3941 45.393 33.1262C50.9587 27.8221 48.0189 24.3075 47.8904 24.1575L47.2482 23.4182L46.7059 24.2004C46.6916 24.2218 45.393 26.0863 42.8384 28.5293C42.5815 28.4329 42.3246 28.3365 42.0392 28.2722C41.9393 26.9756 41.24 22.8824 36.1452 20.4929L35.1034 20V32.0118C35.1034 32.7404 35.3746 33.4155 35.8313 34.0048C34.1473 35.0656 32.3919 36.0193 30.608 36.8444L30.2084 37.0265L30.294 37.3801C30.451 38.023 30.7793 39.9089 30.3226 40.9054C28.8241 44.1843 26.5693 54.3745 29.238 58.2641ZM48.447 37.9802C48.0331 39.6946 46.0922 48.7811 50.0454 56.389C50.816 57.8569 50.6448 58.6284 50.5449 58.7249C50.3308 58.7249 49.4174 58.3713 47.9047 56.5711C43.709 51.5778 44.6509 43.2092 45.0076 40.0589L45.0219 39.8982L44.922 39.7589C44.2513 38.8695 42.0535 37.1122 40.5122 35.9228C41.9536 35.8907 43.238 35.4299 44.1656 34.712L48.447 37.9802ZM47.2197 25.6041C47.5764 26.6649 47.6906 28.6151 45.5071 31.2189C45.2931 30.4045 44.7507 29.6759 43.9658 29.1187C45.4929 27.6507 46.5775 26.4077 47.2197 25.6041ZM36.4877 21.9073C40.7405 24.4897 40.6977 28.5936 40.6977 28.6365L40.6835 29.0544L41.2258 29.1508C43.0097 29.4508 44.2513 30.6188 44.2513 31.9904C44.2513 33.5976 42.5102 34.9049 40.3695 34.9049C38.2288 34.9049 36.4877 33.5976 36.4877 31.9904V21.9073ZM31.6213 41.2055C32.1493 40.0589 31.8781 38.2695 31.7212 37.5087C33.4194 36.7051 35.0892 35.7943 36.6875 34.787C37.0729 35.0763 37.5295 35.3121 38.0148 35.505C38.2859 35.7085 38.657 35.9764 39.0565 36.2872C38.7997 36.4265 38.5142 36.555 38.2288 36.6943C37.3868 37.1015 36.4306 37.5516 35.6172 38.2052C34.8323 38.816 33.9332 40.2732 33.7191 41.259C33.6335 41.6448 31.7069 50.742 33.6906 55.1674C34.2757 56.4961 34.5897 58.1784 33.8476 58.7463C33.5051 59.0142 32.8486 59.0463 31.8924 58.832C31.3216 58.7035 30.8506 58.3606 30.451 57.7927C28.1105 54.3638 30.1371 44.4629 31.6213 41.2055Z" fill="white"/>
<path d="M39.6851 33.2119H41.0551V32.5047H41.9827V31.476H41.0551V30.7795H39.6851V31.476H38.7432V32.5047H39.6851V33.2119Z" fill="white"/>
</svg>
