<svg width="80" height="80" viewBox="0 0 80 80" fill="none" xmlns="http://www.w3.org/2000/svg">
<circle cx="40" cy="40" r="40" fill="#AACC3A"/>
<path d="M52.1964 29.9413C51.5666 29.9413 50.9367 30.038 50.3283 30.2314L49.9973 26.6943H43.7737L40.6352 24L39.5143 26.6943H36.5679L36.237 30.19H27.1631L26.8215 24.5389L20 31.5026L24.3555 33.4646L34.2301 51.4128L33.7924 56H52.7836L52.2285 50.1002C56.5199 50.0864 60 45.5682 60 40.0138C59.9893 34.4594 56.4985 29.9413 52.1964 29.9413ZM40.9981 25.9067L41.9055 26.6943H40.6672L40.9981 25.9067ZM25.9461 27.1226L26.1596 30.5492L24.5797 32.1658L22.103 31.0466L25.9461 27.1226ZM26.64 31.7513L34.988 43.3575L34.4115 49.4646L25.3803 33.0363L26.64 31.7513ZM27.8676 31.5164H36.1089L35.1481 41.6442L27.8676 31.5164ZM34.9453 54.6736L37.4753 28.0207H49.0899L51.62 54.6736H34.9453ZM52.1964 48.7876C52.1644 48.7876 52.1217 48.7876 52.0897 48.7876L50.4564 31.5579C51.0222 31.3644 51.6093 31.2539 52.1964 31.2539C55.9327 31.2539 58.9645 35.1779 58.9645 40.0138C58.9645 44.8497 55.9327 48.7876 52.1964 48.7876Z" fill="white"/>
</svg>
