<svg width="80" height="81" viewBox="0 0 80 81" fill="none" xmlns="http://www.w3.org/2000/svg">
<circle cx="40" cy="40.5" r="39.5" fill="white" stroke="#E0E6EC"/>
<path d="M23.3534 51.3591C23.1547 50.9737 22.7405 50.7621 22.3239 50.8334C20.2959 51.1886 14.4694 51.3769 14.0163 41.9782C13.4674 30.5904 26.8087 11.1326 46.399 15.0007C62.1322 18.1087 50.3864 33.606 60.0253 37.5133C65.6665 39.8008 70.7658 51.5366 58.2374 61.7273C51.457 67.2365 34.0698 72.1028 23.3534 51.3591Z" fill="#F0F5D8"/>
<g clip-path="url(#clip0_644_4089)">
<path d="M57.8463 31.7001C58.0925 31.7001 58.3386 31.5155 58.3386 31.2078V24.4386C58.3386 24.1924 58.154 23.9463 57.8463 23.9463C57.5386 23.9463 57.354 24.1309 57.354 24.4386V31.2078C57.4155 31.5155 57.6002 31.7001 57.8463 31.7001Z" fill="#0B0B09"/>
<path d="M57.8463 22.4691C58.0925 22.4691 58.3386 22.2845 58.3386 21.9768V21.3614C58.3386 21.1153 58.154 20.8691 57.8463 20.8691C57.5386 20.8691 57.354 21.0538 57.354 21.3614V21.9768C57.4155 22.2845 57.6002 22.4691 57.8463 22.4691Z" fill="#0B0B09"/>
<path d="M54.7693 59.0845H54.1539C53.9078 59.0845 53.6616 59.2691 53.6616 59.5768C53.6616 59.8845 53.8462 60.0691 54.1539 60.0691H54.7693C55.0155 60.0691 55.2616 59.8845 55.2616 59.5768C55.2616 59.2691 55.0155 59.0845 54.7693 59.0845Z" fill="#0B0B09"/>
<path d="M25.8463 23.0845H26.6463V23.8845C26.6463 24.1307 26.8309 24.3768 27.1386 24.3768C27.4463 24.3768 27.6309 24.1922 27.6309 23.8845V23.0845H28.4309C28.6771 23.0845 28.9232 22.8999 28.9232 22.5922C28.9232 22.2845 28.7386 22.0999 28.4309 22.0999H27.6309V21.423C27.6309 21.1768 27.4463 20.9307 27.1386 20.9307C26.8309 20.9307 26.6463 21.1153 26.6463 21.423V22.223H25.8463C25.6002 22.223 25.354 22.4076 25.354 22.7153C25.354 23.023 25.6002 23.0845 25.8463 23.0845Z" fill="#0B0B09"/>
<path d="M33.8465 54.7767H33.0465V53.9767C33.0465 53.7305 32.8618 53.4844 32.5541 53.4844C32.2465 53.4844 32.0618 53.669 32.0618 53.9767V54.7767H31.2618C31.0157 54.7767 30.7695 54.9613 30.7695 55.269C30.7695 55.5767 30.9541 55.7613 31.2618 55.7613H32.0618V56.5613C32.0618 56.8075 32.2465 57.0536 32.5541 57.0536C32.8618 57.0536 33.0465 56.869 33.0465 56.5613V55.7613H33.8465C34.0926 55.7613 34.3388 55.5767 34.3388 55.269C34.3388 54.9613 34.0926 54.7767 33.8465 54.7767Z" fill="#0B0B09"/>
<path d="M37.5385 28.6228C37.7847 28.6228 38.0308 28.4382 38.0308 28.1305C38.0308 27.8228 37.8462 27.6382 37.5385 27.6382C33.477 27.6382 30.0924 30.7151 29.7231 34.7766C29.7231 35.0228 29.9078 35.269 30.1539 35.269C30.1539 35.269 30.1539 35.269 30.2155 35.269C30.4616 35.269 30.6462 35.0843 30.6462 34.8382C30.9539 31.392 33.9078 28.6228 37.5385 28.6228Z" fill="#0B0B09"/>
<path d="M51.6925 59.0846H44.1233V47.7616H47.3848C47.5694 47.7616 47.754 47.6385 47.8156 47.4539C47.8771 47.2692 47.8771 47.0846 47.6925 46.9616L40.3079 39.5769C40.1233 39.3923 39.8156 39.3923 39.6309 39.5769L32.3079 46.9616C32.1848 47.0846 32.1232 47.2692 32.1848 47.4539C32.2463 47.6385 32.4309 47.7616 32.6156 47.7616H35.8771V59.6385C35.8771 59.8846 36.0617 60.1308 36.3694 60.1308C36.6771 60.1308 36.8617 59.9462 36.8617 59.6385V47.3308C36.8617 47.0846 36.6771 46.8385 36.3694 46.8385H33.7848L40.0617 40.5616L46.3386 46.8385H43.754C43.5079 46.8385 43.2617 47.0231 43.2617 47.3308V59.6385C43.2617 59.8231 43.3233 59.9462 43.5079 60.0077C43.5694 60.0692 43.6925 60.0692 43.754 60.0692H51.754C52.0002 60.0692 52.2463 59.8846 52.2463 59.5769C52.2463 59.2692 51.9386 59.0846 51.6925 59.0846Z" fill="#0B0B09"/>
<path d="M55.5079 38.6537C55.7541 38.0383 55.8156 37.4229 55.8156 36.8075C55.8156 33.8537 53.4156 31.3921 50.4002 31.3921C49.2925 31.3921 48.1848 31.7614 47.2618 32.3767C45.9079 28.1306 41.9695 25.2383 37.4772 25.2383C32.1848 25.2383 27.8772 29.1152 27.2618 34.346C23.5695 35.5767 21.0464 39.0844 21.0464 42.9614C21.0464 47.946 25.1079 52.069 30.1541 52.069H33.8464C34.0925 52.069 34.3387 51.8844 34.3387 51.5767C34.3387 51.2691 34.1541 51.0844 33.8464 51.0844H30.1541C25.6618 51.0844 21.9695 47.4537 21.9695 42.8998C21.9695 39.3306 24.3695 36.0691 27.8156 35.0844C28.0002 35.0229 28.1233 34.8998 28.1233 34.6537C28.6156 29.8537 32.6156 26.1614 37.5387 26.1614C41.8464 26.1614 45.6002 29.1152 46.6464 33.2998C46.7079 33.4844 46.831 33.6075 46.9541 33.6075C47.1387 33.6691 47.2618 33.6075 47.3848 33.4844C48.2464 32.6844 49.2925 32.2537 50.4618 32.2537C52.9233 32.2537 54.9541 34.2844 54.9541 36.746C54.9541 37.3614 54.831 38.0383 54.5233 38.5921C54.4002 38.8383 54.5233 39.0844 54.7079 39.2075C56.7387 40.3152 57.9695 42.4075 57.9695 44.746C57.9695 48.2537 55.1387 51.0844 51.631 51.0844H46.0925C45.8464 51.0844 45.6002 51.2691 45.6002 51.5767C45.6002 51.8844 45.7848 52.069 46.0925 52.069H51.631C55.631 52.069 58.8925 48.8075 58.8925 44.8075C58.9541 42.2844 57.6002 40.0075 55.5079 38.6537Z" fill="#0B0B09"/>
</g>
<defs>
<clipPath id="clip0_644_4089">
<rect width="40" height="40" fill="white" transform="translate(20 20.5)"/>
</clipPath>
</defs>
</svg>
