<svg width="80" height="81" viewBox="0 0 80 81" fill="none" xmlns="http://www.w3.org/2000/svg">
<circle cx="40" cy="40.5" r="39.5" fill="white" stroke="#E0E6EC"/>
<path d="M23.3534 51.3591C23.1547 50.9737 22.7405 50.7621 22.3239 50.8334C20.2959 51.1886 14.4694 51.3769 14.0163 41.9782C13.4674 30.5904 26.8087 11.1326 46.399 15.0007C62.1322 18.1087 50.3864 33.606 60.0253 37.5133C65.6665 39.8008 70.7658 51.5366 58.2374 61.7273C51.457 67.2365 34.0698 72.1028 23.3534 51.3591V51.3591Z" fill="#F0F5D8"/>
<g clip-path="url(#clip0_644_4135)">
<path d="M56.0001 59.146H46.1539C45.9078 59.146 45.6616 59.3306 45.6616 59.6383C45.6616 59.946 45.8462 60.1306 46.1539 60.1306H56.0001C56.2462 60.1306 56.4924 59.946 56.4924 59.6383C56.4924 59.3306 56.2462 59.146 56.0001 59.146Z" fill="#0B0B09"/>
<path d="M59.6923 59.146H58.4615C58.2154 59.146 57.9692 59.3306 57.9692 59.6383C57.9692 59.946 58.1539 60.1306 58.4615 60.1306H59.6923C59.9385 60.1306 60.1846 59.946 60.1846 59.6383C60.1846 59.3306 59.9385 59.146 59.6923 59.146Z" fill="#0B0B09"/>
<path d="M38.7692 24.3767H46.7692C47.0153 24.3767 47.2615 24.1921 47.2615 23.8844C47.2615 23.5767 47.0769 23.3921 46.7692 23.3921H38.7692C38.523 23.3921 38.2769 23.5767 38.2769 23.8844C38.2769 24.1921 38.523 24.3767 38.7692 24.3767Z" fill="#0B0B09"/>
<path d="M49.2306 24.3767H49.846C50.0921 24.3767 50.3383 24.1921 50.3383 23.8844C50.3383 23.5767 50.1537 23.3921 49.846 23.3921H49.2306C48.9844 23.3921 48.7383 23.5767 48.7383 23.8844C48.7383 24.1921 48.9844 24.3767 49.2306 24.3767Z" fill="#0B0B09"/>
<path d="M20.3077 23.146H21.1077V23.946C21.1077 24.1922 21.2924 24.4384 21.6 24.4384C21.9077 24.4384 22.0924 24.2537 22.0924 23.946V23.146H22.8924C23.1385 23.146 23.3847 22.9614 23.3847 22.6537C23.3847 22.346 23.0154 22.223 22.7693 22.223H22.0308V21.423C22.0308 21.1768 21.8462 20.9307 21.5385 20.9307C21.2308 20.9307 21.1077 21.1768 21.1077 21.423V22.223H20.3077C20.0616 22.223 19.8154 22.4076 19.8154 22.7153C19.8154 23.023 20.0616 23.146 20.3077 23.146Z" fill="#0B0B09"/>
<path d="M58.9539 57.1151V26.3458C58.9539 26.0997 58.7693 25.8535 58.4616 25.8535H20.3077C20.0616 25.8535 19.8154 26.0381 19.8154 26.3458V46.0381C19.8154 46.2843 20 46.5304 20.3077 46.5304C20.6154 46.5304 20.8 46.3458 20.8 46.0381V31.7612H58.0308V56.6843H20.8V49.7304C20.8 49.4843 20.6154 49.2381 20.3077 49.2381C20 49.2381 19.8154 49.4227 19.8154 49.7304V57.1151C19.8154 57.3612 20 57.6074 20.3077 57.6074H58.4616C58.7077 57.6074 58.9539 57.3612 58.9539 57.1151ZM20.8 30.8381V26.8381H33.4154V30.8381H20.8ZM34.3385 30.8381V26.8381H58.0308V30.8381H34.3385Z" fill="#0B0B09"/>
<path d="M55.9999 55.146C56.2461 55.146 56.4922 54.9614 56.4922 54.6537V33.7306C56.4922 33.4844 56.3076 33.2383 55.9999 33.2383H22.7692C22.523 33.2383 22.2769 33.4229 22.2769 33.7306V54.6537C22.2769 54.8998 22.4615 55.146 22.7692 55.146H55.9999ZM23.2615 34.2229H55.5692V54.2229H23.2615V34.2229Z" fill="#0B0B09"/>
<path d="M24.0002 29.4232C24.34 29.4232 24.6155 29.1476 24.6155 28.8078C24.6155 28.4679 24.34 28.1924 24.0002 28.1924C23.6603 28.1924 23.3848 28.4679 23.3848 28.8078C23.3848 29.1476 23.6603 29.4232 24.0002 29.4232Z" fill="#0B0B09"/>
<path d="M27.0768 29.4232C27.4167 29.4232 27.6922 29.1476 27.6922 28.8078C27.6922 28.4679 27.4167 28.1924 27.0768 28.1924C26.7369 28.1924 26.4614 28.4679 26.4614 28.8078C26.4614 29.1476 26.7369 29.4232 27.0768 29.4232Z" fill="#0B0B09"/>
<path d="M30.154 29.4232C30.4938 29.4232 30.7693 29.1476 30.7693 28.8078C30.7693 28.4679 30.4938 28.1924 30.154 28.1924C29.8141 28.1924 29.5386 28.4679 29.5386 28.8078C29.5386 29.1476 29.8141 29.4232 30.154 29.4232Z" fill="#0B0B09"/>
<path d="M55.3845 28.377H36.923C36.6768 28.377 36.4307 28.5616 36.4307 28.8693C36.4307 29.177 36.6153 29.3616 36.923 29.3616H55.3845C55.6307 29.3616 55.8768 29.177 55.8768 28.8693C55.8768 28.5616 55.6307 28.377 55.3845 28.377Z" fill="#0B0B09"/>
<path d="M52.9233 38.2231H45.5387C45.2925 38.2231 45.0464 38.4078 45.0464 38.7155C45.0464 39.0231 45.231 39.2078 45.5387 39.2078H52.9233C53.1695 39.2078 53.4156 39.0231 53.4156 38.7155C53.4156 38.4078 53.1695 38.2231 52.9233 38.2231Z" fill="#0B0B09"/>
<path d="M52.9233 41.915H45.5387C45.2925 41.915 45.0464 42.0997 45.0464 42.4073C45.0464 42.715 45.231 42.8997 45.5387 42.8997H52.9233C53.1695 42.8997 53.4156 42.715 53.4156 42.4073C53.4156 42.0997 53.1695 41.915 52.9233 41.915Z" fill="#0B0B09"/>
<path d="M52.9233 45.6074H39.3849C39.1387 45.6074 38.8926 45.792 38.8926 46.0997C38.8926 46.4074 39.0772 46.592 39.3849 46.592H52.9233C53.1695 46.592 53.4157 46.4074 53.4157 46.0997C53.4157 45.792 53.1695 45.6074 52.9233 45.6074Z" fill="#0B0B09"/>
<path d="M52.9233 49.2998H39.3849C39.1387 49.2998 38.8926 49.4844 38.8926 49.7921C38.8926 50.0998 39.0772 50.2844 39.3849 50.2844H52.9233C53.1695 50.2844 53.4157 50.0998 53.4157 49.7921C53.4157 49.4844 53.1695 49.2998 52.9233 49.2998Z" fill="#0B0B09"/>
<path d="M36.7383 37.2999V37.2383C36.7383 37.2383 36.7383 37.1768 36.6767 37.1768L36.6152 37.1152H36.5537L36.4921 37.0537C36.4921 37.0537 36.4306 37.0537 36.3691 37.0537H36.3075H25.2306C24.9844 37.0537 24.7383 37.2383 24.7383 37.546V51.0845C24.7383 51.146 24.7383 51.146 24.7383 51.2076V51.2691C24.7383 51.2691 24.7383 51.3306 24.7998 51.3306C24.8614 51.2691 24.9229 51.2691 24.9229 51.3306C24.9229 51.3306 24.9844 51.3306 24.9844 51.3922C24.9844 51.3922 25.046 51.3922 25.046 51.4537C25.1075 51.4537 25.1691 51.5153 25.2306 51.5153H36.3075C36.5537 51.5153 36.7998 51.3306 36.7998 51.0229V37.4845C36.7383 37.3614 36.7383 37.3614 36.7383 37.2999ZM35.3229 37.9152L25.7229 49.6691V37.9152H35.3229ZM26.2152 50.5306L35.8767 38.7768V50.5306H26.2152Z" fill="#0B0B09"/>
<path d="M20.3078 48.3154C20.3693 48.3154 20.4308 48.3154 20.4924 48.2539C20.5539 48.2539 20.6154 48.2539 20.6154 48.1923C20.677 48.0692 20.7385 48.0077 20.7385 47.8846C20.7385 47.8231 20.7385 47.7616 20.677 47.7C20.6154 47.6385 20.677 47.5769 20.6154 47.5769C20.4308 47.3923 20.1231 47.3923 19.9385 47.5769C19.877 47.6385 19.877 47.7 19.8154 47.7C19.8154 47.7616 19.7539 47.8231 19.7539 47.8846C19.7539 48.0077 19.8154 48.1308 19.877 48.1923C20.0616 48.3154 20.1847 48.3154 20.3078 48.3154Z" fill="#0B0B09"/>
</g>
<defs>
<clipPath id="clip0_644_4135">
<rect width="40" height="40" fill="white" transform="translate(20 20.5)"/>
</clipPath>
</defs>
</svg>
