<svg width="80" height="81" viewBox="0 0 80 81" fill="none" xmlns="http://www.w3.org/2000/svg">
<rect width="80" height="80" transform="translate(0 0.5)" fill="white"/>
<circle cx="40" cy="40.5" r="39.5" stroke="#E0E6EC"/>
<path d="M23.3534 51.3591C23.1547 50.9737 22.7405 50.7621 22.3239 50.8334C20.2959 51.1886 14.4694 51.3769 14.0163 41.9782C13.4674 30.5904 26.8087 11.1326 46.399 15.0007C62.1322 18.1087 50.3864 33.606 60.0253 37.5133C65.6665 39.8008 70.7658 51.5366 58.2374 61.7273C51.457 67.2365 34.0698 72.1028 23.3534 51.3591V51.3591Z" fill="#F0F5D8"/>
<g clip-path="url(#clip0_644_4106)">
<path d="M20.923 54.2231C20.6768 54.2231 20.4307 54.4078 20.4307 54.7155V59.6385C20.4307 59.8847 20.6153 60.1308 20.923 60.1308C21.2307 60.1308 21.4153 59.9462 21.4153 59.6385V54.7155C21.3537 54.4078 21.1691 54.2231 20.923 54.2231Z" fill="#0B0B09"/>
<path d="M20.923 50.5308C20.6768 50.5308 20.4307 50.7154 20.4307 51.0231V52.2538C20.4307 52.5 20.6153 52.7462 20.923 52.7462C21.2307 52.7462 21.4153 52.5615 21.4153 52.2538V51.0231C21.3537 50.7154 21.1691 50.5308 20.923 50.5308Z" fill="#0B0B09"/>
<path d="M44.3077 21.9153H51.6924C51.9385 21.9153 52.1847 21.7307 52.1847 21.423C52.1847 21.1153 52 20.9307 51.6924 20.9307H44.3077C44.0616 20.9307 43.8154 21.1153 43.8154 21.423C43.8154 21.7307 44.0616 21.9153 44.3077 21.9153Z" fill="#0B0B09"/>
<path d="M54.1539 21.9153H55.3847C55.6308 21.9153 55.877 21.7307 55.877 21.423C55.877 21.1153 55.6924 20.9307 55.3847 20.9307H54.1539C53.9078 20.9307 53.6616 21.1153 53.6616 21.423C53.6616 21.7307 53.9078 21.9153 54.1539 21.9153Z" fill="#0B0B09"/>
<path d="M56.6154 33.9154C56.3692 33.9154 56.123 34.1 56.123 34.4077C56.123 34.7154 56.3077 34.9 56.6154 34.9H57.4154V35.7C57.4154 35.9461 57.6 36.1923 57.9077 36.1923C58.2154 36.1923 58.4 36.0077 58.4 35.7V34.9H59.2C59.4461 34.9 59.6923 34.7154 59.6923 34.4077C59.6923 34.1 59.5077 33.9154 59.2 33.9154H58.4V33.1154C58.4 32.8692 58.2154 32.623 57.9077 32.623C57.6 32.623 57.4154 32.8077 57.4154 33.1154V33.9154H56.6154Z" fill="#0B0B09"/>
<path d="M28.3077 23.146H29.1077V23.946C29.1077 24.1922 29.2924 24.4384 29.6 24.4384C29.9077 24.4384 30.0924 24.2537 30.0924 23.946V23.146H30.8924C31.1385 23.146 31.3847 22.9614 31.3847 22.6537C31.3847 22.346 31.2 22.1614 30.8924 22.1614H30.0924V21.423C30.0924 21.1768 29.9077 20.9307 29.6 20.9307C29.2924 20.9307 29.1077 21.1153 29.1077 21.423V22.223H28.3077C28.0616 22.223 27.8154 22.4076 27.8154 22.7153C27.8154 23.023 28.0616 23.146 28.3077 23.146Z" fill="#0B0B09"/>
<path d="M54.2766 33.7305L56.8612 31.1459C57.5381 30.4689 57.5381 29.4228 56.8612 28.7459L54.2766 26.1613C54.092 25.9766 53.9073 25.8536 53.7227 25.792C53.5381 25.7305 53.292 25.6689 53.1073 25.6689C52.6766 25.6689 52.2458 25.8536 51.9381 26.1613L49.3535 28.7459L26.6458 51.3305C26.5843 51.392 26.5843 51.4536 26.5227 51.5151L24.3073 58.0382C24.2458 58.2228 24.3073 58.4074 24.4304 58.5305C24.5535 58.592 24.6766 58.6536 24.7997 58.6536C24.8612 58.6536 24.9227 58.6536 24.9227 58.6536L31.4458 56.4997C31.5073 56.4997 31.5689 56.4382 31.6304 56.3766L54.2766 33.7305ZM31.3227 55.392L29.7843 53.8536L51.7535 31.8843L53.292 33.4228L31.3227 55.392ZM27.1381 52.4997L28.7997 54.1613L30.4612 55.8228L28.7997 56.3766L26.5843 54.1613L27.1381 52.4997ZM52.492 26.7766C52.7997 26.4689 53.292 26.4689 53.5997 26.7766L56.1843 29.3613C56.492 29.6689 56.492 30.1613 56.1843 30.4689L53.9073 32.7459L52.0612 30.8997L50.215 29.0536L52.492 26.7766ZM49.5997 29.6689L51.1381 31.2074L29.1073 53.1766L27.5689 51.6382L49.5997 29.6689ZM26.2766 55.1459L27.815 56.6843L25.4766 57.4843L26.2766 55.1459Z" fill="#0B0B09"/>
<path d="M59.077 38.1616H52.1232C51.877 38.1616 51.6309 38.3462 51.6309 38.6539C51.6309 38.9616 51.8155 39.1462 52.1232 39.1462H59.077C59.3232 39.1462 59.5693 38.9616 59.5693 38.6539C59.5693 38.3462 59.3232 38.1616 59.077 38.1616Z" fill="#0B0B09"/>
<path d="M20.923 45.2385H30.3384C30.5845 45.2385 30.8307 45.0539 30.8307 44.7462C30.8307 44.4385 30.646 44.2539 30.3384 44.2539H20.923C20.6768 44.2539 20.4307 44.4385 20.4307 44.7462C20.4307 45.0539 20.6768 45.2385 20.923 45.2385Z" fill="#0B0B09"/>
<path d="M59.0771 44.3154H45.9694C45.7232 44.3154 45.4771 44.5 45.4771 44.8077C45.4771 45.1154 45.6617 45.3 45.9694 45.3H59.0771C59.3232 45.3 59.5694 45.1154 59.5694 44.8077C59.5694 44.5 59.3232 44.3154 59.0771 44.3154Z" fill="#0B0B09"/>
<path d="M59.0766 50.4692H39.8151C39.5689 50.4692 39.3228 50.6539 39.3228 50.9615C39.3228 51.2692 39.5074 51.4538 39.8151 51.4538H59.0766C59.3228 51.4538 59.5689 51.2692 59.5689 50.9615C59.5689 50.6539 59.3228 50.4692 59.0766 50.4692Z" fill="#0B0B09"/>
<path d="M32.0001 26.7766H48.8001C49.0463 26.7766 49.2924 26.592 49.2924 26.2843C49.2924 25.9766 49.1078 25.792 48.8001 25.792H32.0001C31.754 25.792 31.5078 25.9766 31.5078 26.2843C31.5078 26.592 31.754 26.7766 32.0001 26.7766Z" fill="#0B0B09"/>
<path d="M20.923 26.7766H27.0768C27.323 26.7766 27.5691 26.592 27.5691 26.2843C27.5691 25.9766 27.3845 25.792 27.0768 25.792H20.923C20.6768 25.792 20.4307 25.9766 20.4307 26.2843C20.4307 26.592 20.6768 26.7766 20.923 26.7766Z" fill="#0B0B09"/>
<path d="M20.923 32.9309H33.846C34.0922 32.9309 34.3384 32.7463 34.3384 32.4386C34.3384 32.1309 34.1537 31.9463 33.846 31.9463H20.923C20.6768 31.9463 20.4307 32.1309 20.4307 32.4386C20.4307 32.7463 20.6768 32.9309 20.923 32.9309Z" fill="#0B0B09"/>
<path d="M37.5382 32.0078C37.2921 32.0078 37.0459 32.1924 37.0459 32.5001C37.0459 32.8078 37.2305 32.9924 37.5382 32.9924H42.6459C42.8921 32.9924 43.1382 32.8078 43.1382 32.5001C43.1382 32.1924 42.9536 32.0078 42.6459 32.0078H37.5382Z" fill="#0B0B09"/>
<path d="M20.923 39.0847H36.4922C36.7384 39.0847 36.9845 38.9001 36.9845 38.5924C36.9845 38.2847 36.7999 38.1001 36.4922 38.1001H20.923C20.6768 38.1001 20.4307 38.2847 20.4307 38.5924C20.4307 38.9001 20.6768 39.0847 20.923 39.0847Z" fill="#0B0B09"/>
<path d="M48.6151 56.623H33.6613C33.4151 56.623 33.1689 56.8077 33.1689 57.1154C33.1689 57.423 33.3536 57.6077 33.6613 57.6077H48.6151C48.8613 57.6077 49.1074 57.423 49.1074 57.1154C49.1074 56.8077 48.8613 56.623 48.6151 56.623Z" fill="#0B0B09"/>
<path d="M59.0767 56.623H53.5382C53.2921 56.623 53.0459 56.8077 53.0459 57.1154C53.0459 57.423 53.2305 57.6077 53.5382 57.6077H59.0767C59.3228 57.6077 59.569 57.423 59.569 57.1154C59.569 56.8077 59.3228 56.623 59.0767 56.623Z" fill="#0B0B09"/>
</g>
<defs>
<clipPath id="clip0_644_4106">
<rect width="40" height="40" fill="white" transform="translate(20 20.5)"/>
</clipPath>
</defs>
</svg>
