<svg width="80" height="81" viewBox="0 0 80 81" fill="none" xmlns="http://www.w3.org/2000/svg">
<rect width="80" height="80" transform="translate(0 0.5)" fill="white"/>
<circle cx="40" cy="40.5" r="39.5" stroke="#E0E6EC"/>
<path d="M23.3534 51.3591C23.1547 50.9737 22.7405 50.7621 22.3239 50.8334C20.2959 51.1886 14.4694 51.3769 14.0163 41.9782C13.4674 30.5904 26.8087 11.1326 46.399 15.0007C62.1322 18.1087 50.3864 33.606 60.0253 37.5133C65.6665 39.8008 70.7658 51.5366 58.2374 61.7273C51.457 67.2365 34.0698 72.1028 23.3534 51.3591V51.3591Z" fill="#F0F5D8"/>
<g clip-path="url(#clip0_644_4161)">
<path d="M55.3844 58.6611H45.5382C45.2921 58.6611 45.0459 58.8457 45.0459 59.1534C45.0459 59.4611 45.2305 59.6457 45.5382 59.6457H55.3844C55.6305 59.6457 55.8767 59.4611 55.8767 59.1534C55.8767 58.8457 55.6305 58.6611 55.3844 58.6611Z" fill="#0B0B09"/>
<path d="M59.0766 58.6611H57.8458C57.5997 58.6611 57.3535 58.8457 57.3535 59.1534C57.3535 59.4611 57.5381 59.6457 57.8458 59.6457H59.0766C59.3227 59.6457 59.5689 59.4611 59.5689 59.1534C59.5689 58.8457 59.3227 58.6611 59.0766 58.6611Z" fill="#0B0B09"/>
<path d="M24.0001 22.6614H30.7693C31.0155 22.6614 31.2616 22.4768 31.2616 22.1691C31.2616 21.8614 31.077 21.6768 30.7693 21.6768H24.0001C23.754 21.7383 23.5693 21.9845 23.5693 22.2306C23.5693 22.4768 23.754 22.6614 24.0001 22.6614Z" fill="#0B0B09"/>
<path d="M20.923 22.6614H21.5383C21.7845 22.6614 22.0306 22.4767 22.0306 22.1691C22.0306 21.8614 21.7845 21.7383 21.5383 21.7383H20.923C20.6768 21.7383 20.4922 21.9844 20.4922 22.2306C20.4922 22.4767 20.6768 22.6614 20.923 22.6614Z" fill="#0B0B09"/>
<path d="M35.0769 58.1077H34.2769V57.3077C34.2769 57.0616 34.0923 56.8154 33.7846 56.8154C33.4769 56.8154 33.2923 57 33.2923 57.3077V58.1077H32.4923C32.2462 58.1077 32 58.2924 32 58.6C32 58.9077 32.1846 59.0924 32.4923 59.0924H33.2923V59.7693C33.2923 60.0154 33.4769 60.2616 33.7846 60.2616C34.0923 60.2616 34.2769 60.077 34.2769 59.7693V58.9693H35.0769C35.3231 58.9693 35.5692 58.7847 35.5692 58.477C35.5692 58.1693 35.3231 58.1077 35.0769 58.1077Z" fill="#0B0B09"/>
<path d="M56.6154 24.5074H57.4154V25.3074C57.4154 25.5535 57.6 25.7997 57.9077 25.7997C58.2154 25.7997 58.4 25.6151 58.4 25.3074V24.5074H59.2C59.4461 24.5074 59.6923 24.3227 59.6923 24.0151C59.6923 23.7074 59.5077 23.5227 59.2 23.5227H58.4V22.8458C58.4 22.5997 58.2154 22.3535 57.9077 22.3535C57.6 22.3535 57.4154 22.5997 57.4154 22.8458V23.6458H56.6154C56.3692 23.6458 56.123 23.8304 56.123 24.1381C56.123 24.4458 56.3692 24.5074 56.6154 24.5074Z" fill="#0B0B09"/>
<path d="M59.5076 30.2305C59.5076 29.9844 59.323 29.7382 59.0153 29.7382H47.6922L45.9691 26.2921C45.9076 26.1074 45.723 26.0459 45.5384 26.0459H34.4614C34.2768 26.0459 34.1537 26.169 34.0307 26.2921L32.3076 29.7997H29.9691V27.769C29.9691 27.5228 29.7845 27.2767 29.4768 27.2767H23.323C23.0768 27.2767 22.8307 27.4613 22.8307 27.769V29.7997H20.923C20.6768 29.7997 20.4307 29.9844 20.4307 30.2921V54.9074C20.4307 55.1536 20.6153 55.3997 20.923 55.3997H59.0768C59.323 55.3997 59.5691 55.2151 59.5691 54.9074V51.2151V30.2305H59.5076ZM23.8768 28.1997H29.1076V29.7382H23.8768V28.1997ZM32.6153 30.7228C32.7999 30.7228 32.923 30.5997 33.046 30.4767L34.7691 27.0305H45.2307L46.9537 30.4767C47.0153 30.6613 47.1999 30.7228 47.3845 30.7228H58.646V35.9536H49.846C49.5999 35.9536 49.3537 36.1382 49.3537 36.4459C49.3537 36.7536 49.5384 36.9382 49.846 36.9382H58.5845V50.7844H46.0922C48.3076 48.9997 49.723 46.2921 49.723 43.2151C49.723 37.8613 45.3537 33.4921 39.9999 33.4921C34.646 33.4921 30.3384 37.7997 30.3384 43.1536C30.3384 46.169 31.7537 48.9382 33.9691 50.7228H21.3537V36.8151H30.4614C30.7076 36.8151 30.9537 36.6305 30.9537 36.3228C30.9537 36.0151 30.7691 35.8305 30.4614 35.8305H21.3537V30.5997H32.6153V30.7228ZM31.2614 43.1536C31.2614 38.2921 35.1999 34.3536 40.0614 34.3536C44.923 34.3536 48.7999 38.2921 48.7999 43.1536C48.7999 48.0151 44.8614 51.9536 39.9999 51.9536C35.1384 51.9536 31.2614 48.0151 31.2614 43.1536ZM21.3537 54.4151V51.6459H35.0768C35.1384 51.6459 35.1999 51.6459 35.2614 51.5844C36.6768 52.3844 38.2768 52.8767 39.9999 52.8767C41.723 52.8767 43.323 52.4459 44.7384 51.6459H58.646V54.4151H21.3537Z" fill="#0B0B09"/>
<path d="M47.2613 43.1536C47.2613 39.1536 43.9998 35.8921 39.9998 35.8921C35.9998 35.8921 32.7998 39.1536 32.7998 43.1536C32.7998 47.1536 35.9998 50.3536 39.9998 50.3536C43.9998 50.3536 47.2613 47.1536 47.2613 43.1536ZM33.7229 43.1536C33.7229 39.6459 36.5537 36.8152 40.0613 36.8152C43.569 36.8152 46.3383 39.6459 46.3383 43.1536C46.3383 46.6613 43.5075 49.4921 39.9998 49.4921C36.4921 49.4921 33.7229 46.6613 33.7229 43.1536Z" fill="#0B0B09"/>
<path d="M40.492 38.8458C40.492 38.5997 40.3074 38.3535 39.9997 38.3535C37.3536 38.3535 35.1997 40.5074 35.1997 43.1535C35.1997 43.3997 35.3843 43.6458 35.692 43.6458C35.9997 43.6458 36.1843 43.4612 36.1843 43.1535C36.1843 41.0612 37.9074 39.2766 40.0612 39.2766C40.2459 39.2766 40.492 39.092 40.492 38.8458Z" fill="#0B0B09"/>
<path d="M36.923 29.4304H43.0768C43.323 29.4304 43.5691 29.2458 43.5691 28.9381C43.5691 28.6304 43.3845 28.4458 43.0768 28.4458H36.923C36.6768 28.4458 36.4307 28.6304 36.4307 28.9381C36.4307 29.2458 36.6768 29.4304 36.923 29.4304Z" fill="#0B0B09"/>
<path d="M54.1537 34.9691C55.0768 34.9691 55.8768 34.2306 55.8768 33.246C55.8768 32.2614 55.1384 31.5229 54.1537 31.5229C53.1691 31.5229 52.4307 32.2614 52.4307 33.246C52.4307 34.2306 53.2307 34.9691 54.1537 34.9691ZM54.1537 32.5076C54.5845 32.5076 54.9537 32.8768 54.9537 33.3076C54.9537 33.7383 54.5845 34.1076 54.1537 34.1076C53.723 34.1076 53.3537 33.7383 53.3537 33.3076C53.3537 32.8768 53.723 32.5076 54.1537 32.5076Z" fill="#0B0B09"/>
</g>
<defs>
<clipPath id="clip0_644_4161">
<rect width="40" height="40" fill="white" transform="translate(20 21)"/>
</clipPath>
</defs>
</svg>
