<svg width="80" height="81" viewBox="0 0 80 81" fill="none" xmlns="http://www.w3.org/2000/svg">
<circle cx="40" cy="40.5" r="39.5" fill="white" stroke="#E0E6EC"/>
<path d="M23.3534 51.3591C23.1547 50.9737 22.7405 50.7621 22.3239 50.8334C20.2959 51.1886 14.4694 51.3769 14.0163 41.9782C13.4674 30.5904 26.8087 11.1326 46.399 15.0007C62.1322 18.1087 50.3864 33.606 60.0253 37.5133C65.6665 39.8008 70.7658 51.5366 58.2374 61.7273C51.457 67.2365 34.0698 72.1028 23.3534 51.3591Z" fill="#F0F5D8"/>
<g clip-path="url(#clip0_644_4067)">
<path d="M55.9998 59.146H47.3844C47.1382 59.146 46.8921 59.3306 46.8921 59.6383C46.8921 59.946 47.0767 60.1306 47.3844 60.1306H55.9998C56.2459 60.1306 56.4921 59.946 56.4921 59.6383C56.4921 59.3306 56.2459 59.146 55.9998 59.146Z" fill="#0B0B09"/>
<path d="M59.0766 59.146H57.8458C57.5997 59.146 57.3535 59.3306 57.3535 59.6383C57.3535 59.946 57.5381 60.1306 57.8458 60.1306H59.0766C59.3227 60.1306 59.5689 59.946 59.5689 59.6383C59.5689 59.3306 59.3227 59.146 59.0766 59.146Z" fill="#0B0B09"/>
<path d="M20.923 29.2998C21.1691 29.2998 21.4153 29.1152 21.4153 28.8075V23.8844C21.4153 23.6382 21.2307 23.3921 20.923 23.3921C20.6153 23.3921 20.4307 23.6382 20.4307 23.8844V28.8075C20.4307 29.0536 20.6768 29.2998 20.923 29.2998Z" fill="#0B0B09"/>
<path d="M20.923 22.5307C21.1691 22.5307 21.4153 22.346 21.4153 22.0384V21.423C21.4153 21.1768 21.2307 20.9307 20.923 20.9307C20.6153 20.9307 20.4307 21.1768 20.4307 21.423V22.0384C20.4307 22.2845 20.6768 22.5307 20.923 22.5307Z" fill="#0B0B09"/>
<path d="M27.0768 24.3768H27.8768V25.1768C27.8768 25.4229 28.0614 25.6691 28.3691 25.6691C28.6768 25.6691 28.8614 25.4845 28.8614 25.1768V24.3768H29.6614C29.9076 24.3768 30.1537 24.1921 30.1537 23.8845C30.1537 23.5768 29.9691 23.3921 29.6614 23.3921H28.8614V22.6537C28.8614 22.4075 28.6768 22.1614 28.3691 22.1614C28.0614 22.1614 27.8768 22.346 27.8768 22.6537V23.4537H27.0768C26.8306 23.4537 26.5845 23.6383 26.5845 23.946C26.5845 24.2537 26.8306 24.3768 27.0768 24.3768Z" fill="#0B0B09"/>
<path d="M50.4614 55.7614C50.7075 55.7614 50.9537 55.5768 50.9537 55.2691V54.4691H51.7537C51.9998 54.4691 52.246 54.2844 52.246 53.9768C52.246 53.6691 52.0614 53.4844 51.7537 53.4844H50.9537V52.6844C50.9537 52.4383 50.7691 52.1921 50.4614 52.1921C50.1537 52.1921 49.9691 52.3768 49.9691 52.6844V53.4844H49.1691C48.9229 53.4844 48.6768 53.6691 48.6768 53.9768C48.6768 54.2844 48.8614 54.4691 49.1691 54.4691H49.9691V55.2691C49.9691 55.5152 50.2152 55.7614 50.4614 55.7614Z" fill="#0B0B09"/>
<path d="M44.923 50.223C47.8768 50.223 50.7076 49.3614 53.1691 47.6999L58.8922 50.223C58.9538 50.223 59.0153 50.2845 59.0768 50.2845C59.1999 50.2845 59.323 50.223 59.3845 50.1614C59.5076 50.0383 59.5691 49.8537 59.5076 49.6691L57.4768 43.0845C58.8307 40.8076 59.5076 38.2845 59.5076 35.6383C59.5076 27.5768 52.923 20.9922 44.8615 20.9922C36.7999 20.9922 30.3384 27.5153 30.3384 35.5768C30.3384 43.6383 36.8615 50.223 44.923 50.223ZM44.923 21.9153C52.4922 21.9153 58.6461 28.0691 58.6461 35.6383C58.6461 38.1614 57.9691 40.623 56.6153 42.7768C56.5538 42.8999 56.5538 43.023 56.5538 43.146L58.3384 48.9307L53.2922 46.7153C53.1691 46.6537 52.9845 46.6537 52.8615 46.7768C50.523 48.4383 47.8153 49.2999 44.923 49.2999C37.3538 49.2999 31.1999 43.146 31.1999 35.5768C31.1999 28.0076 37.3538 21.9153 44.923 21.9153Z" fill="#0B0B09"/>
<path d="M35.1385 29.1767C35.2 29.2383 35.3231 29.2383 35.3846 29.2383C35.5077 29.2383 35.6923 29.1767 35.7539 29.0536C37.8462 26.0998 41.2923 24.3152 44.9231 24.3152C45.1693 24.3152 45.4154 24.1306 45.4154 23.8229C45.4154 23.5152 45.2308 23.3306 44.9231 23.3306C40.9846 23.3306 37.2923 25.2383 35.0154 28.4383C34.8923 28.7459 34.8923 29.0536 35.1385 29.1767Z" fill="#0B0B09"/>
<path d="M38.1535 32.6846C36.5535 32.6846 35.2612 33.9769 35.2612 35.6384C35.2612 37.3 36.5535 38.5923 38.1535 38.5923C39.7535 38.5923 41.1074 37.3 41.1074 35.6384C41.1074 33.9769 39.7535 32.6846 38.1535 32.6846ZM38.1535 37.6076C37.0458 37.6076 36.1843 36.6846 36.1843 35.5769C36.1843 34.4692 37.1074 33.5461 38.1535 33.5461C39.1997 33.5461 40.1843 34.4692 40.1843 35.5769C40.1843 36.6846 39.2612 37.6076 38.1535 37.6076Z" fill="#0B0B09"/>
<path d="M42.646 35.5769C42.646 37.1769 43.9383 38.5307 45.5998 38.5307C47.1998 38.5307 48.4922 37.2384 48.4922 35.5769C48.4922 33.9154 47.1998 32.623 45.5998 32.623C43.9383 32.6846 42.646 33.9769 42.646 35.5769ZM45.5383 33.6077C46.646 33.6077 47.5075 34.5307 47.5075 35.6384C47.5075 36.7461 46.5845 37.6692 45.5383 37.6692C44.4922 37.6692 43.5075 36.7461 43.5075 35.6384C43.5075 34.5307 44.4306 33.6077 45.5383 33.6077Z" fill="#0B0B09"/>
<path d="M52.9231 38.5307C54.5231 38.5307 55.8769 37.2384 55.8769 35.5769C55.8769 33.9154 54.5846 32.623 52.9231 32.623C51.2615 32.623 49.9692 33.9154 49.9692 35.5769C49.9692 37.2384 51.3231 38.5307 52.9231 38.5307ZM52.9231 33.6077C54.0308 33.6077 54.9538 34.5307 54.9538 35.6384C54.9538 36.7461 54.0308 37.6692 52.9231 37.6692C51.8154 37.6692 50.8923 36.7461 50.8923 35.6384C50.8923 34.5307 51.8154 33.6077 52.9231 33.6077Z" fill="#0B0B09"/>
<path d="M44.3076 51.8229C41.7845 54.1613 38.523 55.3921 35.0768 55.3921C32.2461 55.3921 29.4768 54.5306 27.1384 52.869C27.0153 52.7459 26.8307 52.7459 26.7076 52.8075L21.6614 55.0229L23.4461 49.2383C23.5076 49.1152 23.4461 48.9921 23.3845 48.869C22.0922 46.7152 21.3538 44.2536 21.3538 41.7306C21.3538 36.069 24.7384 31.0844 29.9691 28.9921C30.2153 28.869 30.3384 28.6229 30.2153 28.3767C30.0922 28.1306 29.8461 28.0075 29.5999 28.1306C23.9999 30.3459 20.3691 35.6998 20.3691 41.7306C20.3691 44.3767 21.0461 46.9613 22.3999 49.1767L20.4922 55.7613C20.4307 55.9459 20.4922 56.1306 20.6153 56.2536C20.6768 56.3152 20.7999 56.3767 20.923 56.3767C20.9845 56.3767 21.0461 56.3767 21.1076 56.3152L26.8307 53.7921C29.2922 55.4536 32.123 56.3152 35.0768 56.3152C38.7076 56.3152 42.2153 54.9613 44.923 52.4998C45.1076 52.3152 45.1076 52.0075 44.923 51.8229C44.7999 51.6998 44.4922 51.6998 44.3076 51.8229Z" fill="#0B0B09"/>
</g>
<defs>
<clipPath id="clip0_644_4067">
<rect width="40" height="40" fill="white" transform="translate(20 20.5)"/>
</clipPath>
</defs>
</svg>
