<svg width="48" height="48" viewBox="0 0 48 48" fill="none" xmlns="http://www.w3.org/2000/svg">
<circle cx="24" cy="24" r="24" fill="#9CC801"/>
<path d="M34.8748 23.2483C34.8746 23.2261 34.8723 23.204 34.8682 23.1823C34.8673 23.1773 34.8664 23.1725 34.8653 23.1676C34.8611 23.1482 34.8554 23.1292 34.8482 23.1107L34.8457 23.1044L34.8454 23.1038L33.5368 19.8322C33.4539 19.623 33.3099 19.4436 33.1236 19.3175C32.9373 19.1913 32.7173 19.1243 32.4923 19.125H28.875V18C28.875 17.9005 28.8355 17.8052 28.7652 17.7348C28.6948 17.6645 28.5995 17.625 28.5 17.625H14.25C13.9517 17.6253 13.6658 17.744 13.4549 17.9549C13.244 18.1658 13.1253 18.4517 13.125 18.75V29.25C13.1253 29.5483 13.244 29.8342 13.4549 30.0451C13.6658 30.256 13.9517 30.3747 14.25 30.375H15.7772C15.8673 30.9997 16.1795 31.5711 16.6566 31.9843C17.1338 32.3975 17.7438 32.625 18.375 32.625C19.0062 32.625 19.6162 32.3975 20.0934 31.9843C20.5705 31.5711 20.8827 30.9997 20.9728 30.375H27.0272C27.1173 30.9997 27.4295 31.5711 27.9066 31.9843C28.3838 32.3975 28.9938 32.625 29.625 32.625C30.2562 32.625 30.8662 32.3975 31.3434 31.9843C31.8205 31.5711 32.1327 30.9997 32.2228 30.375H33.75C34.0483 30.3747 34.3342 30.256 34.5451 30.0451C34.756 29.8342 34.8747 29.5483 34.875 29.25V23.25L34.8748 23.2483ZM32.4923 19.875C32.5673 19.8748 32.6406 19.8971 32.7027 19.9392C32.7648 19.9812 32.8128 20.041 32.8404 20.1107L33.9461 22.875H28.875V19.875H32.4923ZM14.25 18.375H28.125V25.125H13.875V18.75C13.8751 18.6506 13.9146 18.5553 13.985 18.485C14.0553 18.4146 14.1506 18.3751 14.25 18.375ZM13.875 29.25V25.875H28.125V27.8476C27.8302 28.0531 27.5807 28.3168 27.3919 28.6225C27.2031 28.9282 27.0789 29.2694 27.0272 29.625H20.9728C20.8827 29.0003 20.5705 28.4289 20.0934 28.0157C19.6162 27.6024 19.0062 27.375 18.375 27.375C17.7438 27.375 17.1338 27.6024 16.6566 28.0157C16.1795 28.4289 15.8673 29.0003 15.7772 29.625H14.25C14.1506 29.6249 14.0553 29.5854 13.985 29.515C13.9146 29.4447 13.8751 29.3494 13.875 29.25ZM18.375 31.875C18.0042 31.875 17.6416 31.765 17.3333 31.559C17.025 31.353 16.7846 31.0601 16.6427 30.7175C16.5008 30.3749 16.4637 29.9979 16.536 29.6342C16.6084 29.2705 16.787 28.9364 17.0492 28.6742C17.3114 28.412 17.6455 28.2334 18.0092 28.161C18.3729 28.0887 18.7499 28.1258 19.0925 28.2677C19.4351 28.4096 19.728 28.65 19.934 28.9583C20.14 29.2666 20.25 29.6292 20.25 30C20.2494 30.4971 20.0517 30.9737 19.7002 31.3252C19.3487 31.6767 18.8721 31.8744 18.375 31.875ZM29.625 31.875C29.2542 31.875 28.8917 31.765 28.5833 31.559C28.275 31.353 28.0346 31.0601 27.8927 30.7175C27.7508 30.3749 27.7137 29.9979 27.786 29.6342C27.8584 29.2705 28.037 28.9364 28.2992 28.6742C28.5614 28.412 28.8955 28.2334 29.2592 28.161C29.6229 28.0887 29.9999 28.1258 30.3425 28.2677C30.6851 28.4096 30.978 28.65 31.184 28.9583C31.39 29.2666 31.5 29.6292 31.5 30C31.4995 30.4971 31.3017 30.9737 30.9502 31.3252C30.5987 31.6767 30.1221 31.8744 29.625 31.875ZM34.125 29.25C34.1249 29.3494 34.0854 29.4447 34.0151 29.515C33.9447 29.5854 33.8494 29.6249 33.75 29.625H32.2228C32.1691 29.2517 32.0356 28.8944 31.8313 28.5774C31.627 28.2605 31.3568 27.9912 31.0391 27.7881C30.7214 27.585 30.3636 27.4527 29.9901 27.4004C29.6167 27.3481 29.2363 27.3768 28.875 27.4848V23.625H34.125V29.25Z" fill="white"/>
</svg>
