<svg width="48" height="48" viewBox="0 0 48 48" fill="none" xmlns="http://www.w3.org/2000/svg">
<circle cx="24" cy="24" r="24" fill="#9CC801"/>
<g clip-path="url(#clip0_354_2184)">
<path d="M26.0286 27.7553C25.7397 27.5718 25.4868 27.337 25.2822 27.0627L25.1057 24H22.3704L22.5469 24.8471C22.6276 25.2415 22.6228 25.6486 22.5328 26.041C22.4429 26.4334 22.2698 26.8019 22.0254 27.1218L22.2345 23.2941H25.7639L26.0286 27.7553Z" fill="#4CB050"/>
<path d="M26.0743 28.5829L26.0249 27.7553L25.7646 23.2941H22.2352L22.0102 27.1209L21.9475 28.185L21.5293 35.2941H26.4705L26.0743 28.5829ZM22.2802 34.5829L22.7046 27.3644L22.9014 24H25.0984L25.2749 27.0627L25.3384 28.1356L25.7205 34.5882L22.2802 34.5829Z" fill="white"/>
<path d="M32.5586 19.1471C32.5003 19.1338 32.4421 19.1224 32.3821 19.1118C32.5249 18.4622 32.4814 17.7856 32.2564 17.1597C32.0314 16.5339 31.6341 15.9844 31.1104 15.5745C30.5867 15.1645 29.9579 14.9109 29.2963 14.8429C28.6348 14.7748 27.9674 14.895 27.3712 15.1897C27.1474 14.4711 26.6996 13.8428 26.0934 13.3967C25.4872 12.9506 24.7542 12.71 24.0015 12.71C23.2488 12.71 22.5159 12.9506 21.9096 13.3967C21.3034 13.8428 20.8557 14.4711 20.6318 15.1897C20.0352 14.8937 19.367 14.7725 18.7044 14.8402C18.0418 14.9079 17.4119 15.1617 16.8875 15.5723C16.3631 15.9828 15.9655 16.5334 15.7408 17.1603C15.516 17.7873 15.4732 18.4651 15.6174 19.1153C14.7505 19.2723 13.9737 19.7477 13.4395 20.4483C12.9054 21.1489 12.6526 22.0239 12.7307 22.9014C12.8089 23.7789 13.2124 24.5955 13.862 25.1906C14.5116 25.7857 15.3602 26.1164 16.2412 26.1176H16.3118C16.4325 26.7071 16.7018 27.2559 17.0942 27.7119C17.4866 28.168 17.9891 28.5161 18.5539 28.7234C19.1187 28.9306 19.7272 28.99 20.3214 28.8959C20.9156 28.8018 21.476 28.5574 21.9492 28.1859L22.0118 27.1218C21.6838 27.5536 21.2381 27.8817 20.7283 28.0667C20.2185 28.2516 19.6662 28.2856 19.1375 28.1645C18.6089 28.0434 18.1264 27.7725 17.7479 27.384C17.3694 26.9956 17.111 26.5063 17.0036 25.9747L16.888 25.4118H16.2412C15.5363 25.4109 14.8572 25.1464 14.3375 24.6702C13.8177 24.194 13.4948 23.5406 13.4324 22.8385C13.3699 22.1364 13.5723 21.4363 13.9998 20.8758C14.4273 20.3153 15.049 19.9351 15.7427 19.8097L16.4662 19.6765L16.3074 18.9591C16.1703 18.3309 16.2505 17.6748 16.5351 17.0982C16.6994 16.7661 16.9277 16.4697 17.2068 16.2259C17.4859 15.9822 17.8103 15.7958 18.1615 15.6777C18.5127 15.5595 18.8838 15.5117 19.2535 15.5372C19.6232 15.5626 19.9842 15.6607 20.3159 15.8259L21.0589 16.1947L21.3033 15.4006C21.4822 14.8255 21.8404 14.3227 22.3254 13.9656C22.8105 13.6086 23.397 13.416 23.9993 13.416C24.6016 13.416 25.1881 13.6086 25.6732 13.9656C26.1582 14.3227 26.5164 14.8255 26.6953 15.4006L26.9398 16.1947L27.6827 15.8259C28.1596 15.5903 28.6933 15.4942 29.2224 15.5486C29.7515 15.6031 30.2545 15.8059 30.6734 16.1337C31.0923 16.4615 31.4101 16.9009 31.5901 17.4014C31.7702 17.9019 31.8053 18.4431 31.6912 18.9626L31.6745 19.0385V19.7091L32.2586 19.8115C32.3062 19.8194 32.3521 19.8291 32.3989 19.8397C33.1287 20.0055 33.7629 20.4544 34.162 21.0876C34.561 21.7208 34.6924 22.4865 34.5271 23.2165C34.446 23.5783 34.2943 23.9205 34.0806 24.2236C33.867 24.5266 33.5956 24.7845 33.282 24.9824C32.9684 25.1803 32.6188 25.3143 32.2533 25.3768C31.8878 25.4393 31.5136 25.429 31.1521 25.3465L30.4409 25.185L30.3033 25.9015C30.1803 26.5456 29.837 27.1268 29.3323 27.5454C28.8276 27.964 28.1928 28.1939 27.5371 28.1956C27.3569 28.1962 27.177 28.18 26.9998 28.1471C26.6546 28.0783 26.3254 27.9454 26.0292 27.7553L26.0786 28.5829C26.3322 28.6988 26.5988 28.7838 26.8727 28.8362C27.7915 29.0115 28.7423 28.8149 29.5163 28.2896C30.2902 27.7643 30.824 26.9533 31.0003 26.0347C31.9137 26.2413 32.8717 26.0767 33.6637 25.577C34.4557 25.0772 35.0167 24.2834 35.2233 23.37C35.4299 22.4566 35.2653 21.4986 34.7655 20.7067C34.2658 19.9147 33.4719 19.3537 32.5586 19.1471Z" fill="white"/>
</g>
<defs>
<clipPath id="clip0_354_2184">
<rect width="24" height="24" fill="white" transform="translate(12 12)"/>
</clipPath>
</defs>
</svg>
