<svg width="48" height="48" viewBox="0 0 48 48" fill="none" xmlns="http://www.w3.org/2000/svg">
<circle cx="24" cy="24" r="24" fill="#9CC801"/>
<path d="M24.0329 33.1845L35.2171 19.4725L31.7368 14.6003H16.329L12.848 19.4725L24.0329 33.1845ZM35.9793 19.724L24.3259 34.0108C24.3095 34.032 24.2907 34.0508 24.2687 34.068C24.1081 34.198 23.8716 34.1738 23.7416 34.0132L12.0858 19.724C11.9824 19.5963 11.9714 19.4106 12.0709 19.2704L15.8144 14.03C15.881 13.9212 16 13.8475 16.1371 13.8475H31.9296V13.8491C32.047 13.8499 32.1622 13.9039 32.2351 14.0066L35.9895 19.2634L35.9793 19.724Z" fill="white"/>
<path d="M26.6637 19.1114C26.8713 19.1114 27.0396 19.2799 27.0396 19.4874C27.0396 19.695 26.8713 19.8634 26.6637 19.8634H12.376C12.1684 19.8634 12 19.695 12 19.4874C12 19.2799 12.1684 19.1114 12.376 19.1114H26.6637Z" fill="white"/>
<path d="M35.6243 19.1114C35.8319 19.1114 36.0003 19.2799 36.0003 19.4874C36.0003 19.695 35.8319 19.8634 35.6243 19.8634H34.1846C33.977 19.8634 33.8086 19.695 33.8086 19.4874C33.8086 19.2799 33.977 19.1114 34.1846 19.1114H35.6243Z" fill="white"/>
<path d="M15.7885 14.3629C15.7117 14.171 15.8057 13.9525 15.9976 13.8757C16.1896 13.7989 16.4081 13.8929 16.4849 14.0841L24.3806 33.6372C24.4574 33.8291 24.3634 34.0477 24.1723 34.1244C23.9804 34.2012 23.7618 34.108 23.6843 33.9161L15.7885 14.3629Z" fill="white"/>
<path d="M28.0868 22.7327C28.1636 22.5408 28.3829 22.4468 28.574 22.5235C28.7659 22.6003 28.8599 22.8196 28.7823 23.0115L24.3794 33.9169C24.3026 34.1088 24.0833 34.2028 23.8922 34.1252C23.7003 34.0484 23.6063 33.8291 23.683 33.638L28.0868 22.7327Z" fill="white"/>
<path d="M31.5788 14.0841C31.6556 13.8922 31.8749 13.799 32.0668 13.8758C32.2587 13.9526 32.3527 14.1719 32.2751 14.3638L31.6681 15.8677C31.5913 16.0597 31.372 16.1537 31.1809 16.0761C30.9889 15.9993 30.8949 15.78 30.9726 15.5889L31.5788 14.0841Z" fill="white"/>
<path d="M18.6482 19.7616C18.4962 19.9025 18.2589 19.8939 18.1179 19.7428C17.9769 19.5916 17.9855 19.3535 18.1375 19.2132L23.7781 13.9494C23.9293 13.8084 24.1674 13.817 24.3076 13.9682C24.4487 14.1193 24.44 14.3575 24.2888 14.4976L18.6482 19.7616Z" fill="white"/>
<path d="M28.0465 17.457C28.1976 17.598 28.2063 17.8354 28.0653 17.9866C27.9242 18.1377 27.6869 18.1464 27.5358 18.0053L23.7774 14.4977C23.6262 14.3567 23.6176 14.1193 23.7586 13.9681C23.8996 13.817 24.1369 13.8083 24.2882 13.9493L28.0465 17.457Z" fill="white"/>
<path d="M30.7597 17.063L31.46 18.4526L32.8496 19.1529C33.0345 19.2453 33.1081 19.4717 33.0156 19.6565C32.978 19.731 32.9185 19.7874 32.8496 19.8226L31.46 20.5229L30.7597 21.9125C30.6673 22.0974 30.4409 22.1718 30.256 22.0786C30.1816 22.041 30.1252 21.9815 30.09 21.9125L29.3905 20.5229L28.0008 19.8226C27.8159 19.7294 27.7423 19.5038 27.8348 19.3189C27.8724 19.2445 27.932 19.1882 28.0008 19.1529L29.3905 18.4526L30.09 17.063C30.1832 16.8782 30.4088 16.8045 30.5937 16.897C30.6681 16.9338 30.7245 16.9933 30.7597 17.063ZM30.8459 18.9007L30.4252 18.0656L30.0045 18.9007C29.9693 18.9696 29.9129 19.0291 29.8385 19.0667L29.0027 19.4874L29.8385 19.9088C29.9074 19.9441 29.9669 20.0005 30.0045 20.0749L30.4252 20.9107L30.8459 20.0749C30.8811 20.0059 30.9375 19.9464 31.0119 19.9088L31.8477 19.4874L31.0119 19.0667C30.943 19.0315 30.8835 18.9751 30.8459 18.9007Z" fill="white"/>
</svg>
