<svg width="48" height="48" viewBox="0 0 48 48" fill="none" xmlns="http://www.w3.org/2000/svg">
<circle cx="24" cy="24" r="24" fill="#9CC801"/>
<g clip-path="url(#clip0_354_2153)">
<path d="M31.0242 12.1705C31.1367 11.9971 31.3687 11.9479 31.5414 12.0604C31.7149 12.1729 31.7641 12.4042 31.6516 12.5776L16.4866 35.8294C16.3741 36.0029 16.1428 36.0521 15.9694 35.9396C15.7959 35.8271 15.7467 35.595 15.8592 35.4224L31.0242 12.1705Z" fill="white"/>
<path d="M15.0177 17.2508C15.0177 18.2869 15.4372 19.2245 16.1146 19.9019L16.1162 19.9035C16.7936 20.5809 17.7312 21.0004 18.7673 21.0004C19.8033 21.0004 20.7409 20.5801 21.4184 19.9027L21.4379 19.8847C22.1044 19.2088 22.517 18.2783 22.517 17.2508C22.517 16.214 22.0974 15.2763 21.4199 14.5997V14.5989L21.4192 14.5997C20.741 13.9215 19.8034 13.5011 18.7673 13.5011C17.7313 13.5011 16.7936 13.9207 16.1162 14.5981L16.1147 14.5997C15.4372 15.2771 15.0177 16.2147 15.0177 17.2508ZM15.5872 20.4324L15.5865 20.4316L15.5857 20.4309C14.7715 19.6159 14.2676 18.4907 14.2676 17.2508C14.2676 16.0108 14.7715 14.8864 15.5857 14.0715V14.0708L15.5865 14.07L15.5872 14.0692C16.4022 13.2551 17.5265 12.7511 18.7673 12.7511C20.0096 12.7511 21.1355 13.2551 21.9489 14.0684V14.07C22.7638 14.8849 23.2678 16.0101 23.2678 17.2508C23.2678 18.4799 22.7732 19.5964 21.9708 20.409L21.9497 20.4324C21.1363 21.2458 20.0104 21.7498 18.7681 21.7498C17.5273 21.7505 16.403 21.2466 15.5872 20.4324Z" fill="white"/>
<path d="M18.7679 14.6263C18.9749 14.6263 19.1429 14.7942 19.1429 15.0013C19.1429 15.2083 18.9742 15.3763 18.7679 15.3763C18.2491 15.3763 17.7803 15.5857 17.442 15.9233L17.4412 15.9248L17.442 15.9256C17.1036 16.2639 16.8927 16.7335 16.8927 17.2508C16.8927 17.4578 16.7247 17.6258 16.5176 17.6258C16.3106 17.6258 16.1426 17.4578 16.1426 17.2508C16.1426 16.5257 16.4371 15.8694 16.9114 15.3951L16.9122 15.3958C17.388 14.9201 18.0444 14.6263 18.7679 14.6263Z" fill="white"/>
<path d="M25.4844 30.7539C25.4844 31.7899 25.904 32.7283 26.5814 33.405L26.5822 33.4057L26.5829 33.405C27.2611 34.0832 28.1988 34.5035 29.234 34.5035C30.2701 34.5035 31.2084 34.084 31.8851 33.4066L31.8867 33.405C32.5633 32.7276 32.9829 31.79 32.9829 30.7539C32.9829 29.7178 32.5633 28.7794 31.8867 28.1028L31.8859 28.102L31.8852 28.1028C31.207 27.4246 30.2694 27.005 29.2341 27.005C28.1972 27.005 27.2596 27.4245 26.583 28.1012L26.5814 28.1028C25.904 28.7802 25.4844 29.7186 25.4844 30.7539ZM26.0533 33.9355C25.2383 33.1205 24.7344 31.9954 24.7344 30.7547C24.7344 29.5147 25.2383 28.3903 26.0517 27.5754L26.0524 27.5747L26.0532 27.5739L26.054 27.5731C26.8689 26.7582 27.9932 26.2551 29.234 26.2551C30.4764 26.2551 31.6023 26.759 32.4156 27.5731L32.4148 27.5739C33.2298 28.3888 33.7337 29.5139 33.7337 30.7547C33.7337 31.9955 33.2298 33.1198 32.4157 33.9348L32.4149 33.9356L32.4142 33.9363L32.4134 33.9371C31.5985 34.7513 30.4741 35.2552 29.2334 35.2552C27.991 35.2552 26.8651 34.7504 26.0509 33.9371L26.0533 33.9355Z" fill="white"/>
<path d="M29.2347 28.1294C29.4418 28.1294 29.6098 28.2973 29.6098 28.5044C29.6098 28.7115 29.4418 28.8795 29.2347 28.8795C28.7159 28.8795 28.2471 29.0888 27.9087 29.4272L27.908 29.4279L27.9087 29.4287C27.5697 29.7678 27.3595 30.2366 27.3595 30.7538C27.3595 30.9609 27.1907 31.1289 26.9844 31.1289C26.7774 31.1289 26.6094 30.9609 26.6094 30.7538C26.6094 30.0288 26.9039 29.3724 27.3782 28.8982L27.379 28.8989C27.8549 28.4231 28.5112 28.1294 29.2347 28.1294Z" fill="white"/>
</g>
<defs>
<clipPath id="clip0_354_2153">
<rect width="24" height="24" fill="white" transform="translate(12 12)"/>
</clipPath>
</defs>
</svg>
