<svg width="48" height="48" viewBox="0 0 48 48" fill="none" xmlns="http://www.w3.org/2000/svg">
<circle cx="24" cy="24" r="24" fill="#9CC801"/>
<path d="M33.1798 18V15.0837C33.1798 14.8924 33.0125 14.7251 32.8213 14.7251H24.0723V12.9801C24.0723 12.7889 23.905 12.6215 23.7137 12.6215C23.5225 12.6215 23.3551 12.7889 23.3551 12.9801V14.7251H14.6301C14.4388 14.7251 14.2715 14.8924 14.2715 15.0837V18C14.2715 18.0956 14.2715 18.3108 14.2715 18.4781V27.0598C14.2715 27.251 14.4388 27.4183 14.6301 27.4183H20.1759L18.3352 35.1395C18.2874 35.3307 18.4069 35.5219 18.5982 35.5697C18.6221 35.5697 18.646 35.5697 18.6938 35.5697C18.8611 35.5697 19.0046 35.4502 19.0524 35.3068L20.9408 27.4183H23.403V33.2032C23.403 33.3944 23.5703 33.5618 23.7615 33.5618C23.9528 33.5618 24.1201 33.3944 24.1201 33.2032V27.4183H26.5105L28.4707 35.3068C28.5185 35.4741 28.6619 35.5697 28.8293 35.5697C28.8532 35.5697 28.8771 35.5697 28.9249 35.5697C29.1161 35.5219 29.2356 35.3307 29.1878 35.1395L27.2755 27.4183H32.8691C33.0603 27.4183 33.2277 27.251 33.2277 27.0598C33.2277 27.0598 33.1798 18.1195 33.1798 18ZM32.4627 15.4422V17.8805H14.9886V15.4422H32.4627ZM14.9886 26.7012V18.5976H32.4627V26.7012H14.9886Z" fill="white"/>
</svg>
