<svg width="48" height="48" viewBox="0 0 48 48" fill="none" xmlns="http://www.w3.org/2000/svg">
<circle cx="24" cy="24" r="24" fill="#9CC801"/>
<path d="M16.8753 16.6135L19.6482 17.8327C19.0984 18.6454 18.8116 19.5777 18.8116 20.5578C18.8116 23.2351 20.9868 25.4343 23.688 25.4343C26.3892 25.4343 28.5645 23.259 28.5645 20.5578C28.5645 19.6016 28.2777 18.6454 27.7518 17.8566L30.19 16.7092V21.3466L29.449 22.9243C29.4012 23.0438 29.4012 23.1633 29.4729 23.259C29.5446 23.3546 29.6641 23.4263 29.7837 23.4263H31.194C31.3135 23.4263 31.4331 23.3785 31.4809 23.259C31.5526 23.1633 31.5526 23.0438 31.5048 22.9243L30.8594 21.3466V16.3984C30.8594 16.2072 30.8355 16.0637 30.5008 15.9203C30.4291 15.8964 23.8554 12.9801 23.8554 12.9801C23.7598 12.9323 23.6641 12.9323 23.5685 12.9801L16.8753 15.9442C16.7558 15.992 16.6602 16.1355 16.6602 16.2789C16.6602 16.4223 16.7319 16.5418 16.8753 16.6135ZM27.8235 20.5578C27.8235 22.8526 25.959 24.7171 23.6641 24.7171C21.3693 24.7171 19.5048 22.8526 19.5048 20.5578C19.5048 19.6733 19.7916 18.8367 20.2936 18.1195L23.5446 19.5777C23.5924 19.6016 23.6402 19.6016 23.688 19.6016C23.7359 19.6016 23.7837 19.6016 23.8315 19.5777L27.0347 18.1434C27.5606 18.8606 27.8235 19.6972 27.8235 20.5578ZM30.3335 22.7092L30.5008 22.3506L30.6442 22.7092H30.3335ZM23.7119 13.6972L29.5207 16.2789L23.7119 18.8606L17.9032 16.2789L23.7119 13.6972Z" fill="white"/>
<path d="M23.8079 26.2948C19.1465 26.2948 15.3457 30.0956 15.3457 34.757C15.3457 34.9482 15.513 35.1155 15.7043 35.1155H31.9114C32.1027 35.1155 32.27 34.9482 32.27 34.757C32.27 30.0956 28.4692 26.2948 23.8079 26.2948ZM16.0867 34.3984C16.278 30.2869 19.6724 27.012 23.8318 27.012C27.9911 27.012 31.3616 30.3108 31.5529 34.3984H16.0867Z" fill="white"/>
</svg>
