<svg width="48" height="48" viewBox="0 0 48 48" fill="none" xmlns="http://www.w3.org/2000/svg">
<circle cx="24" cy="24" r="24" fill="#9CC801"/>
<path d="M28.5729 14.7364C26.9495 13.3986 24.8124 12.8662 22.7107 13.2754C19.8813 13.8262 17.6088 16.2147 17.1846 19.0839C16.8385 21.4252 17.6703 23.7635 19.4097 25.339C20.1934 26.0489 20.6662 27.0713 20.7413 28.2183C20.7427 28.2391 20.7468 28.2592 20.7513 28.279V31.8757C20.7513 32.0737 20.9118 32.2345 21.1101 32.2345H21.4676C21.6132 33.2769 22.3795 34.0753 23.3024 34.0753H24.9311C25.854 34.0753 26.62 33.2769 26.7656 32.2345H27.1232C27.3212 32.2345 27.4819 32.0737 27.4819 31.8757V28.2216C27.4819 28.2209 27.4821 28.2202 27.4821 28.2192C27.4821 27.1521 27.9667 26.1216 28.8468 25.3175C30.2965 23.9931 31.1278 22.1092 31.1278 20.1493C31.1281 18.0476 30.1968 16.0745 28.5729 14.7364ZM22.8482 21.5448H22.297C21.993 21.5448 21.7457 21.2975 21.7457 20.9935C21.7457 20.6896 21.993 20.4423 22.297 20.4423C22.601 20.4423 22.8482 20.6896 22.8482 20.9935V21.5448ZM25.3854 20.9935C25.3854 20.6896 25.6327 20.4423 25.9369 20.4423C26.2409 20.4423 26.4882 20.6896 26.4882 20.9935C26.4882 21.2975 26.2409 21.5448 25.9369 21.5448H25.3862L25.3854 20.9935ZM25.1695 28.5524H26.7647V31.517H26.4363C26.4356 31.517 26.4349 31.5167 26.4339 31.5167C26.433 31.5167 26.4325 31.517 26.4315 31.517H21.8019C21.8012 31.517 21.8005 31.5167 21.7995 31.5167C21.7986 31.5167 21.7981 31.517 21.7972 31.517H21.469V28.5524H24.9047H25.1695ZM23.5657 27.8349V22.2623H24.6699L24.678 27.8349H23.5657ZM24.9311 33.3578H23.3024C22.7672 33.3578 22.3178 32.8785 22.1934 32.2345H26.0398C25.9157 32.8785 25.4663 33.3578 24.9311 33.3578ZM28.3629 24.788C27.4369 25.6339 26.8888 26.7044 26.7862 27.8349H25.3953L25.3874 22.2623H25.9369C26.6365 22.2623 27.2057 21.6931 27.2057 20.9935C27.2057 20.294 26.6365 19.7248 25.9369 19.7248C25.2372 19.7248 24.668 20.294 24.668 20.994L24.6687 21.5448H23.5657V20.9935C23.5657 20.294 22.9965 19.7248 22.297 19.7248C21.5975 19.7248 21.0283 20.294 21.0283 20.9935C21.0283 21.6931 21.5975 22.2623 22.297 22.2623H22.8482V27.8349H21.42C21.2679 26.6379 20.7351 25.5713 19.8911 24.8072C18.3299 23.3928 17.5832 21.2925 17.8941 19.1886C18.2746 16.6153 20.3115 14.4734 22.8475 13.9795C24.7388 13.6117 26.6592 14.089 28.1161 15.2901C29.574 16.4914 30.4101 18.2626 30.4101 20.1496C30.4106 21.9083 29.6642 23.5992 28.3629 24.788Z" fill="white"/>
</svg>
