<svg width="48" height="48" viewBox="0 0 48 48" fill="none" xmlns="http://www.w3.org/2000/svg">
<circle cx="24" cy="24" r="24" fill="#9CC801"/>
<g clip-path="url(#clip0_354_2192)">
<path d="M33.002 34.1294C33.002 34.3364 32.8341 34.5044 32.627 34.5044C32.4207 34.5044 32.252 34.3364 32.252 34.1294V12.3751C32.252 12.168 32.42 12 32.627 12C32.8341 12 33.002 12.168 33.002 12.3751V34.1294Z" fill="white"/>
<path d="M12.7521 35.6249C12.7521 35.8313 12.5841 36 12.377 36C12.1707 36 12.002 35.832 12.002 35.6249V12.3766C12.002 12.1696 12.1699 12.0016 12.377 12.0016C12.5841 12.0016 12.7521 12.1696 12.7521 12.3766V35.6249Z" fill="white"/>
<path d="M12.377 35.9984C12.1707 35.9984 12.002 35.8304 12.002 35.6234C12.002 35.4164 12.17 35.2483 12.377 35.2483H35.6246C35.8316 35.2483 35.9996 35.4164 35.9996 35.6234C35.9996 35.8297 35.8316 35.9984 35.6246 35.9984H12.377Z" fill="white"/>
<path d="M36.0001 35.6242C36.0001 35.8305 35.8321 35.9992 35.625 35.9992C35.418 35.9992 35.25 35.8312 35.25 35.6242V14.6263C35.25 14.4192 35.418 14.2512 35.625 14.2512C35.8321 14.2512 36.0001 14.4193 36.0001 14.6263V35.6242Z" fill="white"/>
<path d="M12.377 12.7517C12.17 12.7517 12.002 12.5837 12.002 12.3766C12.002 12.1696 12.17 12.0016 12.377 12.0016H32.6278C32.8349 12.0016 33.0029 12.1696 33.0029 12.3766C33.0029 12.5829 32.8349 12.7517 32.6278 12.7517H12.377Z" fill="white"/>
<path d="M22.127 15.7507C21.9199 15.7507 21.752 15.5827 21.752 15.3757C21.752 15.1686 21.9199 15.0006 22.127 15.0006H29.6277C29.8347 15.0006 30.0027 15.1686 30.0027 15.3757C30.0027 15.5827 29.8347 15.7507 29.6277 15.7507H22.127Z" fill="white"/>
<path d="M15.377 15.0006H15.3864H19.1254C19.3325 15.0006 19.5005 15.1686 19.5005 15.3756V15.385V18.3762C19.5005 18.5833 19.3324 18.7513 19.1254 18.7513H19.1168H15.377C15.1699 18.7513 15.002 18.5833 15.002 18.3762V18.366V15.3756C15.0019 15.1694 15.1699 15.0006 15.377 15.0006ZM18.7511 15.7507H15.7521V18.0012H18.7511L18.7511 15.7507Z" fill="white"/>
<path d="M34.5 34.1285C34.5 34.3356 34.332 34.5036 34.125 34.5036C33.9179 34.5036 33.75 34.3356 33.75 34.1285V13.8761C33.75 13.6698 33.9179 13.5011 34.125 13.5011C34.332 13.5011 34.5 13.6691 34.5 13.8761V34.1285Z" fill="white"/>
<path d="M15.377 21.7519C15.1699 21.7519 15.002 21.5839 15.002 21.3768C15.002 21.1698 15.1699 21.0018 15.377 21.0018H22.8769C23.084 21.0018 23.252 21.1698 23.252 21.3768C23.252 21.5839 23.084 21.7519 22.8769 21.7519H15.377Z" fill="white"/>
<path d="M15.377 24.7517C15.1699 24.7517 15.002 24.5837 15.002 24.3766C15.002 24.1696 15.1699 24.0016 15.377 24.0016H22.8769C23.084 24.0016 23.252 24.1696 23.252 24.3766C23.252 24.5837 23.084 24.7517 22.8769 24.7517H15.377Z" fill="white"/>
<path d="M15.377 30.7544C15.1699 30.7544 15.002 30.5864 15.002 30.3793C15.002 30.1724 15.17 30.0044 15.377 30.0044H29.6298C29.8369 30.0044 30.0049 30.1723 30.0049 30.3793C30.0049 30.5864 29.8369 30.7544 29.6298 30.7544H15.377Z" fill="white"/>
<path d="M25.877 21.0017H25.8863H29.6277C29.8348 21.0017 30.0028 21.1698 30.0028 21.3768V21.3862V27.3764C30.0028 27.5827 29.8348 27.7515 29.6277 27.7515H29.6184H25.877C25.6707 27.7515 25.502 27.5835 25.502 27.3764V27.3663V21.3768C25.502 21.1706 25.6707 21.0017 25.877 21.0017ZM29.2527 21.7519H26.2521V27.0014H29.2527V21.7519Z" fill="white"/>
<path d="M22.127 18.7513C21.9199 18.7513 21.752 18.5833 21.752 18.3762C21.752 18.1699 21.9199 18.0012 22.127 18.0012H29.6277C29.8347 18.0012 30.0027 18.1692 30.0027 18.3762C30.0027 18.5833 29.8347 18.7513 29.6277 18.7513H22.127Z" fill="white"/>
<path d="M15.377 27.7523C15.1699 27.7523 15.002 27.5843 15.002 27.3773C15.002 27.1702 15.1699 27.0022 15.377 27.0022H22.8769C23.084 27.0022 23.252 27.1702 23.252 27.3773C23.252 27.5836 23.084 27.7523 22.8769 27.7523H15.377Z" fill="white"/>
</g>
<defs>
<clipPath id="clip0_354_2192">
<rect width="24" height="24" fill="white" transform="translate(12 12)"/>
</clipPath>
</defs>
</svg>
