<svg width="24" height="25" viewBox="0 0 24 25" fill="none" xmlns="http://www.w3.org/2000/svg">
<path d="M12 2C6.20156 2 1.5 6.70156 1.5 12.5C1.5 18.2984 6.20156 23 12 23C17.7984 23 22.5 18.2984 22.5 12.5C22.5 6.70156 17.7984 2 12 2ZM12.75 17.5625C12.75 17.6656 12.6656 17.75 12.5625 17.75H11.4375C11.3344 17.75 11.25 17.6656 11.25 17.5625V11.1875C11.25 11.0844 11.3344 11 11.4375 11H12.5625C12.6656 11 12.75 11.0844 12.75 11.1875V17.5625ZM12 9.5C11.7056 9.49399 11.4253 9.37282 11.2192 9.1625C11.0132 8.95218 10.8977 8.66945 10.8977 8.375C10.8977 8.08055 11.0132 7.79782 11.2192 7.5875C11.4253 7.37718 11.7056 7.25601 12 7.25C12.2944 7.25601 12.5747 7.37718 12.7808 7.5875C12.9868 7.79782 13.1023 8.08055 13.1023 8.375C13.1023 8.66945 12.9868 8.95218 12.7808 9.1625C12.5747 9.37282 12.2944 9.49399 12 9.5Z" fill="#AACC3A"/>
</svg>
