<svg width="61" height="60" viewBox="0 0 61 60" fill="none" xmlns="http://www.w3.org/2000/svg">
<path d="M11.2924 42.5298C11.0631 42.085 10.5852 41.8409 10.1045 41.9232C7.76455 42.333 1.0416 42.5502 0.518844 31.7056C-0.114582 18.5659 15.2793 -3.88548 37.8835 0.577686C56.0371 4.16385 42.4843 22.0454 53.6061 26.5538C60.1152 29.1932 65.999 42.7345 51.5432 54.493C43.7196 60.8498 23.6575 66.4647 11.2924 42.5298Z" fill="#F0F5D8"/>
<path d="M8.34663 10.9473C8.05124 10.9473 7.75586 11.1688 7.75586 11.538V20.3996C7.75586 20.695 7.9774 20.9903 8.34663 20.9903C8.71586 20.9903 8.9374 20.7688 8.9374 20.3996V11.538C8.9374 11.2427 8.64201 10.9473 8.34663 10.9473Z" fill="#0B0B09"/>
<path d="M8.34663 6.5166C8.05124 6.5166 7.75586 6.73814 7.75586 7.10737V8.58429C7.75586 8.87968 7.9774 9.17506 8.34663 9.17506C8.71586 9.17506 8.9374 8.95352 8.9374 8.58429V7.10737C8.9374 6.81199 8.64201 6.5166 8.34663 6.5166Z" fill="#0B0B09"/>
<path d="M52.6545 7.25488H47.4853C47.1899 7.25488 46.8945 7.47642 46.8945 7.84565C46.8945 8.21488 47.1161 8.43642 47.4853 8.43642H52.6545C52.9499 8.43642 53.2453 8.21488 53.2453 7.84565C53.2453 7.47642 52.9499 7.25488 52.6545 7.25488Z" fill="#0B0B09"/>
<path d="M43.7929 8.36318H44.5314C44.8268 8.36318 45.1221 8.14164 45.1221 7.77241C45.1221 7.40318 44.9006 7.18164 44.5314 7.18164H43.7929C43.4975 7.18164 43.2021 7.40318 43.2021 7.77241C43.2021 8.14164 43.4975 8.36318 43.7929 8.36318Z" fill="#0B0B09"/>
<path d="M47.4853 50.8984H46.5253V49.9384C46.5253 49.643 46.3037 49.3477 45.9345 49.3477C45.5653 49.3477 45.3437 49.5692 45.3437 49.9384V50.8984H44.3837C44.0884 50.8984 43.793 51.12 43.793 51.4892C43.793 51.8584 44.0145 52.08 44.3837 52.08H45.3437V53.04C45.3437 53.3353 45.5653 53.6307 45.9345 53.6307C46.3037 53.6307 46.5253 53.4092 46.5253 53.04V52.08H47.4853C47.7807 52.08 48.076 51.8584 48.076 51.4892C48.076 51.12 47.7807 50.8984 47.4853 50.8984Z" fill="#0B0B09"/>
<path d="M17.9462 43.5137H16.9862V42.5537C16.9862 42.2583 16.7647 41.9629 16.3954 41.9629C16.0262 41.9629 15.8047 42.1844 15.8047 42.5537V43.5137H14.8447C14.5493 43.5137 14.2539 43.7352 14.2539 44.1044C14.2539 44.4737 14.4754 44.6952 14.8447 44.6952H15.8047V45.6552C15.8047 45.9506 16.0262 46.246 16.3954 46.246C16.7647 46.246 16.9862 46.0244 16.9862 45.6552V44.6952H17.9462C18.2416 44.6952 18.537 44.4737 18.537 44.1044C18.537 43.7352 18.2416 43.5137 17.9462 43.5137Z" fill="#0B0B09"/>
<path d="M29.7625 6.5166C19.7194 6.5166 11.5225 14.7874 11.5225 24.8304C11.5225 33.9874 18.2425 41.5935 27.0302 42.9228V45.7289H26.0702C25.7748 45.7289 25.4794 45.9504 25.4794 46.3197V52.9658C25.4794 53.2612 25.7009 53.5566 26.0702 53.5566C26.4394 53.5566 26.6609 53.3351 26.6609 52.9658V46.8366H32.9378V52.9658C32.9378 53.2612 33.1594 53.5566 33.5286 53.5566C33.8978 53.5566 34.1194 53.3351 34.1194 52.9658V46.3197C34.1194 46.0243 33.8978 45.7289 33.5286 45.7289H32.5686V42.9228C41.3563 41.5935 48.0763 33.9874 48.0763 24.8304C48.0763 14.7874 39.8055 6.5166 29.7625 6.5166ZM31.4609 45.6551H28.1378V42.9966C28.6548 43.0704 29.2455 43.0704 29.8363 43.0704C30.4271 43.0704 30.944 43.0704 31.5348 42.9966V45.6551H31.4609ZM29.7625 41.9628C20.3102 41.9628 12.5563 34.2828 12.5563 24.7566C12.5563 15.2304 20.3102 7.62429 29.7625 7.62429C39.2148 7.62429 46.9686 15.3043 46.9686 24.8304C46.9686 34.3566 39.2148 41.9628 29.7625 41.9628Z" fill="#0B0B09"/>
<path d="M40.1005 32.2886C40.0267 32.4363 39.9528 32.584 40.0267 32.7317C40.0267 32.8793 40.1005 33.027 40.2482 33.1009C40.3221 33.1747 40.4698 33.2486 40.5436 33.2486C40.6913 33.2486 40.9128 33.1747 40.9867 33.027C41.1344 32.8055 41.1344 32.4363 40.839 32.2886C40.6175 31.9932 40.2482 32.067 40.1005 32.2886Z" fill="#0B0B09"/>
<path d="M39.5835 15.0088C36.9989 12.4242 33.5281 10.9473 29.762 10.9473C26.0697 10.9473 22.5989 12.4242 19.9404 15.0088C17.3558 17.5934 15.8789 21.0642 15.8789 24.8303C15.8789 28.5226 17.3558 31.9934 19.9404 34.6519C22.5251 37.2365 25.9958 38.7134 29.762 38.7134C33.4543 38.7134 36.9251 37.3103 39.5835 34.6519C39.8051 34.4303 39.8051 34.0611 39.5835 33.8396C39.362 33.618 38.9928 33.618 38.7712 33.8396C36.3343 36.2765 33.1589 37.5319 29.762 37.5319C26.3651 37.5319 23.1897 36.2026 20.7528 33.8396C18.3158 31.4026 16.9866 28.2273 16.9866 24.8303C16.9866 21.4334 18.3158 18.1842 20.7528 15.8211C23.1897 13.3842 26.3651 12.055 29.762 12.055C33.1589 12.055 36.4081 13.3842 38.7712 15.7473C39.2881 16.2642 39.7312 16.7811 40.1743 17.3719C41.7251 19.5134 42.5374 22.098 42.5374 24.7565C42.5374 26.7503 42.0943 28.7442 41.1343 30.5165C41.0604 30.6642 41.0604 30.8119 41.1343 30.9596C41.2081 31.1073 41.282 31.1811 41.4297 31.255C41.7251 31.4026 42.0204 31.255 42.1681 31.0334C43.1281 29.1134 43.6451 26.898 43.6451 24.7565C43.6451 21.8765 42.7589 19.0703 41.1343 16.7811C40.6174 16.1903 40.1004 15.5996 39.5835 15.0088Z" fill="#0B0B09"/>
<path d="M29.7618 19.8828C27.0295 19.8828 24.7402 22.0982 24.7402 24.9044C24.7402 27.7105 26.9556 29.9259 29.7618 29.9259C32.5679 29.9259 34.7833 27.7105 34.7833 24.9044C34.7833 22.0982 32.4941 19.8828 29.7618 19.8828ZM29.7618 28.7444C27.6202 28.7444 25.8479 26.972 25.8479 24.8305C25.8479 22.689 27.6202 20.9167 29.7618 20.9167C31.9033 20.9167 33.6756 22.689 33.6756 24.8305C33.6756 26.972 31.9033 28.7444 29.7618 28.7444Z" fill="#0B0B09"/>
<path d="M39.5094 22.8366L38.0325 22.3196C37.8848 21.7289 37.6632 21.212 37.3678 20.695L38.0325 19.292C38.1063 19.0704 38.1063 18.8489 37.9586 18.6273L35.8909 16.5596C35.7432 16.412 35.4478 16.3381 35.2263 16.4858L33.8232 17.1504C33.3063 16.855 32.7894 16.6335 32.1986 16.4858L31.6817 15.0089C31.6078 14.7873 31.3863 14.6396 31.1648 14.6396H28.2109C27.9894 14.6396 27.7678 14.7873 27.694 15.0089L27.1771 16.4858C26.5863 16.6335 26.0694 16.855 25.5525 17.1504L24.1494 16.4858C23.9278 16.412 23.7063 16.412 23.4848 16.5596L21.4171 18.6273C21.2694 18.775 21.1955 19.0704 21.3432 19.292L22.0078 20.695C21.7125 21.212 21.4909 21.7289 21.3432 22.3196L19.8663 22.8366C19.6448 22.9104 19.4971 23.132 19.4971 23.3535V26.3073C19.4971 26.5289 19.6448 26.7504 19.8663 26.8243L21.3432 27.3412C21.4909 27.932 21.7125 28.4489 22.0078 28.9658L21.3432 30.3689C21.2694 30.5904 21.2694 30.812 21.4171 31.0335L23.4848 33.1012C23.6325 33.2489 23.9278 33.3227 24.1494 33.175L25.5525 32.5104C26.0694 32.8058 26.5863 33.0273 27.1771 33.175L27.694 34.652C27.7678 34.8735 27.9894 35.0212 28.2109 35.0212H31.1648C31.3863 35.0212 31.6078 34.8735 31.6817 34.652L32.1986 33.175C32.7894 33.0273 33.3063 32.8058 33.8232 32.5104L35.2263 33.175C35.4478 33.2489 35.6694 33.2489 35.8909 33.1012L37.9586 31.0335C38.1063 30.8858 38.1801 30.5904 38.0325 30.3689L37.3678 28.9658C37.6632 28.4489 37.8848 27.932 38.0325 27.3412L39.5094 26.8243C39.7309 26.7504 39.8786 26.5289 39.8786 26.3073V23.3535C39.9525 23.132 39.7309 22.9104 39.5094 22.8366ZM38.8448 25.9381L37.4417 26.3812C37.294 26.455 37.1463 26.6027 37.0725 26.7504C36.9248 27.415 36.6294 28.0796 36.2601 28.6704C36.1863 28.8181 36.1863 29.0396 36.2601 29.1873L36.9248 30.5166L35.374 32.0673L34.0448 31.4027C33.8971 31.3289 33.6755 31.3289 33.5278 31.4027C32.9371 31.772 32.2725 31.9935 31.6078 32.215C31.4601 32.2889 31.3125 32.3627 31.2386 32.5843L30.8694 33.8396H28.654L28.2109 32.4366C28.1371 32.2889 27.9894 32.1412 27.8417 32.0673C27.1771 31.9196 26.5125 31.6243 25.9217 31.255C25.774 31.1812 25.5525 31.1812 25.4048 31.255L24.0755 31.9196L22.5248 30.3689L23.1894 29.0396C23.2632 28.892 23.2632 28.6704 23.1894 28.5227C22.8201 27.932 22.5986 27.2673 22.3771 26.6027C22.3032 26.455 22.2294 26.3073 22.0078 26.2335L20.7525 25.9381V23.7227L22.1555 23.2796C22.3032 23.2058 22.4509 23.0581 22.5248 22.9104C22.6725 22.2458 22.9678 21.5812 23.3371 20.9904C23.4109 20.8427 23.4109 20.6212 23.3371 20.4735L22.6725 19.1443L24.2232 17.5935L25.5525 18.2581C25.7001 18.332 25.9217 18.332 26.0694 18.2581C26.6601 17.8889 27.3248 17.6673 27.9894 17.4458C28.1371 17.372 28.2848 17.2981 28.3586 17.0766L28.8017 15.6735H30.8694L31.3125 17.0766C31.3863 17.2243 31.534 17.372 31.6817 17.4458C32.3463 17.5935 33.0109 17.8889 33.6017 18.2581C33.7494 18.332 33.9709 18.332 34.1186 18.2581L35.4478 17.5935L36.9986 19.1443L36.334 20.4735C36.2601 20.6212 36.2601 20.8427 36.334 20.9904C36.7032 21.5812 36.9248 22.2458 37.1463 22.9104C37.2201 23.0581 37.294 23.2058 37.5155 23.2796L38.9186 23.7227V25.9381H38.8448Z" fill="#0B0B09"/>
</svg>
