<svg width="61" height="60" viewBox="0 0 61 60" fill="none" xmlns="http://www.w3.org/2000/svg">
<path d="M11.2924 42.5298C11.0631 42.085 10.5852 41.8409 10.1045 41.9232C7.76455 42.333 1.0416 42.5502 0.518844 31.7056C-0.114582 18.5659 15.2793 -3.88548 37.8835 0.577686C56.0371 4.16385 42.4843 22.0454 53.6061 26.5538C60.1152 29.1932 65.999 42.7345 51.5432 54.493C43.7196 60.8498 23.6575 66.4647 11.2924 42.5298Z" fill="#F0F5D8"/>
<g clip-path="url(#clip0_639_2925)">
<path d="M33.4541 8.80654H45.2694C45.5648 8.80654 45.8602 8.585 45.8602 8.21577C45.8602 7.84654 45.6387 7.625 45.2694 7.625H33.4541C33.1587 7.625 32.8633 7.84654 32.8633 8.21577C32.8633 8.585 33.1587 8.80654 33.4541 8.80654Z" fill="#0B0B09"/>
<path d="M48.2226 8.80654H49.6995C49.9949 8.80654 50.2903 8.585 50.2903 8.21577C50.2903 7.84654 50.0688 7.625 49.6995 7.625H48.2226C47.9272 7.625 47.6318 7.84654 47.6318 8.21577C47.6318 8.585 47.9272 8.80654 48.2226 8.80654Z" fill="#0B0B09"/>
<path d="M51.1767 40.1914C50.8813 40.1914 50.5859 40.4129 50.5859 40.7822V45.9514C50.5859 46.2468 50.8075 46.5422 51.1767 46.5422C51.5459 46.5422 51.7675 46.3206 51.7675 45.9514V40.7822C51.7675 40.4129 51.4721 40.1914 51.1767 40.1914Z" fill="#0B0B09"/>
<path d="M51.1767 48.3145C50.8813 48.3145 50.5859 48.536 50.5859 48.9052V49.6437C50.5859 49.9391 50.8075 50.2345 51.1767 50.2345C51.5459 50.2345 51.7675 50.0129 51.7675 49.6437V48.9052C51.7675 48.536 51.4721 48.3145 51.1767 48.3145Z" fill="#0B0B09"/>
<path d="M40.8388 49.791H39.8788V48.831C39.8788 48.5356 39.6573 48.2402 39.288 48.2402C38.9188 48.2402 38.6973 48.4618 38.6973 48.831V49.791H37.7373C37.4419 49.791 37.1465 50.0125 37.1465 50.3818C37.1465 50.751 37.368 50.9725 37.7373 50.9725H38.6973V51.7849C38.6973 52.0802 38.9188 52.3756 39.288 52.3756C39.6573 52.3756 39.8788 52.1541 39.8788 51.7849V50.8249H40.8388C41.1342 50.8249 41.4296 50.6033 41.4296 50.2341C41.4296 49.8649 41.1342 49.791 40.8388 49.791Z" fill="#0B0B09"/>
<path d="M7.60737 14.7141H8.56737V15.6003C8.56737 15.8957 8.78891 16.191 9.15814 16.191C9.52737 16.191 9.74891 15.9695 9.74891 15.6003V14.6403H10.7089C11.0043 14.6403 11.2997 14.4187 11.2997 14.0495C11.2997 13.6803 11.0781 13.4587 10.7089 13.4587H9.67506V12.6464C9.67506 12.351 9.45352 12.0557 9.08429 12.0557C8.71506 12.0557 8.56737 12.351 8.56737 12.6464V13.6064H7.60737C7.31199 13.6064 7.0166 13.828 7.0166 14.1972C7.0166 14.5664 7.31199 14.7141 7.60737 14.7141Z" fill="#0B0B09"/>
<path d="M50.4382 11.3916H22.3766C20.4566 11.3916 18.832 12.9424 18.832 14.9362V34.1362C18.832 36.0562 20.3828 37.6808 22.3766 37.6808H35.5213L44.1613 44.1054C44.2351 44.1793 44.3828 44.2531 44.5305 44.2531C44.6043 44.2531 44.6782 44.2531 44.752 44.1793C44.9736 44.1054 45.0474 43.8839 45.0474 43.6624V37.5331H50.4382C52.3582 37.5331 53.9828 35.9824 53.9828 33.9885V14.8624C53.9828 12.9424 52.3582 11.3916 50.4382 11.3916ZM52.8751 34.0624C52.8751 35.3916 51.7674 36.4993 50.4382 36.4993H44.5305C44.2351 36.4993 43.9397 36.7208 43.9397 37.0901V42.6285L36.0382 36.5731C35.9643 36.4993 35.8166 36.4254 35.669 36.4254H22.3766C21.0474 36.4254 19.9397 35.3178 19.9397 33.9885V14.8624C19.9397 13.5331 21.0474 12.4254 22.3766 12.4254H50.4382C51.7674 12.4254 52.8751 13.5331 52.8751 14.8624V34.0624Z" fill="#0B0B09"/>
<path d="M45.269 21.7295C43.7183 21.7295 42.4629 22.9849 42.4629 24.5356C42.4629 26.0864 43.7183 27.3418 45.269 27.3418C46.8198 27.3418 48.0752 26.0864 48.0752 24.5356C48.0752 22.9849 46.8198 21.7295 45.269 21.7295ZM45.269 26.1603C44.3829 26.1603 43.5706 25.4218 43.5706 24.4618C43.5706 23.5018 44.309 22.7633 45.269 22.7633C46.229 22.7633 46.9675 23.5018 46.9675 24.4618C46.9675 25.4218 46.1552 26.1603 45.269 26.1603Z" fill="#0B0B09"/>
<path d="M36.4077 21.7295C34.8569 21.7295 33.6016 22.9849 33.6016 24.5356C33.6016 26.0864 34.8569 27.3418 36.4077 27.3418C37.9585 27.3418 39.2139 26.0864 39.2139 24.5356C39.2139 22.9849 37.9585 21.7295 36.4077 21.7295ZM36.4077 26.1603C35.5216 26.1603 34.7093 25.4218 34.7093 24.4618C34.7093 23.5018 35.4477 22.7633 36.4077 22.7633C37.3677 22.7633 38.1062 23.5018 38.1062 24.4618C38.1062 25.4218 37.2939 26.1603 36.4077 26.1603Z" fill="#0B0B09"/>
<path d="M27.5464 21.7295C25.9956 21.7295 24.7402 22.9849 24.7402 24.5356C24.7402 26.0864 25.9956 27.3418 27.5464 27.3418C29.0972 27.3418 30.3525 26.0864 30.3525 24.5356C30.3525 22.9849 29.0972 21.7295 27.5464 21.7295ZM27.5464 26.1603C26.6602 26.1603 25.8479 25.4218 25.8479 24.4618C25.8479 23.5018 26.5864 22.7633 27.5464 22.7633C28.5064 22.7633 29.2448 23.5018 29.2448 24.4618C29.2448 25.4218 28.4325 26.1603 27.5464 26.1603Z" fill="#0B0B09"/>
<path d="M39.0661 42.9972C39.1399 42.7018 38.9184 42.4065 38.623 42.3326C38.3276 42.2588 38.0322 42.4803 37.9584 42.7757C37.7368 43.8834 36.7768 44.6218 35.5953 44.6218H25.2568C25.1091 44.6218 25.0353 44.6957 24.8876 44.7695L16.9122 50.7511V45.1388C16.9122 44.8434 16.6907 44.548 16.3214 44.548H10.4138C9.08453 44.548 7.97683 43.4403 7.97683 42.1111V25.9388C7.97683 24.6095 9.08453 23.5019 10.4138 23.5019H16.3214C16.6168 23.5019 16.9122 23.2803 16.9122 22.9111C16.9122 22.5419 16.6907 22.3203 16.3214 22.3203H10.4138C8.49376 22.3203 6.86914 23.8711 6.86914 25.8649V42.1111C6.86914 44.0311 8.41991 45.6557 10.4138 45.6557H15.8045V51.7849C15.8045 52.0065 15.9522 52.1542 16.0999 52.3018C16.1738 52.3757 16.2476 52.3757 16.3214 52.3757C16.4691 52.3757 16.543 52.3018 16.6907 52.228L25.4045 45.7295H35.5953C37.2938 45.7295 38.6968 44.548 39.0661 42.9972Z" fill="#0B0B09"/>
</g>
<defs>
<clipPath id="clip0_639_2925">
<rect width="48" height="48" fill="white" transform="translate(6.5 6)"/>
</clipPath>
</defs>
</svg>
