<svg width="61" height="60" viewBox="0 0 61 60" fill="none" xmlns="http://www.w3.org/2000/svg">
<path d="M11.2924 42.5298C11.0631 42.085 10.5852 41.8409 10.1045 41.9232C7.76455 42.333 1.0416 42.5502 0.518844 31.7056C-0.114582 18.5659 15.2793 -3.88548 37.8835 0.577686C56.0371 4.16385 42.4843 22.0454 53.6061 26.5538C60.1152 29.1932 65.999 42.7345 51.5432 54.493C43.7196 60.8498 23.6575 66.4647 11.2924 42.5298Z" fill="#F0F5D8"/>
<path d="M48.5929 52.375H39.7314C39.436 52.375 39.1406 52.5965 39.1406 52.9658C39.1406 53.335 39.3622 53.5565 39.7314 53.5565H48.5929C48.8883 53.5565 49.1837 53.335 49.1837 52.9658C49.1837 52.5965 48.8883 52.375 48.5929 52.375Z" fill="#0B0B09"/>
<path d="M52.2855 52.375H50.8085C50.5132 52.375 50.2178 52.5965 50.2178 52.9658C50.2178 53.335 50.4393 53.5565 50.8085 53.5565H52.2855C52.5809 53.5565 52.8762 53.335 52.8762 52.9658C52.8762 52.5965 52.5809 52.375 52.2855 52.375Z" fill="#0B0B09"/>
<path d="M9.45442 16.5599C9.74981 16.5599 10.0452 16.3384 10.0452 15.9692V10.0615C10.0452 9.76609 9.82365 9.4707 9.45442 9.4707C9.08519 9.4707 8.9375 9.76609 8.9375 10.0615V15.9692C8.9375 16.2645 9.15904 16.5599 9.45442 16.5599Z" fill="#0B0B09"/>
<path d="M9.45442 8.4366C9.74981 8.4366 10.0452 8.21506 10.0452 7.84583V7.10737C10.0452 6.81199 9.82365 6.5166 9.45442 6.5166C9.08519 6.5166 8.9375 6.81199 8.9375 7.10737V7.84583C8.9375 8.14122 9.15904 8.4366 9.45442 8.4366Z" fill="#0B0B09"/>
<path d="M11.6696 34.2825C11.965 34.2825 12.2604 34.0609 12.2604 33.6917C12.2604 33.3225 11.965 33.1748 11.6696 33.1748H10.7835V32.2148C10.7835 31.9194 10.5619 31.624 10.1927 31.624C9.82346 31.624 9.60192 31.8456 9.60192 32.2148V33.1748H8.71577C8.42038 33.1748 8.125 33.3963 8.125 33.7656C8.125 34.1348 8.34654 34.3563 8.71577 34.3563H9.67577V35.3163C9.67577 35.6117 9.89731 35.9071 10.2665 35.9071C10.6358 35.9071 10.8573 35.6856 10.8573 35.3163V34.3563H11.6696V34.2825Z" fill="#0B0B09"/>
<path d="M49.4052 9.54393H48.4452V8.58393C48.4452 8.28855 48.2237 7.99316 47.8544 7.99316C47.4852 7.99316 47.2637 8.2147 47.2637 8.58393V9.54393H46.3037C46.0083 9.54393 45.7129 9.76547 45.7129 10.1347C45.7129 10.5039 45.9344 10.7255 46.3037 10.7255H47.2637V11.6855C47.2637 11.9809 47.4852 12.2762 47.8544 12.2762C48.2237 12.2762 48.4452 12.0547 48.4452 11.6855V10.6516H49.4052C49.7006 10.6516 49.996 10.4301 49.996 10.0609C49.996 9.69163 49.7006 9.54393 49.4052 9.54393Z" fill="#0B0B09"/>
<path d="M37.7372 39.6737C41.2818 39.6737 44.1618 36.7937 44.1618 33.1752C44.1618 31.7722 44.7526 30.3691 45.7126 29.4091C48.2233 26.8983 48.2233 22.7629 45.7126 20.2522C44.6787 19.2183 44.1618 17.8891 44.1618 16.486C44.1618 12.9414 41.2818 9.98756 37.6633 9.98756C36.2603 9.98756 34.8572 9.39679 33.8972 8.43679C31.3864 5.92602 27.251 5.92602 24.7403 8.43679C23.7064 9.47063 22.3772 9.98756 20.9741 9.98756C17.4295 9.98756 14.4757 12.8676 14.4757 16.486C14.4757 17.8891 13.8849 19.2922 12.9249 20.2522C11.6695 21.5076 11.0049 23.0583 11.0049 24.8306C11.0049 26.5291 11.6695 28.1537 12.9249 29.4091C13.9587 30.4429 14.4757 31.7722 14.4757 33.1752C14.4757 36.7199 17.3557 39.6737 20.9741 39.6737C22.3772 39.6737 23.7803 40.2645 24.7403 41.2245C25.9957 42.4799 27.6203 43.1445 29.3187 43.1445C30.9433 43.1445 32.6418 42.4799 33.8972 41.2245C35.0049 40.1906 36.3341 39.6737 37.7372 39.6737ZM25.6264 40.4122C24.371 39.1568 22.7464 38.4922 21.048 38.4922C18.0941 38.4922 15.6572 36.0553 15.6572 33.1014C15.6572 31.4029 14.9926 29.7783 13.7372 28.5229C12.7033 27.4891 12.1864 26.1599 12.1864 24.7568C12.1864 23.3537 12.7772 21.9506 13.7372 20.9906C14.9926 19.7352 15.6572 18.1106 15.6572 16.4122C15.6572 13.4583 18.0941 11.0214 21.048 11.0214C22.7464 11.0214 24.371 10.3568 25.6264 9.1014C26.6603 8.21525 27.9895 7.69833 29.3926 7.69833C30.7956 7.69833 32.1249 8.21525 33.1587 9.2491C34.4141 10.4306 36.0387 11.0952 37.7372 11.0952C40.691 11.0952 43.0541 13.5322 43.0541 16.486C43.0541 18.1845 43.7187 19.8091 44.9741 21.0645C47.0418 23.1322 47.0418 26.5291 44.9741 28.6706C43.7187 29.926 43.0541 31.5506 43.0541 33.2491C43.0541 36.2029 40.6172 38.6399 37.6633 38.6399C35.9649 38.6399 34.3403 39.3045 33.0849 40.5599C31.091 42.5537 27.6941 42.5537 25.6264 40.4122Z" fill="#0B0B09"/>
<path d="M42.4638 24.8305C42.4638 24.5351 42.2423 24.2398 41.873 24.2398C41.5777 24.2398 41.2823 24.4613 41.2823 24.8305C41.2823 31.4028 35.8915 36.7936 29.2453 36.8675C22.673 36.8675 17.2823 31.4767 17.2084 24.8305C17.2084 22.9844 17.5777 21.2859 18.39 19.6613C20.5315 15.5259 24.8146 12.8675 29.393 12.8675C34.4146 12.8675 38.993 16.0428 40.6915 20.8428C40.7653 21.1382 41.1346 21.2859 41.43 21.2121C41.5776 21.1382 41.6515 21.0644 41.7253 20.9167C41.7992 20.769 41.7992 20.6213 41.7253 20.4736C39.8792 15.3044 34.9315 11.7598 29.393 11.7598C26.8823 11.7598 24.4453 12.4982 22.3038 13.8275C20.2361 15.1567 18.6115 17.0028 17.5777 19.2182C16.7653 20.9905 16.3223 22.9105 16.3223 24.9044C16.3223 32.1413 22.23 38.049 29.4669 38.049C36.7038 38.049 42.4638 32.0675 42.4638 24.8305Z" fill="#0B0B09"/>
<path d="M41.2819 22.3931C41.208 22.5408 41.208 22.6885 41.208 22.8362C41.2819 23.1315 41.5034 23.2792 41.7249 23.2792H41.7988C41.9465 23.2792 42.0942 23.2054 42.168 23.0577C42.2418 22.91 42.3157 22.7623 42.2419 22.6146C42.168 22.3192 41.8726 22.0977 41.5772 22.1715C41.5034 22.2454 41.4295 22.3192 41.2819 22.3931Z" fill="#0B0B09"/>
<path d="M38.3278 21.9507C38.254 21.7292 38.1063 21.5815 37.8848 21.5815L32.3463 20.7692L29.9094 15.7476C29.6878 15.3784 29.0971 15.3784 28.9494 15.7476L26.4386 20.7692L20.974 21.5815C20.7525 21.5815 20.6048 21.7292 20.5309 21.9507C20.4571 22.1722 20.5309 22.3938 20.6786 22.5415L24.6663 26.4553L23.6325 31.8461C23.6325 32.0676 23.7063 32.2892 23.854 32.363C24.0017 32.5107 24.2232 32.5107 24.4448 32.4369L29.3925 29.8522L34.3402 32.4369C34.414 32.5107 34.4878 32.5107 34.5617 32.5107C34.7094 32.5107 34.7832 32.5107 34.8571 32.4369C35.0048 32.2892 35.0786 32.0676 35.0786 31.9199L34.1186 26.4553L38.1063 22.5415C38.3278 22.3938 38.3278 22.1722 38.3278 21.9507ZM33.1586 25.7907C33.0109 25.9384 32.9371 26.0861 33.0109 26.3076L33.8232 30.9599L29.614 28.7445C29.5402 28.6707 29.4663 28.6707 29.3925 28.6707C29.3186 28.6707 29.2448 28.6707 29.1709 28.7445L24.9617 30.9599L25.774 26.3076C25.774 26.1599 25.774 25.9384 25.6263 25.7907L22.2294 22.4676L26.8817 21.803C27.0294 21.803 27.2509 21.6553 27.3248 21.5076L29.3925 17.2984L31.4602 21.5076C31.534 21.6553 31.6817 21.803 31.9032 21.803L36.5555 22.4676L33.1586 25.7907Z" fill="#0B0B09"/>
<path d="M25.7002 44.1041C25.4048 43.9564 25.1095 44.1041 24.9618 44.3995L21.6387 51.4887L19.571 45.7287C19.4972 45.581 19.4233 45.5072 19.2756 45.4333C19.1279 45.3595 18.9802 45.3595 18.8325 45.4333L13.0725 47.501L16.2479 40.6333C16.3956 40.3379 16.2479 40.0425 15.9525 39.8949C15.6572 39.7472 15.3618 39.8949 15.2141 40.1902L11.4479 48.3133C11.3741 48.5349 11.3741 48.7564 11.5218 48.9041C11.6695 49.0518 11.891 49.1256 12.1125 49.0518L18.611 46.6887L20.9741 53.1872C21.0479 53.4087 21.2695 53.5564 21.491 53.5564C21.7125 53.5564 21.9341 53.4087 22.0079 53.261L25.8479 44.9902C26.1433 44.5472 25.9956 44.2518 25.7002 44.1041Z" fill="#0B0B09"/>
<path d="M46.082 48.8308C46.2297 48.6831 46.3036 48.4616 46.1559 48.2401L42.6113 40.7078C42.4636 40.4124 42.1682 40.3385 41.8728 40.4124C41.5774 40.5601 41.5036 40.8555 41.5774 41.1508L44.5313 47.5016L38.7713 45.4339C38.6236 45.3601 38.4759 45.3601 38.3282 45.4339C38.1805 45.5078 38.1067 45.5816 38.0328 45.7293L36.039 51.4155L32.9374 44.6955C32.7897 44.4001 32.4944 44.3262 32.199 44.4001C31.9036 44.5478 31.8297 44.8431 31.9036 45.1385L35.5959 53.0401C35.6697 53.2616 35.8913 53.3355 36.1128 53.3355C36.3344 53.3355 36.5559 53.1878 36.6297 52.9662L38.9928 46.4678L45.4913 48.8308C45.7128 49.0524 45.9344 48.9785 46.082 48.8308Z" fill="#0B0B09"/>
</svg>
