<svg width="61" height="60" viewBox="0 0 61 60" fill="none" xmlns="http://www.w3.org/2000/svg">
<path d="M11.2924 42.5298C11.0631 42.085 10.5852 41.8409 10.1045 41.9232C7.76455 42.333 1.0416 42.5502 0.518844 31.7056C-0.114582 18.5659 15.2793 -3.88548 37.8835 0.577686C56.0371 4.16385 42.4843 22.0454 53.6061 26.5538C60.1152 29.1932 65.999 42.7345 51.5432 54.493C43.7196 60.8498 23.6575 66.4647 11.2924 42.5298Z" fill="#F0F5D8"/>
<path d="M13.5151 52.375H7.60737C7.31199 52.375 7.0166 52.5965 7.0166 52.9658C7.0166 53.335 7.23814 53.5565 7.60737 53.5565H13.5151C13.8104 53.5565 14.1058 53.335 14.1058 52.9658C14.1058 52.5965 13.8104 52.375 13.5151 52.375Z" fill="#0B0B09"/>
<path d="M17.9456 52.375H16.4687C16.1733 52.375 15.8779 52.5965 15.8779 52.9658C15.8779 53.335 16.0995 53.5565 16.4687 53.5565H17.9456C18.241 53.5565 18.5364 53.335 18.5364 52.9658C18.5364 52.5965 18.241 52.375 17.9456 52.375Z" fill="#0B0B09"/>
<path d="M53.3915 15.4521C53.0962 15.4521 52.8008 15.6737 52.8008 16.0429V24.9045C52.8008 25.1998 53.0223 25.4952 53.3915 25.4952C53.7608 25.4952 53.9823 25.2737 53.9823 24.9045V16.0429C53.9823 15.6737 53.6869 15.4521 53.3915 15.4521Z" fill="#0B0B09"/>
<path d="M53.3915 27.2676C53.0962 27.2676 52.8008 27.4891 52.8008 27.8583V29.3353C52.8008 29.6307 53.0223 29.926 53.3915 29.926C53.7608 29.926 53.9823 29.7045 53.9823 29.3353V27.8583C53.9823 27.4891 53.6869 27.2676 53.3915 27.2676Z" fill="#0B0B09"/>
<path d="M46.746 50.8984H45.786V49.9384C45.786 49.643 45.5645 49.3477 45.1953 49.3477C44.826 49.3477 44.6045 49.5692 44.6045 49.9384V50.8984H43.6445C43.3491 50.8984 43.0537 51.12 43.0537 51.4892C43.0537 51.8584 43.2752 52.08 43.6445 52.08H44.6045V53.04C44.6045 53.3353 44.826 53.6307 45.1953 53.6307C45.5645 53.6307 45.786 53.4092 45.786 53.04V52.08H46.746C47.0414 52.08 47.3368 51.8584 47.3368 51.4892C47.3368 51.12 47.0414 50.8984 46.746 50.8984Z" fill="#0B0B09"/>
<path d="M14.2539 9.17506H15.2139V10.1351C15.2139 10.4304 15.4354 10.7258 15.8046 10.7258C16.1739 10.7258 16.3954 10.5043 16.3954 10.1351V9.17506H17.3554C17.6508 9.17506 17.9462 8.95352 17.9462 8.58429C17.9462 8.21506 17.7246 7.99352 17.3554 7.99352H16.3954V7.10737C16.3954 6.81199 16.1739 6.5166 15.8046 6.5166C15.4354 6.5166 15.2139 6.73814 15.2139 7.10737V8.06737H14.2539C13.9585 8.06737 13.6631 8.28891 13.6631 8.65814C13.6631 9.02737 13.9585 9.17506 14.2539 9.17506Z" fill="#0B0B09"/>
<path d="M30.5001 26.0858C30.7954 26.0858 31.0908 25.8643 31.0908 25.4951C31.0908 25.1258 30.8693 24.9043 30.5001 24.9043C27.7677 24.9043 25.4785 27.1197 25.4785 29.9258C25.4785 32.732 27.6939 34.9474 30.5001 34.9474C33.3062 34.9474 35.5216 32.732 35.5216 29.9258C35.5216 29.6305 35.3001 29.3351 34.9308 29.3351C34.5616 29.3351 34.3401 29.5566 34.3401 29.9258C34.3401 32.0674 32.5677 33.8397 30.4262 33.8397C28.2847 33.8397 26.5124 32.0674 26.5124 29.9258C26.5124 27.7843 28.3585 26.0858 30.5001 26.0858Z" fill="#0B0B09"/>
<path d="M46.2292 17.6676C46.0076 17.8153 45.9338 18.1845 46.0815 18.4061C48.5922 21.7292 49.8476 25.7169 49.8476 29.9261C49.8476 40.7076 41.2076 49.3476 30.4999 49.3476C19.7922 49.3476 11.0784 40.7076 11.0784 29.9999C11.0784 19.2922 19.7922 10.5784 30.4999 10.5784C34.7092 10.5784 38.6969 11.9076 42.0199 14.3445C42.2415 14.4922 42.6107 14.4922 42.7584 14.1969C42.9061 13.9753 42.9061 13.6061 42.6107 13.4584C39.0661 10.7999 34.8569 9.4707 30.4261 9.4707C19.2015 9.4707 9.9707 18.7015 9.9707 29.9999C9.9707 41.2984 19.1276 50.5292 30.4999 50.5292C41.8722 50.5292 51.0292 41.3722 51.0292 29.9999C51.0292 25.5692 49.6261 21.3599 47.0415 17.8153C46.8199 17.5938 46.4507 17.5199 46.2292 17.6676Z" fill="#0B0B09"/>
<path d="M39.14 17.9631C39.2877 17.7416 39.2139 17.3723 38.9923 17.2246C36.4816 15.5262 33.6016 14.7139 30.5739 14.7139C22.1554 14.7139 15.2139 21.5816 15.2139 30.0739C15.2139 38.5662 22.0816 45.4339 30.5739 45.4339C39.0662 45.4339 45.9339 38.5662 45.9339 30.0739C45.9339 27.0462 45.0477 24.1662 43.4231 21.6554C43.2754 21.4339 42.9062 21.36 42.6846 21.5077C42.4631 21.6554 42.3893 22.0246 42.5369 22.2462C44.0877 24.5354 44.9 27.2677 44.9 30.0739C44.9 37.9016 38.5493 44.3262 30.6477 44.3262C22.7462 44.3262 16.3954 37.9754 16.3954 30.0739C16.3954 22.1723 22.7462 15.8216 30.6477 15.8216C33.4539 15.8216 36.1862 16.6339 38.4754 18.1846C38.6231 18.3323 38.9185 18.2585 39.14 17.9631Z" fill="#0B0B09"/>
<path d="M35.3732 21.729C35.5209 21.4336 35.3732 21.1382 35.1517 20.9905C33.7486 20.252 32.124 19.8828 30.4994 19.8828C24.8871 19.8828 20.3086 24.4613 20.3086 30.0736C20.3086 35.6859 24.8871 40.2644 30.4994 40.2644C36.1117 40.2644 40.6901 35.6859 40.6901 30.0736C40.6901 28.449 40.3209 26.8982 39.5824 25.4213C39.4347 25.1259 39.1394 25.052 38.844 25.1997C38.5486 25.3474 38.4747 25.6428 38.6224 25.9382C39.2871 27.1936 39.5824 28.5967 39.5824 30.0736C39.5824 35.0951 35.5209 39.1567 30.4994 39.1567C25.4778 39.1567 21.4163 35.0951 21.4163 30.0736C21.4163 25.052 25.4778 20.9905 30.4994 20.9905C31.9763 20.9905 33.3055 21.3597 34.6347 21.9505C34.8563 22.0982 35.2255 21.9505 35.3732 21.729Z" fill="#0B0B09"/>
<path d="M51.9146 12.4978H48.8131L51.5454 9.69163C51.7669 9.47009 51.7669 9.10086 51.5454 8.87932C51.3239 8.65778 51.0285 8.73163 50.8069 8.95316L48.0746 11.6855V8.58393C48.0746 8.28855 47.8531 7.99316 47.4839 7.99316C47.1146 7.99316 46.8931 8.2147 46.8931 8.58393V12.7932L30.13 29.6301C29.9085 29.8516 29.9085 30.2209 30.13 30.4424C30.2039 30.5162 30.3516 30.5901 30.4993 30.5901C30.6469 30.5901 30.7946 30.5162 30.8685 30.4424L47.7054 13.6055H51.9146C52.21 13.6055 52.5054 13.3839 52.5054 13.0147C52.5054 12.6455 52.21 12.4978 51.9146 12.4978Z" fill="#0B0B09"/>
</svg>
