<svg width="61" height="60" viewBox="0 0 61 60" fill="none" xmlns="http://www.w3.org/2000/svg">
<path d="M11.2924 42.5298C11.0631 42.085 10.5852 41.8409 10.1045 41.9232C7.76455 42.333 1.0416 42.5502 0.518844 31.7056C-0.114582 18.5659 15.2793 -3.88548 37.8835 0.577686C56.0371 4.16385 42.4843 22.0454 53.6061 26.5538C60.1152 29.1932 65.999 42.7345 51.5432 54.493C43.7196 60.8498 23.6575 66.4647 11.2924 42.5298Z" fill="#F0F5D8"/>
<path d="M48.1493 52.375H36.3339C36.0386 52.375 35.7432 52.5965 35.7432 52.9658C35.7432 53.335 35.9647 53.5565 36.3339 53.5565H48.1493C48.4447 53.5565 48.7401 53.335 48.7401 52.9658C48.7401 52.5965 48.4447 52.375 48.1493 52.375Z" fill="#0B0B09"/>
<path d="M52.5804 52.375H51.1035C50.8081 52.375 50.5127 52.5965 50.5127 52.9658C50.5127 53.335 50.7342 53.5565 51.1035 53.5565H52.5804C52.8758 53.5565 53.1712 53.335 53.1712 52.9658C53.1712 52.5965 52.8758 52.375 52.5804 52.375Z" fill="#0B0B09"/>
<path d="M20.0878 12.8674C20.3832 12.8674 20.6786 12.6458 20.6786 12.2766V7.10737C20.6786 6.81199 20.4571 6.5166 20.0878 6.5166C19.7186 6.5166 19.4971 6.73814 19.4971 7.10737V12.2766C19.4971 12.572 19.7186 12.8674 20.0878 12.8674Z" fill="#0B0B09"/>
<path d="M20.0878 16.5596C20.3832 16.5596 20.6786 16.3381 20.6786 15.9689V15.2304C20.6786 14.935 20.4571 14.6396 20.0878 14.6396C19.7186 14.6396 19.4971 14.8612 19.4971 15.2304V15.9689C19.4971 16.2643 19.7186 16.5596 20.0878 16.5596Z" fill="#0B0B09"/>
<path d="M49.6269 20.9901H50.5869V21.9501C50.5869 22.2455 50.8084 22.5409 51.1777 22.5409C51.5469 22.5409 51.7684 22.3194 51.7684 21.9501V20.9901H52.7284C53.0238 20.9901 53.3192 20.7686 53.3192 20.3994C53.3192 20.0301 53.0977 19.8086 52.7284 19.8086H51.7684V18.8486C51.7684 18.5532 51.5469 18.2578 51.1777 18.2578C50.8084 18.2578 50.5869 18.4794 50.5869 18.8486V19.8086H49.6269C49.3315 19.8086 49.0361 20.0301 49.0361 20.3994C49.0361 20.7686 49.2577 20.9901 49.6269 20.9901Z" fill="#0B0B09"/>
<path d="M29.6884 12.8674H30.6484V13.8274C30.6484 14.1228 30.87 14.4182 31.2392 14.4182C31.6084 14.4182 31.83 14.1967 31.83 13.8274V12.8674H32.79C33.0853 12.8674 33.3807 12.6459 33.3807 12.2767C33.3807 11.9074 33.1592 11.6859 32.79 11.6859H31.83V10.7998C31.83 10.5044 31.6084 10.209 31.2392 10.209C30.87 10.209 30.6484 10.4305 30.6484 10.7998V11.7598H29.6884C29.393 11.7598 29.0977 11.9813 29.0977 12.3505C29.0977 12.7198 29.3192 12.8674 29.6884 12.8674Z" fill="#0B0B09"/>
<path d="M53.1712 28.8919C52.8759 27.7842 52.2112 26.898 51.0297 26.2334C50.0697 25.6426 48.8143 25.3473 47.5589 25.3473H41.9466C41.7251 25.1996 41.7251 25.1257 41.7251 24.978C41.5774 24.2396 42.6851 22.7626 43.4974 21.9503C43.5712 21.8765 43.5712 21.8765 43.5712 21.8026C47.5589 14.1226 43.5712 10.7257 43.4236 10.578C43.4236 10.578 43.3497 10.578 43.3497 10.5042C42.3159 9.91341 41.4297 9.76572 40.6174 10.2088C38.8451 11.1688 38.4759 14.2703 38.402 14.935C37.7374 16.7073 35.7436 18.8488 34.2666 20.3257C32.9374 21.7288 31.6082 23.2796 30.5005 24.978C29.2451 26.898 28.3589 28.1534 27.9897 28.6703C27.1774 29.7042 26.2174 29.778 26.2174 29.778H24.3712V27.6365C24.3712 27.3411 24.1497 27.0457 23.7805 27.0457H14.4759C14.1805 27.0457 13.8851 27.2673 13.8851 27.6365V29.4088H8.27278C7.9774 29.4088 7.75586 29.6303 7.75586 29.9996C7.75586 30.3688 7.9774 30.5903 8.27278 30.5903H13.9589V47.058H8.27278C7.9774 47.058 7.75586 47.2796 7.75586 47.6488C7.75586 48.018 7.90355 48.0919 8.27278 48.0919H13.9589V49.3473C13.9589 49.6426 14.1805 49.938 14.5497 49.938H23.8543C24.1497 49.938 24.4451 49.7165 24.4451 49.3473V47.7226H25.8482C26.2912 48.6088 27.4728 48.9042 28.2112 48.978H47.7805H47.8543C49.1836 48.7565 50.0697 48.1657 50.5866 47.2057C51.1774 46.098 50.882 44.7688 50.6605 44.0303C52.4328 42.7011 52.2112 40.338 51.7682 38.9349C53.9097 37.0888 53.2451 34.4303 52.3589 33.0273C53.1712 31.5503 53.5405 30.1473 53.1712 28.8919ZM23.2636 48.8303H15.0666V28.2273H23.2636V48.8303ZM51.3251 32.5842H43.7189C43.4236 32.5842 43.1282 32.8057 43.1282 33.1749C43.1282 33.5442 43.3497 33.7657 43.7189 33.7657H51.3989C51.842 34.5042 52.9497 36.7934 50.882 38.3442H43.7189C43.4236 38.3442 43.1282 38.5657 43.1282 38.9349C43.1282 39.3042 43.3497 39.5257 43.7189 39.5257H50.6605C50.882 40.338 51.3989 42.4796 49.7743 43.5134H43.7189C43.4236 43.5134 43.1282 43.7349 43.1282 44.1042C43.1282 44.4734 43.3497 44.695 43.7189 44.695H49.5528C49.7005 45.2119 49.922 46.1719 49.5528 46.9842C49.2574 47.575 48.5928 47.9442 47.7066 48.1657H28.2851C27.9897 48.1657 26.882 47.9442 26.7343 47.3534C26.6605 47.058 26.4389 46.9103 26.2174 46.9103H24.4451V30.8857H26.2912C26.3651 30.8857 27.842 30.8857 28.9497 29.3349C29.3189 28.818 30.2051 27.5626 31.5343 25.5688C32.642 23.9442 33.8236 22.4673 35.1528 21.138C36.7774 19.5134 38.8451 17.2242 39.5836 15.2303C39.5836 15.1565 39.5836 15.1565 39.5836 15.0826C39.6574 14.1965 40.0266 11.7596 41.2082 11.1688C41.6512 10.9473 42.1682 11.0211 42.8328 11.3903C43.1282 11.6857 46.082 14.5657 42.6851 21.2119C42.242 21.655 40.3959 23.6488 40.6912 25.1257C40.7651 25.4949 40.9866 26.0119 41.6512 26.3073C41.7251 26.3073 41.7989 26.3811 41.8728 26.3811H47.6328C48.7405 26.3811 49.7743 26.6026 50.5866 27.1196C51.4728 27.6365 51.9897 28.3011 52.2112 29.1134C52.3589 30.1473 52.0636 31.2549 51.3251 32.5842Z" fill="#0B0B09"/>
<path d="M19.1279 42.627C17.9463 42.627 16.9863 43.587 16.9863 44.7685C16.9863 45.95 17.9463 46.91 19.1279 46.91C20.3094 46.91 21.2694 45.95 21.2694 44.7685C21.2694 43.587 20.3094 42.627 19.1279 42.627ZM19.1279 45.7285C18.6109 45.7285 18.094 45.2854 18.094 44.6946C18.094 44.1039 18.5371 43.6608 19.1279 43.6608C19.7186 43.6608 20.1617 44.1039 20.1617 44.6946C20.1617 45.2854 19.7186 45.7285 19.1279 45.7285Z" fill="#0B0B09"/>
</svg>
