<svg width="80" height="101" viewBox="0 0 80 101" fill="none" xmlns="http://www.w3.org/2000/svg">
<circle cx="40" cy="40" r="39.5" fill="white" stroke="#E0E6EC"/>
<path d="M23.3534 50.8591C23.1547 50.4737 22.7405 50.2621 22.3239 50.3334C20.2959 50.6886 14.4694 50.8769 14.0163 41.4782C13.4674 30.0904 26.8087 10.6326 46.399 14.5007C62.1322 17.6087 50.3864 33.106 60.0253 37.0133C65.6665 39.3008 70.7658 51.0366 58.2374 61.2273C51.457 66.7365 34.0698 71.6028 23.3534 50.8591Z" fill="#F0F5D8"/>
<path d="M33.2888 49.6548C32.7255 49.1897 31.9814 49.0192 31.2941 49.2C30.6637 49.3654 30.1624 49.8149 29.9299 50.4247C29.6302 51.205 29.8472 52.1506 30.4673 52.7191C30.8549 53.0808 31.382 53.2668 31.909 53.2668C32.2139 53.2668 32.5188 53.2048 32.7978 53.0705C33.5523 52.7087 34.0432 51.8716 33.9864 51.0345C33.945 50.4971 33.6918 49.9906 33.2888 49.6548ZM32.4568 52.378C31.9865 52.6002 31.3664 52.5072 30.9841 52.1558C30.6017 51.8044 30.457 51.1947 30.6482 50.7089C30.7929 50.3265 31.0926 50.0578 31.4853 49.9545C31.6042 49.9235 31.723 49.908 31.8419 49.908C32.1777 49.908 32.5188 50.0268 32.7927 50.2542C33.0304 50.4505 33.1854 50.7658 33.2061 51.0965C33.2422 51.6132 32.927 52.1506 32.4568 52.378ZM49.2873 49.1018C48.5328 48.6213 47.6595 48.6316 46.9464 49.138C46.3418 49.5669 45.9749 50.3317 46.0163 51.0861C46.0473 51.7062 46.3315 52.2902 46.7965 52.6881C47.1944 53.0343 47.7215 53.2255 48.2434 53.2255C48.3313 53.2255 48.4191 53.2203 48.507 53.21C49.4113 53.0963 50.1864 52.3625 50.3466 51.4634C50.5171 50.5642 50.0882 49.6134 49.2873 49.1018ZM49.587 51.3239C49.4836 51.8871 48.9772 52.3677 48.4088 52.44C48.0212 52.4917 47.6027 52.3625 47.303 52.099C47.0032 51.8406 46.8121 51.4427 46.7914 51.0396C46.7655 50.5436 47.0032 50.0423 47.396 49.7633C48.0419 49.3085 48.6465 49.6031 48.8739 49.7478C49.3183 50.0371 49.711 50.6366 49.587 51.3239ZM40.5852 41.4385C40.5749 41.2266 40.7403 41.0406 40.9521 41.0302L42.3525 40.9631C42.5644 40.9527 42.7504 41.1181 42.7607 41.33C42.7711 41.5418 42.6057 41.7278 42.3939 41.7382L40.9935 41.8054C40.9883 41.8054 40.978 41.8054 40.9728 41.8054C40.7661 41.8105 40.5956 41.6452 40.5852 41.4385ZM31.5783 41.6245C31.5628 41.4126 31.723 41.2266 31.94 41.2111L33.5678 41.0974C33.7797 41.0819 33.9657 41.2421 33.9812 41.4591C33.9967 41.671 33.8365 41.857 33.6195 41.8725L31.9917 41.9862C31.9814 41.9862 31.9762 41.9862 31.9659 41.9862C31.7592 41.9862 31.5886 41.826 31.5783 41.6245ZM20.0962 49.9803C20.122 50.218 20.1582 50.466 20.1944 50.7141C20.2925 51.3342 20.8248 51.7889 21.4501 51.7889C21.4604 51.7889 21.4707 51.7889 21.4811 51.7889C23.176 51.7476 24.9381 51.7062 26.8552 51.6752C26.9534 52.3832 27.2118 53.0808 27.6355 53.6854C28.5398 54.9876 30.1521 55.8041 31.7953 55.8041C31.8832 55.8041 31.9659 55.8041 32.0537 55.7989C33.7177 55.711 35.2679 54.8119 36.0999 53.4425C36.4513 52.8689 36.6631 52.2178 36.7355 51.5616C37.9292 51.5512 39.128 51.5409 40.3217 51.5306C41.2467 51.5254 42.1768 51.515 43.1018 51.5099C43.138 51.8251 43.2051 52.1455 43.3033 52.4607C43.6392 53.5407 44.3058 54.4812 45.1843 55.1013C46.0576 55.7214 47.1324 56.0263 48.2176 56.0263C49.3286 56.0263 50.4448 55.7007 51.3646 55.0548C52.5428 54.2228 53.2714 52.8431 53.3748 51.391C54.9612 51.3652 57.333 51.3083 58.6663 51.2773C59.3329 51.2618 59.8754 50.7503 59.9271 50.0837C60.0666 48.3577 60.0046 46.6938 59.7514 45.2727C59.7153 45.0867 59.6791 44.9058 59.6429 44.7302C59.6429 44.7198 59.6377 44.7095 59.6377 44.694C59.307 43.2419 58.7593 42.0844 58.01 41.2421C57.0747 40.1931 56.253 39.4438 55.0594 38.9374C53.8708 38.4413 52.3516 38.1985 50.1554 38.1778C50.2071 36.6689 50.2071 34.974 49.928 33.4754C49.6283 31.8476 49.1064 30.6798 48.2383 29.698C48.0988 29.5378 47.8507 29.5223 47.6905 29.667C47.5303 29.8065 47.5148 30.0545 47.6595 30.2147C48.4295 31.0828 48.8945 32.1318 49.1684 33.6149C49.432 35.0515 49.432 36.7051 49.3803 38.1778C46.6932 38.2191 43.2051 38.2605 39.8308 38.3018C36.2962 38.3432 32.6428 38.3897 29.9144 38.431C29.7645 38.431 29.6147 38.4362 29.47 38.4413C29.377 37.1288 29.3925 35.9041 29.5113 34.6949C29.6612 33.186 30.1004 31.9355 30.8239 30.9795C31.2631 30.3956 31.8315 29.8892 32.524 29.4654C32.7048 29.3517 32.7617 29.114 32.6532 28.9332C32.5395 28.7523 32.3018 28.6955 32.1209 28.804C31.3458 29.2794 30.705 29.853 30.2089 30.5144C29.3976 31.5893 28.9067 32.9741 28.7414 34.6226C28.6173 35.8679 28.607 37.1391 28.7 38.4878C25.3825 38.7772 23.0778 40.1828 21.3312 42.9525C20.184 44.7767 19.781 47.0658 20.1117 49.939C20.091 49.9493 20.091 49.9648 20.0962 49.9803ZM35.4384 53.0343C34.7356 54.1866 33.4231 54.9463 32.0124 55.0186C30.5448 55.0961 29.0773 54.3985 28.2711 53.241C27.4495 52.0576 27.3668 50.3937 28.0799 49.2C28.7104 48.1407 30.1056 47.4741 31.723 47.4586C31.7437 47.4586 31.7592 47.4586 31.7798 47.4586C33.4076 47.4586 34.8235 48.1097 35.4746 49.169C36.1722 50.3007 36.1567 51.8509 35.4384 53.0343ZM50.915 54.414C49.3648 55.5095 47.1428 55.525 45.6339 54.4605C44.1043 53.3805 43.4377 51.1998 44.1095 49.5049C44.5642 48.3577 45.8819 47.071 48.1246 47.071C48.2383 47.071 48.3571 47.0762 48.476 47.0814C49.401 47.133 50.2898 47.4224 50.9822 47.8926C51.7315 48.3991 52.2431 49.1122 52.4653 49.9493C52.5583 50.2955 52.6048 50.6469 52.6048 50.9983C52.6048 51.0035 52.6048 51.0086 52.6048 51.0086C52.6048 51.0138 52.6048 51.0138 52.6048 51.019C52.61 52.3522 51.9847 53.6595 50.915 54.414ZM57.1057 41.4075C57.209 41.516 57.3124 41.6297 57.4157 41.7485C58.0668 42.4771 58.4906 43.4228 58.7644 44.4304C58.7076 44.4304 58.6507 44.4304 58.5939 44.4304C57.886 44.4201 57.2555 44.2186 56.8318 43.8568C56.3667 43.4641 56.1394 42.8389 56.284 42.3324C56.3874 41.9707 56.6871 41.6348 57.1057 41.4075ZM21.9668 43.3608C22.8659 41.9345 23.9149 40.9114 25.1706 40.2448C26.4625 39.5575 28.0076 39.2165 29.9092 39.201C32.6428 39.1596 36.2962 39.1131 39.8256 39.0718C43.3602 39.0304 47.0084 38.9839 49.742 38.9426C52.0415 38.9426 53.5866 39.1596 54.7441 39.6454C55.4469 39.9399 55.9947 40.3275 56.5424 40.839C56.0412 41.1594 55.6846 41.6142 55.5399 42.1257C55.3126 42.9267 55.6329 43.862 56.3357 44.4511C57.054 45.0609 57.9583 45.1952 58.5836 45.2056C58.6094 45.2056 58.6352 45.2056 58.6663 45.2056C58.7593 45.2056 58.8523 45.2004 58.9453 45.2004C59.3122 47.0607 59.2347 48.983 59.152 50.0113C59.1313 50.28 58.9143 50.4867 58.6456 50.4919C57.3124 50.5229 54.9508 50.5746 53.3696 50.6056C53.3437 50.3162 53.2972 50.032 53.2197 49.7478C52.6978 47.7893 50.853 46.4406 48.5225 46.3062C47.4477 46.2442 46.3728 46.4613 45.4892 46.9263C44.5022 47.4431 43.7736 48.2337 43.386 49.2207C43.2 49.6961 43.0966 50.2077 43.076 50.7296C42.1561 50.7399 41.2363 50.7451 40.3217 50.7503C39.1332 50.7606 37.9447 50.7709 36.7613 50.7813C36.72 50.063 36.5133 49.3654 36.1412 48.7608C35.3402 47.4637 33.6453 46.668 31.723 46.6835C29.8369 46.699 28.1884 47.5103 27.4185 48.8021C27.0413 49.4377 26.8449 50.1612 26.8242 50.9001C24.9123 50.9311 23.1605 50.9673 21.4707 51.0138C21.2227 51.019 21.0056 50.8381 20.9695 50.5952C20.954 50.4919 20.9385 50.3885 20.923 50.2852C21.0005 50.28 21.078 50.2697 21.1503 50.2542C21.7963 50.1405 22.3337 49.7736 22.5869 49.2827C22.8039 48.8641 22.7988 48.3939 22.7988 48.0115C22.7988 47.5671 22.7936 47.1227 22.7936 46.6783C22.7936 46.1047 22.7884 45.3192 22.3182 44.725C22.1218 44.4769 21.8583 44.2806 21.5379 44.1566C21.6619 43.8775 21.8066 43.614 21.9668 43.3608ZM21.2434 44.8697C21.4087 44.9369 21.5741 45.0402 21.7033 45.2004C21.9875 45.5569 22.0081 46.0789 22.0133 46.6783C22.0133 47.1227 22.0185 47.5671 22.0185 48.0063C22.0185 48.3319 22.0185 48.6678 21.8893 48.921C21.7446 49.2 21.4139 49.4119 21.0056 49.4842C20.9488 49.4946 20.8868 49.4997 20.8248 49.5049C20.6491 47.7221 20.7886 46.1822 21.2434 44.8697ZM32.1984 35.8524C33.0304 34.3797 33.2629 33.0465 33.511 31.6409C33.604 31.0932 33.7073 30.5248 33.8417 29.9512C34.1311 28.742 34.4566 27.3726 35.1904 26.2254C35.9448 25.0472 37.1799 24.0861 38.4924 23.652C40.0168 23.1508 41.5567 23.1198 42.7142 23.5642C42.9158 23.6417 43.014 23.8639 42.9364 24.0654C42.8589 24.2669 42.6367 24.3651 42.4352 24.2876C41.443 23.9052 40.0892 23.9414 38.7353 24.391C37.5881 24.7682 36.5081 25.6105 35.8415 26.644C35.1749 27.6826 34.8803 28.928 34.591 30.132C34.4618 30.6849 34.3636 31.2379 34.2706 31.7753C34.0484 33.0517 33.821 34.3642 33.1182 35.7749C35.95 36.3382 38.8231 36.0488 41.257 34.9378C42.5644 34.3435 43.7529 33.4289 44.5177 32.4367C45.236 31.5014 45.67 30.3491 45.7424 29.1916C45.8096 28.0444 45.515 26.954 44.8846 26.0032C42.3525 29.1089 39.4587 31.889 36.2497 34.2867C36.1825 34.3384 36.0999 34.3642 36.0172 34.3642C35.8983 34.3642 35.7846 34.3125 35.7071 34.2092C35.5779 34.0386 35.6141 33.7958 35.7846 33.6666C39.7326 30.716 43.1948 27.1814 46.0834 23.1611C46.2075 22.9854 46.4503 22.9492 46.626 23.0733C46.8017 23.1973 46.8379 23.4401 46.7139 23.6158C46.285 24.2153 45.8406 24.7992 45.3858 25.378C46.2075 26.5148 46.595 27.8428 46.5123 29.2432C46.4348 30.5558 45.9439 31.858 45.1275 32.9173C44.2903 34.0076 42.9933 35.005 41.5722 35.6509C39.8411 36.4364 37.9085 36.8394 35.9242 36.8394C34.7718 36.8394 33.5988 36.7051 32.4361 36.4312C32.3173 36.4053 32.2191 36.3227 32.1674 36.209C32.1312 36.0901 32.1416 35.9609 32.1984 35.8524ZM38.9833 50.1043C38.7715 50.1043 38.6009 49.939 38.5958 49.7271C38.5389 47.195 38.4821 42.8285 38.4924 40.1466C38.4924 39.9347 38.6681 39.759 38.88 39.759C39.0918 39.759 39.2675 39.9347 39.2675 40.1466C39.2572 42.8234 39.314 47.1795 39.3709 49.7064C39.376 49.9183 39.2055 50.0992 38.9937 50.1043C38.9885 50.1043 38.9885 50.1043 38.9833 50.1043Z" fill="#0B0B09"/>
<rect x="22.5" y="66.5" width="34" height="34" rx="17" fill="white"/>
<path d="M36.6619 79.567L35.3809 77.572L39.1399 74.758H40.8829V89.5H38.4679V78.202L36.6619 79.567Z" fill="#AACC3A"/>
<rect x="22.5" y="66.5" width="34" height="34" rx="17" stroke="#E0E6EC"/>
</svg>
