<svg width="80" height="101" viewBox="0 0 80 101" fill="none" xmlns="http://www.w3.org/2000/svg">
<circle cx="40" cy="40" r="39.5" fill="white" stroke="#E0E6EC"/>
<path d="M23.3534 50.8591C23.1547 50.4737 22.7405 50.2621 22.3239 50.3334C20.2959 50.6886 14.4694 50.8769 14.0163 41.4782C13.4674 30.0904 26.8087 10.6326 46.399 14.5007C62.1322 17.6087 50.3864 33.106 60.0253 37.0133C65.6665 39.3008 70.7658 51.0366 58.2374 61.2273C51.457 66.7365 34.0698 71.6028 23.3534 50.8591Z" fill="#F0F5D8"/>
<g clip-path="url(#clip0_263_886)">
<path d="M55.9996 58.646H46.1534C45.9073 58.646 45.6611 58.8306 45.6611 59.1383C45.6611 59.446 45.8457 59.6306 46.1534 59.6306H55.9996C56.2457 59.6306 56.4919 59.446 56.4919 59.1383C56.4919 58.8306 56.2457 58.646 55.9996 58.646Z" fill="#0B0B09"/>
<path d="M59.6928 58.646H58.462C58.2159 58.646 57.9697 58.8306 57.9697 59.1383C57.9697 59.446 58.1543 59.6306 58.462 59.6306H59.6928C59.939 59.6306 60.1851 59.446 60.1851 59.1383C60.1851 58.8306 59.939 58.646 59.6928 58.646Z" fill="#0B0B09"/>
<path d="M38.7697 23.8767H46.7697C47.0158 23.8767 47.262 23.6921 47.262 23.3844C47.262 23.0767 47.0773 22.8921 46.7697 22.8921H38.7697C38.5235 22.8921 38.2773 23.0767 38.2773 23.3844C38.2773 23.6921 38.5235 23.8767 38.7697 23.8767Z" fill="#0B0B09"/>
<path d="M49.2306 23.8767H49.846C50.0921 23.8767 50.3383 23.6921 50.3383 23.3844C50.3383 23.0767 50.1537 22.8921 49.846 22.8921H49.2306C48.9844 22.8921 48.7383 23.0767 48.7383 23.3844C48.7383 23.6921 48.9844 23.8767 49.2306 23.8767Z" fill="#0B0B09"/>
<path d="M20.3077 22.646H21.1077V23.446C21.1077 23.6922 21.2924 23.9384 21.6 23.9384C21.9077 23.9384 22.0924 23.7537 22.0924 23.446V22.646H22.8924C23.1385 22.646 23.3847 22.4614 23.3847 22.1537C23.3847 21.846 23.0154 21.723 22.7693 21.723H22.0308V20.923C22.0308 20.6768 21.8462 20.4307 21.5385 20.4307C21.2308 20.4307 21.1077 20.6768 21.1077 20.923V21.723H20.3077C20.0616 21.723 19.8154 21.9076 19.8154 22.2153C19.8154 22.523 20.0616 22.646 20.3077 22.646Z" fill="#0B0B09"/>
<path d="M58.9539 56.6153V25.8461C58.9539 25.5999 58.7693 25.3538 58.4616 25.3538H20.3077C20.0616 25.3538 19.8154 25.5384 19.8154 25.8461V45.5384C19.8154 45.7845 20 46.0307 20.3077 46.0307C20.6154 46.0307 20.8 45.8461 20.8 45.5384V31.2615H58.0308V56.1845H20.8V49.2307C20.8 48.9845 20.6154 48.7384 20.3077 48.7384C20 48.7384 19.8154 48.923 19.8154 49.2307V56.6153C19.8154 56.8615 20 57.1076 20.3077 57.1076H58.4616C58.7077 57.1076 58.9539 56.8615 58.9539 56.6153ZM20.8 30.3384V26.3384H33.4154V30.3384H20.8ZM34.3385 30.3384V26.3384H58.0308V30.3384H34.3385Z" fill="#0B0B09"/>
<path d="M56.0004 54.646C56.2466 54.646 56.4927 54.4614 56.4927 54.1537V33.2306C56.4927 32.9844 56.3081 32.7383 56.0004 32.7383H22.7697C22.5235 32.7383 22.2773 32.9229 22.2773 33.2306V54.1537C22.2773 54.3998 22.462 54.646 22.7697 54.646H56.0004ZM23.262 33.7229H55.5696V53.7229H23.262V33.7229Z" fill="#0B0B09"/>
<path d="M24.0002 28.9229C24.34 28.9229 24.6155 28.6474 24.6155 28.3075C24.6155 27.9677 24.34 27.6921 24.0002 27.6921C23.6603 27.6921 23.3848 27.9677 23.3848 28.3075C23.3848 28.6474 23.6603 28.9229 24.0002 28.9229Z" fill="#0B0B09"/>
<path d="M27.0773 28.9229C27.4172 28.9229 27.6927 28.6474 27.6927 28.3075C27.6927 27.9677 27.4172 27.6921 27.0773 27.6921C26.7374 27.6921 26.4619 27.9677 26.4619 28.3075C26.4619 28.6474 26.7374 28.9229 27.0773 28.9229Z" fill="#0B0B09"/>
<path d="M30.1535 28.9229C30.4933 28.9229 30.7689 28.6474 30.7689 28.3075C30.7689 27.9677 30.4933 27.6921 30.1535 27.6921C29.8136 27.6921 29.5381 27.9677 29.5381 28.3075C29.5381 28.6474 29.8136 28.9229 30.1535 28.9229Z" fill="#0B0B09"/>
<path d="M55.3845 27.8767H36.923C36.6768 27.8767 36.4307 28.0613 36.4307 28.369C36.4307 28.6767 36.6153 28.8613 36.923 28.8613H55.3845C55.6307 28.8613 55.8768 28.6767 55.8768 28.369C55.8768 28.0613 55.6307 27.8767 55.3845 27.8767Z" fill="#0B0B09"/>
<path d="M52.9228 37.7229H45.5382C45.2921 37.7229 45.0459 37.9075 45.0459 38.2152C45.0459 38.5229 45.2305 38.7075 45.5382 38.7075H52.9228C53.169 38.7075 53.4151 38.5229 53.4151 38.2152C53.4151 37.9075 53.169 37.7229 52.9228 37.7229Z" fill="#0B0B09"/>
<path d="M52.9228 41.4153H45.5382C45.2921 41.4153 45.0459 41.5999 45.0459 41.9076C45.0459 42.2153 45.2305 42.3999 45.5382 42.3999H52.9228C53.169 42.3999 53.4151 42.2153 53.4151 41.9076C53.4151 41.5999 53.169 41.4153 52.9228 41.4153Z" fill="#0B0B09"/>
<path d="M52.9233 45.1077H39.3849C39.1387 45.1077 38.8926 45.2923 38.8926 45.6C38.8926 45.9077 39.0772 46.0923 39.3849 46.0923H52.9233C53.1695 46.0923 53.4157 45.9077 53.4157 45.6C53.4157 45.2923 53.1695 45.1077 52.9233 45.1077Z" fill="#0B0B09"/>
<path d="M52.9233 48.7998H39.3849C39.1387 48.7998 38.8926 48.9844 38.8926 49.2921C38.8926 49.5998 39.0772 49.7844 39.3849 49.7844H52.9233C53.1695 49.7844 53.4157 49.5998 53.4157 49.2921C53.4157 48.9844 53.1695 48.7998 52.9233 48.7998Z" fill="#0B0B09"/>
<path d="M36.7383 36.7999V36.7383C36.7383 36.7383 36.7383 36.6768 36.6767 36.6768L36.6152 36.6152H36.5537L36.4921 36.5537C36.4921 36.5537 36.4306 36.5537 36.3691 36.5537H36.3075H25.2306C24.9844 36.5537 24.7383 36.7383 24.7383 37.046V50.5845C24.7383 50.646 24.7383 50.646 24.7383 50.7076V50.7691C24.7383 50.7691 24.7383 50.8306 24.7998 50.8306C24.8614 50.7691 24.9229 50.7691 24.9229 50.8306C24.9229 50.8306 24.9844 50.8306 24.9844 50.8922C24.9844 50.8922 25.046 50.8922 25.046 50.9537C25.1075 50.9537 25.1691 51.0153 25.2306 51.0153H36.3075C36.5537 51.0153 36.7998 50.8306 36.7998 50.5229V36.9845C36.7383 36.8614 36.7383 36.8614 36.7383 36.7999ZM35.3229 37.4152L25.7229 49.1691V37.4152H35.3229ZM26.2152 50.0306L35.8767 38.2768V50.0306H26.2152Z" fill="#0B0B09"/>
<path d="M20.3078 47.8154C20.3693 47.8154 20.4308 47.8154 20.4924 47.7539C20.5539 47.7539 20.6154 47.7539 20.6154 47.6923C20.677 47.5692 20.7385 47.5077 20.7385 47.3846C20.7385 47.3231 20.7385 47.2616 20.677 47.2C20.6154 47.1385 20.677 47.0769 20.6154 47.0769C20.4308 46.8923 20.1231 46.8923 19.9385 47.0769C19.877 47.1385 19.877 47.2 19.8154 47.2C19.8154 47.2616 19.7539 47.3231 19.7539 47.3846C19.7539 47.5077 19.8154 47.6308 19.877 47.6923C20.0616 47.8154 20.1847 47.8154 20.3078 47.8154Z" fill="#0B0B09"/>
</g>
<rect x="20.5" y="66.5" width="34" height="34" rx="17" fill="white"/>
<path d="M36.5561 89.731C35.4781 89.731 34.5261 89.514 33.7001 89.08C32.8881 88.632 32.2861 88.023 31.8941 87.253L33.2591 85.489C34.0851 86.707 35.1351 87.316 36.4091 87.316C37.1511 87.316 37.7321 87.127 38.1521 86.749C38.5721 86.371 38.7821 85.881 38.7821 85.279C38.7821 84.607 38.5371 84.096 38.0471 83.746C37.5711 83.382 36.9061 83.2 36.0521 83.2H35.0021V80.785H35.9471C36.5911 80.785 37.1301 80.596 37.5641 80.218C37.9981 79.84 38.2151 79.357 38.2151 78.769C38.2151 78.209 38.0541 77.775 37.7321 77.467C37.4101 77.145 36.9481 76.984 36.3461 76.984C35.2121 76.984 34.2881 77.509 33.5741 78.559L32.2301 76.858C33.0421 75.332 34.4911 74.569 36.5771 74.569C37.8511 74.569 38.8731 74.912 39.6431 75.598C40.4131 76.27 40.7981 77.173 40.7981 78.307C40.7981 79.973 40.0491 81.135 38.5511 81.793V81.856C39.4331 82.01 40.1191 82.409 40.6091 83.053C41.1131 83.683 41.3651 84.453 41.3651 85.363C41.3651 86.693 40.9101 87.757 40.0001 88.555C39.0901 89.339 37.9421 89.731 36.5561 89.731Z" fill="#AACC3A"/>
<rect x="20.5" y="66.5" width="34" height="34" rx="17" stroke="#E0E6EC"/>
<defs>
<clipPath id="clip0_263_886">
<rect width="40" height="40" fill="white" transform="translate(20 20)"/>
</clipPath>
</defs>
</svg>
