<svg width="80" height="101" viewBox="0 0 80 101" fill="none" xmlns="http://www.w3.org/2000/svg">
<circle cx="40" cy="40" r="39.5" fill="white" stroke="#E0E6EC"/>
<path d="M23.3534 50.8591C23.1547 50.4737 22.7405 50.2621 22.3239 50.3334C20.2959 50.6886 14.4694 50.8769 14.0163 41.4782C13.4674 30.0904 26.8087 10.6326 46.399 14.5007C62.1322 17.6087 50.3864 33.106 60.0253 37.0133C65.6665 39.3008 70.7658 51.0366 58.2374 61.2273C51.457 66.7365 34.0698 71.6028 23.3534 50.8591Z" fill="#F0F5D8"/>
<path d="M57.8458 31.1999C58.092 31.1999 58.3381 31.0153 58.3381 30.7076V23.9384C58.3381 23.6922 58.1535 23.446 57.8458 23.446C57.5381 23.446 57.3535 23.6307 57.3535 23.9384V30.7076C57.4151 31.0153 57.5997 31.1999 57.8458 31.1999Z" fill="#0B0B09"/>
<path d="M57.8458 21.9691C58.092 21.9691 58.3381 21.7845 58.3381 21.4768V20.8614C58.3381 20.6153 58.1535 20.3691 57.8458 20.3691C57.5381 20.3691 57.3535 20.5538 57.3535 20.8614V21.4768C57.4151 21.7845 57.5997 21.9691 57.8458 21.9691Z" fill="#0B0B09"/>
<path d="M54.7688 58.5845H54.1534C53.9073 58.5845 53.6611 58.7691 53.6611 59.0768C53.6611 59.3845 53.8457 59.5691 54.1534 59.5691H54.7688C55.015 59.5691 55.2611 59.3845 55.2611 59.0768C55.2611 58.7691 55.015 58.5845 54.7688 58.5845Z" fill="#0B0B09"/>
<path d="M25.8458 22.5845H26.6458V23.3845C26.6458 23.6307 26.8304 23.8768 27.1381 23.8768C27.4458 23.8768 27.6304 23.6922 27.6304 23.3845V22.5845H28.4304C28.6766 22.5845 28.9227 22.3999 28.9227 22.0922C28.9227 21.7845 28.7381 21.5999 28.4304 21.5999H27.6304V20.923C27.6304 20.6768 27.4458 20.4307 27.1381 20.4307C26.8304 20.4307 26.6458 20.6153 26.6458 20.923V21.723H25.8458C25.5997 21.723 25.3535 21.9076 25.3535 22.2153C25.3535 22.523 25.5997 22.5845 25.8458 22.5845Z" fill="#0B0B09"/>
<path d="M33.8455 54.2769H33.0455V53.4769C33.0455 53.2308 32.8609 52.9846 32.5532 52.9846C32.2455 52.9846 32.0609 53.1692 32.0609 53.4769V54.2769H31.2609C31.0147 54.2769 30.7686 54.4615 30.7686 54.7692C30.7686 55.0769 30.9532 55.2615 31.2609 55.2615H32.0609V56.0615C32.0609 56.3077 32.2455 56.5539 32.5532 56.5539C32.8609 56.5539 33.0455 56.3692 33.0455 56.0615V55.2615H33.8455C34.0916 55.2615 34.3378 55.0769 34.3378 54.7692C34.3378 54.4615 34.0916 54.2769 33.8455 54.2769Z" fill="#0B0B09"/>
<path d="M37.538 28.123C37.7842 28.123 38.0303 27.9384 38.0303 27.6307C38.0303 27.323 37.8457 27.1384 37.538 27.1384C33.4765 27.1384 30.0919 30.2154 29.7227 34.2769C29.7227 34.523 29.9073 34.7692 30.1534 34.7692C30.1534 34.7692 30.1534 34.7692 30.215 34.7692C30.4611 34.7692 30.6457 34.5846 30.6457 34.3384C30.9534 30.8923 33.9073 28.123 37.538 28.123Z" fill="#0B0B09"/>
<path d="M51.692 58.5846H44.1228V47.2616H47.3843C47.5689 47.2616 47.7535 47.1385 47.8151 46.9539C47.8766 46.7692 47.8766 46.5846 47.692 46.4616L40.3074 39.0769C40.1228 38.8923 39.8151 38.8923 39.6305 39.0769L32.3074 46.4616C32.1843 46.5846 32.1228 46.7692 32.1843 46.9539C32.2458 47.1385 32.4305 47.2616 32.6151 47.2616H35.8766V59.1385C35.8766 59.3846 36.0612 59.6308 36.3689 59.6308C36.6766 59.6308 36.8612 59.4462 36.8612 59.1385V46.8308C36.8612 46.5846 36.6766 46.3385 36.3689 46.3385H33.7843L40.0612 40.0616L46.3381 46.3385H43.7535C43.5074 46.3385 43.2612 46.5231 43.2612 46.8308V59.1385C43.2612 59.3231 43.3228 59.4462 43.5074 59.5077C43.5689 59.5692 43.692 59.5692 43.7535 59.5692H51.7535C51.9997 59.5692 52.2458 59.3846 52.2458 59.0769C52.2458 58.7692 51.9381 58.5846 51.692 58.5846Z" fill="#0B0B09"/>
<path d="M55.5074 38.1537C55.7536 37.5383 55.8151 36.9229 55.8151 36.3075C55.8151 33.3537 53.4151 30.8921 50.3997 30.8921C49.2921 30.8921 48.1844 31.2614 47.2613 31.8767C45.9074 27.6306 41.969 24.7383 37.4767 24.7383C32.1844 24.7383 27.8767 28.6152 27.2613 33.846C23.569 35.0767 21.0459 38.5844 21.0459 42.4614C21.0459 47.446 25.1074 51.569 30.1536 51.569H33.8459C34.0921 51.569 34.3382 51.3844 34.3382 51.0767C34.3382 50.7691 34.1536 50.5844 33.8459 50.5844H30.1536C25.6613 50.5844 21.969 46.9537 21.969 42.3998C21.969 38.8306 24.369 35.5691 27.8151 34.5844C27.9997 34.5229 28.1228 34.3998 28.1228 34.1537C28.6151 29.3537 32.6151 25.6614 37.5382 25.6614C41.8459 25.6614 45.5997 28.6152 46.6459 32.7998C46.7074 32.9844 46.8305 33.1075 46.9536 33.1075C47.1382 33.1691 47.2613 33.1075 47.3844 32.9844C48.2459 32.1844 49.292 31.7537 50.4613 31.7537C52.9228 31.7537 54.9536 33.7844 54.9536 36.246C54.9536 36.8614 54.8305 37.5383 54.5228 38.0921C54.3997 38.3383 54.5228 38.5844 54.7074 38.7075C56.7382 39.8152 57.969 41.9075 57.969 44.246C57.969 47.7537 55.1382 50.5844 51.6305 50.5844H46.0921C45.8459 50.5844 45.5997 50.7691 45.5997 51.0767C45.5997 51.3844 45.7844 51.569 46.0921 51.569H51.6305C55.6305 51.569 58.8921 48.3075 58.8921 44.3075C58.9536 41.7844 57.5997 39.5075 55.5074 38.1537Z" fill="#0B0B09"/>
<rect x="22.5" y="66.5" width="34" height="34" rx="17" fill="white"/>
<path d="M35.3074 82.612L36.2734 74.8H43.2244V77.215H38.3944L37.9744 80.134C38.2544 80.078 38.5344 80.05 38.8144 80.05C40.1584 80.05 41.2574 80.477 42.1114 81.331C42.9934 82.185 43.4344 83.319 43.4344 84.733C43.4344 86.259 42.9514 87.477 41.9854 88.387C41.0334 89.283 39.8294 89.731 38.3734 89.731C37.5754 89.731 36.7564 89.549 35.9164 89.185C35.1324 88.821 34.5164 88.303 34.0684 87.631L35.4544 85.804C35.7484 86.252 36.1754 86.616 36.7354 86.896C37.3094 87.176 37.8764 87.316 38.4364 87.316C39.1364 87.316 39.7104 87.085 40.1584 86.623C40.6204 86.161 40.8514 85.566 40.8514 84.838C40.8514 84.068 40.5644 83.445 39.9904 82.969C39.4304 82.479 38.6744 82.234 37.7224 82.234C36.7004 82.234 35.8954 82.36 35.3074 82.612Z" fill="#AACC3A"/>
<rect x="22.5" y="66.5" width="34" height="34" rx="17" stroke="#E0E6EC"/>
</svg>
