<svg width="80" height="101" viewBox="0 0 80 101" fill="none" xmlns="http://www.w3.org/2000/svg">
<circle cx="40" cy="40" r="39.5" fill="white" stroke="#E0E6EC"/>
<path d="M23.3534 50.8591C23.1547 50.4737 22.7405 50.2621 22.3239 50.3334C20.2959 50.6886 14.4694 50.8769 14.0163 41.4782C13.4674 30.0904 26.8087 10.6326 46.399 14.5007C62.1322 17.6087 50.3864 33.106 60.0253 37.0133C65.6665 39.3008 70.7658 51.0366 58.2374 61.2273C51.457 66.7365 34.0698 71.6028 23.3534 50.8591Z" fill="#F0F5D8"/>
<g clip-path="url(#clip0_263_906)">
<path d="M56.0003 58.646H47.3849C47.1387 58.646 46.8926 58.8306 46.8926 59.1383C46.8926 59.446 47.0772 59.6306 47.3849 59.6306H56.0003C56.2464 59.6306 56.4926 59.446 56.4926 59.1383C56.4926 58.8306 56.2464 58.646 56.0003 58.646Z" fill="#0B0B09"/>
<path d="M59.0766 58.646H57.8458C57.5997 58.646 57.3535 58.8306 57.3535 59.1383C57.3535 59.446 57.5381 59.6306 57.8458 59.6306H59.0766C59.3227 59.6306 59.5689 59.446 59.5689 59.1383C59.5689 58.8306 59.3227 58.646 59.0766 58.646Z" fill="#0B0B09"/>
<path d="M20.923 28.7998C21.1691 28.7998 21.4153 28.6152 21.4153 28.3075V23.3844C21.4153 23.1382 21.2307 22.8921 20.923 22.8921C20.6153 22.8921 20.4307 23.1382 20.4307 23.3844V28.3075C20.4307 28.5536 20.6768 28.7998 20.923 28.7998Z" fill="#0B0B09"/>
<path d="M20.923 22.0307C21.1691 22.0307 21.4153 21.846 21.4153 21.5384V20.923C21.4153 20.6768 21.2307 20.4307 20.923 20.4307C20.6153 20.4307 20.4307 20.6768 20.4307 20.923V21.5384C20.4307 21.7845 20.6768 22.0307 20.923 22.0307Z" fill="#0B0B09"/>
<path d="M27.0773 23.8768H27.8773V24.6768C27.8773 24.9229 28.0619 25.1691 28.3696 25.1691C28.6773 25.1691 28.8619 24.9845 28.8619 24.6768V23.8768H29.6619C29.908 23.8768 30.1542 23.6921 30.1542 23.3845C30.1542 23.0768 29.9696 22.8921 29.6619 22.8921H28.8619V22.1537C28.8619 21.9075 28.6773 21.6614 28.3696 21.6614C28.0619 21.6614 27.8773 21.846 27.8773 22.1537V22.9537H27.0773C26.8311 22.9537 26.585 23.1383 26.585 23.446C26.585 23.7537 26.8311 23.8768 27.0773 23.8768Z" fill="#0B0B09"/>
<path d="M50.4614 55.2614C50.7075 55.2614 50.9537 55.0768 50.9537 54.7691V53.9691H51.7537C51.9998 53.9691 52.246 53.7844 52.246 53.4768C52.246 53.1691 52.0614 52.9844 51.7537 52.9844H50.9537V52.1844C50.9537 51.9383 50.7691 51.6921 50.4614 51.6921C50.1537 51.6921 49.9691 51.8768 49.9691 52.1844V52.9844H49.1691C48.9229 52.9844 48.6768 53.1691 48.6768 53.4768C48.6768 53.7844 48.8614 53.9691 49.1691 53.9691H49.9691V54.7691C49.9691 55.0152 50.2152 55.2614 50.4614 55.2614Z" fill="#0B0B09"/>
<path d="M44.9225 49.723C47.8764 49.723 50.7071 48.8614 53.1687 47.1999L58.8917 49.723C58.9533 49.723 59.0148 49.7845 59.0764 49.7845C59.1994 49.7845 59.3225 49.723 59.384 49.6614C59.5071 49.5383 59.5687 49.3537 59.5071 49.1691L57.4764 42.5845C58.8302 40.3076 59.5071 37.7845 59.5071 35.1383C59.5071 27.0768 52.9225 20.4922 44.861 20.4922C36.7994 20.4922 30.3379 27.0153 30.3379 35.0768C30.3379 43.1383 36.861 49.723 44.9225 49.723ZM44.9225 21.4153C52.4917 21.4153 58.6456 27.5691 58.6456 35.1383C58.6456 37.6614 57.9687 40.123 56.6148 42.2768C56.5533 42.3999 56.5533 42.523 56.5533 42.646L58.3379 48.4307L53.2917 46.2153C53.1687 46.1537 52.984 46.1537 52.861 46.2768C50.5225 47.9383 47.8148 48.7999 44.9225 48.7999C37.3533 48.7999 31.1994 42.646 31.1994 35.0768C31.1994 27.5076 37.3533 21.4153 44.9225 21.4153Z" fill="#0B0B09"/>
<path d="M35.1385 28.6767C35.2 28.7383 35.3231 28.7383 35.3846 28.7383C35.5077 28.7383 35.6923 28.6767 35.7539 28.5536C37.8462 25.5998 41.2923 23.8152 44.9231 23.8152C45.1693 23.8152 45.4154 23.6306 45.4154 23.3229C45.4154 23.0152 45.2308 22.8306 44.9231 22.8306C40.9846 22.8306 37.2923 24.7383 35.0154 27.9383C34.8923 28.2459 34.8923 28.5536 35.1385 28.6767Z" fill="#0B0B09"/>
<path d="M38.154 32.1846C36.554 32.1846 35.2617 33.4769 35.2617 35.1384C35.2617 36.8 36.554 38.0923 38.154 38.0923C39.754 38.0923 41.1079 36.8 41.1079 35.1384C41.1079 33.4769 39.754 32.1846 38.154 32.1846ZM38.154 37.1076C37.0463 37.1076 36.1848 36.1846 36.1848 35.0769C36.1848 33.9692 37.1079 33.0461 38.154 33.0461C39.2002 33.0461 40.1848 33.9692 40.1848 35.0769C40.1848 36.1846 39.2617 37.1076 38.154 37.1076Z" fill="#0B0B09"/>
<path d="M42.6465 35.0769C42.6465 36.6769 43.9388 38.0307 45.6003 38.0307C47.2003 38.0307 48.4926 36.7384 48.4926 35.0769C48.4926 33.4154 47.2003 32.123 45.6003 32.123C43.9388 32.1846 42.6465 33.4769 42.6465 35.0769ZM45.5388 33.1077C46.6465 33.1077 47.508 34.0307 47.508 35.1384C47.508 36.2461 46.5849 37.1692 45.5388 37.1692C44.4926 37.1692 43.508 36.2461 43.508 35.1384C43.508 34.0307 44.4311 33.1077 45.5388 33.1077Z" fill="#0B0B09"/>
<path d="M52.9226 38.0307C54.5226 38.0307 55.8764 36.7384 55.8764 35.0769C55.8764 33.4154 54.5841 32.123 52.9226 32.123C51.2611 32.123 49.9688 33.4154 49.9688 35.0769C49.9688 36.7384 51.3226 38.0307 52.9226 38.0307ZM52.9226 33.1077C54.0303 33.1077 54.9534 34.0307 54.9534 35.1384C54.9534 36.2461 54.0303 37.1692 52.9226 37.1692C51.8149 37.1692 50.8918 36.2461 50.8918 35.1384C50.8918 34.0307 51.8149 33.1077 52.9226 33.1077Z" fill="#0B0B09"/>
<path d="M44.3076 51.3229C41.7845 53.6613 38.523 54.8921 35.0768 54.8921C32.2461 54.8921 29.4768 54.0306 27.1384 52.369C27.0153 52.2459 26.8307 52.2459 26.7076 52.3075L21.6614 54.5229L23.4461 48.7383C23.5076 48.6152 23.4461 48.4921 23.3845 48.369C22.0922 46.2152 21.3538 43.7536 21.3538 41.2306C21.3538 35.569 24.7384 30.5844 29.9691 28.4921C30.2153 28.369 30.3384 28.1229 30.2153 27.8767C30.0922 27.6306 29.8461 27.5075 29.5999 27.6306C23.9999 29.8459 20.3691 35.1998 20.3691 41.2306C20.3691 43.8767 21.0461 46.4613 22.3999 48.6767L20.4922 55.2613C20.4307 55.4459 20.4922 55.6306 20.6153 55.7536C20.6768 55.8152 20.7999 55.8767 20.923 55.8767C20.9845 55.8767 21.0461 55.8767 21.1076 55.8152L26.8307 53.2921C29.2922 54.9536 32.123 55.8152 35.0768 55.8152C38.7076 55.8152 42.2153 54.4613 44.923 51.9998C45.1076 51.8152 45.1076 51.5075 44.923 51.3229C44.7999 51.1998 44.4922 51.1998 44.3076 51.3229Z" fill="#0B0B09"/>
</g>
<rect x="22.5" y="66.5" width="34" height="34" rx="17" fill="white"/>
<path d="M42.513 89.5H40.098V86.098H33.378V84.313L39.048 74.8H41.82L36.507 83.683H40.098V80.05H42.513V83.683H44.403V86.098H42.513V89.5Z" fill="#AACC3A"/>
<rect x="22.5" y="66.5" width="34" height="34" rx="17" stroke="#E0E6EC"/>
<defs>
<clipPath id="clip0_263_906">
<rect width="40" height="40" fill="white" transform="translate(20 20)"/>
</clipPath>
</defs>
</svg>
