<svg width="80" height="101" viewBox="0 0 80 101" fill="none" xmlns="http://www.w3.org/2000/svg">
<rect width="80" height="80" fill="white"/>
<circle cx="40" cy="40" r="39.5" stroke="#E0E6EC"/>
<path d="M23.3534 50.8591C23.1547 50.4737 22.7405 50.2621 22.3239 50.3334C20.2959 50.6886 14.4694 50.8769 14.0163 41.4782C13.4674 30.0904 26.8087 10.6326 46.399 14.5007C62.1322 17.6087 50.3864 33.106 60.0253 37.0133C65.6665 39.3008 70.7658 51.0366 58.2374 61.2273C51.457 66.7365 34.0698 71.6028 23.3534 50.8591Z" fill="#F0F5D8"/>
<rect x="22.5" y="66.5" width="34" height="34" rx="17" fill="white"/>
<path d="M43.5107 89.5H34.2707V87.568C35.9647 85.916 37.1337 84.719 37.7777 83.977C39.5137 81.989 40.3817 80.316 40.3817 78.958C40.3817 78.356 40.2207 77.887 39.8987 77.551C39.5767 77.215 39.1147 77.047 38.5127 77.047C37.4347 77.047 36.7277 77.705 36.3917 79.021L34.3757 78.118C34.5717 77.04 35.0617 76.193 35.8457 75.577C36.6437 74.947 37.6237 74.632 38.7857 74.632C40.1017 74.632 41.1237 75.01 41.8517 75.766C42.5797 76.508 42.9437 77.411 42.9437 78.475C42.9437 79.231 42.7827 80.036 42.4607 80.89C42.1387 81.716 41.7677 82.437 41.3477 83.053C40.9137 83.697 40.4027 84.327 39.8147 84.943C39.3107 85.503 38.8487 85.979 38.4287 86.371C38.2187 86.567 37.8757 86.861 37.3997 87.253H43.5107V89.5Z" fill="#AACC3A"/>
<rect x="22.5" y="66.5" width="34" height="34" rx="17" stroke="#E0E6EC"/>
<g clip-path="url(#clip0_263_865)">
<path d="M20.923 53.7229C20.6768 53.7229 20.4307 53.9075 20.4307 54.2152V59.1383C20.4307 59.3844 20.6153 59.6306 20.923 59.6306C21.2307 59.6306 21.4153 59.446 21.4153 59.1383V54.2152C21.3537 53.9075 21.1691 53.7229 20.923 53.7229Z" fill="#0B0B09"/>
<path d="M20.923 50.0308C20.6768 50.0308 20.4307 50.2154 20.4307 50.5231V51.7538C20.4307 52 20.6153 52.2462 20.923 52.2462C21.2307 52.2462 21.4153 52.0615 21.4153 51.7538V50.5231C21.3537 50.2154 21.1691 50.0308 20.923 50.0308Z" fill="#0B0B09"/>
<path d="M44.3077 21.4153H51.6924C51.9385 21.4153 52.1847 21.2307 52.1847 20.923C52.1847 20.6153 52 20.4307 51.6924 20.4307H44.3077C44.0616 20.4307 43.8154 20.6153 43.8154 20.923C43.8154 21.2307 44.0616 21.4153 44.3077 21.4153Z" fill="#0B0B09"/>
<path d="M54.1534 21.4153H55.3842C55.6304 21.4153 55.8765 21.2307 55.8765 20.923C55.8765 20.6153 55.6919 20.4307 55.3842 20.4307H54.1534C53.9073 20.4307 53.6611 20.6153 53.6611 20.923C53.6611 21.2307 53.9073 21.4153 54.1534 21.4153Z" fill="#0B0B09"/>
<path d="M56.6154 33.4154C56.3692 33.4154 56.123 33.6 56.123 33.9077C56.123 34.2154 56.3077 34.4 56.6154 34.4H57.4154V35.2C57.4154 35.4461 57.6 35.6923 57.9077 35.6923C58.2154 35.6923 58.4 35.5077 58.4 35.2V34.4H59.2C59.4461 34.4 59.6923 34.2154 59.6923 33.9077C59.6923 33.6 59.5077 33.4154 59.2 33.4154H58.4V32.6154C58.4 32.3692 58.2154 32.123 57.9077 32.123C57.6 32.123 57.4154 32.3077 57.4154 32.6154V33.4154H56.6154Z" fill="#0B0B09"/>
<path d="M28.3077 22.646H29.1077V23.446C29.1077 23.6922 29.2924 23.9384 29.6 23.9384C29.9077 23.9384 30.0924 23.7537 30.0924 23.446V22.646H30.8924C31.1385 22.646 31.3847 22.4614 31.3847 22.1537C31.3847 21.846 31.2 21.6614 30.8924 21.6614H30.0924V20.923C30.0924 20.6768 29.9077 20.4307 29.6 20.4307C29.2924 20.4307 29.1077 20.6153 29.1077 20.923V21.723H28.3077C28.0616 21.723 27.8154 21.9076 27.8154 22.2153C27.8154 22.523 28.0616 22.646 28.3077 22.646Z" fill="#0B0B09"/>
<path d="M54.2766 33.2307L56.8612 30.6461C57.5381 29.9692 57.5381 28.923 56.8612 28.2461L54.2766 25.6615C54.092 25.4769 53.9073 25.3538 53.7227 25.2923C53.5381 25.2307 53.292 25.1692 53.1073 25.1692C52.6766 25.1692 52.2458 25.3538 51.9381 25.6615L49.3535 28.2461L26.6458 50.8307C26.5843 50.8923 26.5843 50.9538 26.5227 51.0153L24.3073 57.5384C24.2458 57.723 24.3073 57.9077 24.4304 58.0307C24.5535 58.0923 24.6766 58.1538 24.7997 58.1538C24.8612 58.1538 24.9227 58.1538 24.9227 58.1538L31.4458 56C31.5073 56 31.5689 55.9384 31.6304 55.8769L54.2766 33.2307ZM31.3227 54.8923L29.7843 53.3538L51.7535 31.3846L53.292 32.923L31.3227 54.8923ZM27.1381 52L28.7997 53.6615L30.4612 55.323L28.7997 55.8769L26.5843 53.6615L27.1381 52ZM52.492 26.2769C52.7997 25.9692 53.292 25.9692 53.5997 26.2769L56.1843 28.8615C56.492 29.1692 56.492 29.6615 56.1843 29.9692L53.9073 32.2461L52.0612 30.4L50.215 28.5538L52.492 26.2769ZM49.5997 29.1692L51.1381 30.7077L29.1073 52.6769L27.5689 51.1384L49.5997 29.1692ZM26.2766 54.6461L27.815 56.1846L25.4766 56.9846L26.2766 54.6461Z" fill="#0B0B09"/>
<path d="M59.077 37.6614H52.1232C51.877 37.6614 51.6309 37.846 51.6309 38.1537C51.6309 38.4614 51.8155 38.646 52.1232 38.646H59.077C59.3232 38.646 59.5693 38.4614 59.5693 38.1537C59.5693 37.846 59.3232 37.6614 59.077 37.6614Z" fill="#0B0B09"/>
<path d="M20.923 44.7383H30.3384C30.5845 44.7383 30.8307 44.5537 30.8307 44.246C30.8307 43.9383 30.646 43.7537 30.3384 43.7537H20.923C20.6768 43.7537 20.4307 43.9383 20.4307 44.246C20.4307 44.5537 20.6768 44.7383 20.923 44.7383Z" fill="#0B0B09"/>
<path d="M59.0766 43.8152H45.9689C45.7227 43.8152 45.4766 43.9998 45.4766 44.3075C45.4766 44.6152 45.6612 44.7998 45.9689 44.7998H59.0766C59.3227 44.7998 59.5689 44.6152 59.5689 44.3075C59.5689 43.9998 59.3227 43.8152 59.0766 43.8152Z" fill="#0B0B09"/>
<path d="M59.0771 49.9692H39.8156C39.5694 49.9692 39.3232 50.1539 39.3232 50.4615C39.3232 50.7692 39.5079 50.9538 39.8156 50.9538H59.0771C59.3232 50.9538 59.5694 50.7692 59.5694 50.4615C59.5694 50.1539 59.3232 49.9692 59.0771 49.9692Z" fill="#0B0B09"/>
<path d="M32.0001 26.2769H48.8001C49.0463 26.2769 49.2924 26.0922 49.2924 25.7845C49.2924 25.4769 49.1078 25.2922 48.8001 25.2922H32.0001C31.754 25.2922 31.5078 25.4769 31.5078 25.7845C31.5078 26.0922 31.754 26.2769 32.0001 26.2769Z" fill="#0B0B09"/>
<path d="M20.923 26.2769H27.0768C27.323 26.2769 27.5691 26.0922 27.5691 25.7845C27.5691 25.4769 27.3845 25.2922 27.0768 25.2922H20.923C20.6768 25.2922 20.4307 25.4769 20.4307 25.7845C20.4307 26.0922 20.6768 26.2769 20.923 26.2769Z" fill="#0B0B09"/>
<path d="M20.923 32.4307H33.846C34.0922 32.4307 34.3384 32.246 34.3384 31.9384C34.3384 31.6307 34.1537 31.446 33.846 31.446H20.923C20.6768 31.446 20.4307 31.6307 20.4307 31.9384C20.4307 32.246 20.6768 32.4307 20.923 32.4307Z" fill="#0B0B09"/>
<path d="M37.5382 31.5076C37.2921 31.5076 37.0459 31.6922 37.0459 31.9999C37.0459 32.3076 37.2305 32.4922 37.5382 32.4922H42.6459C42.8921 32.4922 43.1382 32.3076 43.1382 31.9999C43.1382 31.6922 42.9536 31.5076 42.6459 31.5076H37.5382Z" fill="#0B0B09"/>
<path d="M20.923 38.5845H36.4922C36.7384 38.5845 36.9845 38.3999 36.9845 38.0922C36.9845 37.7845 36.7999 37.5999 36.4922 37.5999H20.923C20.6768 37.5999 20.4307 37.7845 20.4307 38.0922C20.4307 38.3999 20.6768 38.5845 20.923 38.5845Z" fill="#0B0B09"/>
<path d="M48.6151 56.123H33.6613C33.4151 56.123 33.1689 56.3077 33.1689 56.6154C33.1689 56.923 33.3536 57.1077 33.6613 57.1077H48.6151C48.8613 57.1077 49.1074 56.923 49.1074 56.6154C49.1074 56.3077 48.8613 56.123 48.6151 56.123Z" fill="#0B0B09"/>
<path d="M59.0767 56.123H53.5382C53.2921 56.123 53.0459 56.3077 53.0459 56.6154C53.0459 56.923 53.2305 57.1077 53.5382 57.1077H59.0767C59.3228 57.1077 59.569 56.923 59.569 56.6154C59.569 56.3077 59.3228 56.123 59.0767 56.123Z" fill="#0B0B09"/>
</g>
<defs>
<clipPath id="clip0_263_865">
<rect width="40" height="40" fill="white" transform="translate(20 20)"/>
</clipPath>
</defs>
</svg>
