<svg width="24" height="24" viewBox="0 0 24 24" fill="none" xmlns="http://www.w3.org/2000/svg">
<path d="M16.0108 20.5006C16.1416 20.3666 16.2148 20.1868 16.2148 19.9996C16.2148 19.8123 16.1416 19.6325 16.0108 19.4986L8.70126 12.0001L16.0108 4.50306C16.1416 4.36911 16.2148 4.1893 16.2148 4.00206C16.2148 3.81482 16.1416 3.63501 16.0108 3.50106C15.9472 3.43575 15.8711 3.38383 15.7871 3.34838C15.7032 3.31294 15.6129 3.29468 15.5218 3.29468C15.4306 3.29468 15.3404 3.31294 15.2564 3.34838C15.1724 3.38383 15.0964 3.43575 15.0328 3.50106L7.25976 11.4766C7.12324 11.6166 7.04684 11.8045 7.04684 12.0001C7.04684 12.1956 7.12324 12.3835 7.25976 12.5236L15.0328 20.4991C15.0964 20.5644 15.1724 20.6163 15.2564 20.6517C15.3404 20.6872 15.4306 20.7054 15.5218 20.7054C15.6129 20.7054 15.7032 20.6872 15.7871 20.6517C15.8711 20.6163 15.9472 20.5644 16.0108 20.4991L16.0108 20.5006Z" fill="#5C5C5B"/>
</svg>
