<svg width="60" height="60" viewBox="0 0 60 60" fill="none" xmlns="http://www.w3.org/2000/svg">
<path d="M40.0274 51.2513C40.3545 50.9164 40.5376 50.4669 40.5376 49.9988C40.5376 49.5307 40.3545 49.0811 40.0274 48.7463L21.7537 30L40.0274 11.2575C40.3545 10.9227 40.5376 10.4731 40.5376 10.005C40.5376 9.53693 40.3545 9.08739 40.0274 8.75253C39.8684 8.58924 39.6783 8.45946 39.4684 8.37084C39.2584 8.28222 39.0328 8.23657 38.8049 8.23657C38.577 8.23657 38.3514 8.28222 38.1414 8.37084C37.9315 8.45946 37.7414 8.58924 37.5824 8.75253L18.1499 28.6913C17.8086 29.0414 17.6176 29.5111 17.6176 30C17.6176 30.489 17.8086 30.9586 18.1499 31.3088L37.5824 51.2475C37.7414 51.4108 37.9315 51.5406 38.1414 51.6292C38.3514 51.7178 38.577 51.7635 38.8049 51.7635C39.0328 51.7635 39.2584 51.7178 39.4684 51.6292C39.6783 51.5406 39.8684 51.4108 40.0274 51.2475L40.0274 51.2513Z" fill="white"/>
</svg>
