<svg width="40" height="41" viewBox="0 0 40 41" fill="none" xmlns="http://www.w3.org/2000/svg">
<circle cx="20" cy="20.8525" r="20" fill="#F5F5F3"/>
<path d="M26.0919 11.4148C26.0919 11.2676 26.0334 11.1263 25.9293 11.0222C25.8252 10.9181 25.684 10.8596 25.5367 10.8596H22.7606C21.3628 10.79 19.9941 11.2764 18.9538 12.2127C17.9135 13.149 17.286 14.459 17.2085 15.8565V18.8546H14.4325C14.2852 18.8546 14.144 18.9131 14.0399 19.0173C13.9358 19.1214 13.8773 19.2626 13.8773 19.4099V22.297C13.8773 22.4442 13.9358 22.5854 14.0399 22.6896C14.144 22.7937 14.2852 22.8522 14.4325 22.8522H17.2085V30.292C17.2085 30.4393 17.267 30.5805 17.3711 30.6846C17.4753 30.7887 17.6165 30.8472 17.7637 30.8472H21.095C21.2423 30.8472 21.3835 30.7887 21.4876 30.6846C21.5917 30.5805 21.6502 30.4393 21.6502 30.292V22.8522H24.5595C24.683 22.8539 24.8035 22.8145 24.9021 22.7401C25.0006 22.6657 25.0716 22.5605 25.1036 22.4413L25.9031 19.5542C25.9252 19.4722 25.9282 19.3862 25.9118 19.3028C25.8954 19.2194 25.8602 19.1409 25.8087 19.0734C25.7572 19.0058 25.6909 18.9509 25.6148 18.913C25.5388 18.8751 25.4551 18.8551 25.3701 18.8546H21.6502V15.8565C21.6778 15.5816 21.8069 15.327 22.0122 15.1422C22.2176 14.9574 22.4844 14.8557 22.7606 14.8571H25.5367C25.684 14.8571 25.8252 14.7986 25.9293 14.6945C26.0334 14.5904 26.0919 14.4492 26.0919 14.3019V11.4148Z" fill="#464744"/>
</svg>
