<svg width="40" height="40" viewBox="0 0 40 40" fill="none" xmlns="http://www.w3.org/2000/svg">
<circle cx="20" cy="20" r="20" fill="#F5F5F3"/>
<path d="M26.0916 10.5624C26.0916 10.4152 26.0331 10.274 25.929 10.1699C25.8249 10.0657 25.6837 10.0072 25.5364 10.0072H22.7603C21.3625 9.9376 19.9938 10.4241 18.9535 11.3604C17.9132 12.2967 17.2857 13.6067 17.2082 15.0041V18.0023H14.4322C14.2849 18.0023 14.1437 18.0608 14.0396 18.1649C13.9354 18.269 13.877 18.4102 13.877 18.5575V21.4446C13.877 21.5919 13.9354 21.7331 14.0396 21.8372C14.1437 21.9413 14.2849 21.9998 14.4322 21.9998H17.2082V29.4397C17.2082 29.5869 17.2667 29.7281 17.3708 29.8322C17.475 29.9364 17.6162 29.9949 17.7634 29.9949H21.0947C21.242 29.9949 21.3832 29.9364 21.4873 29.8322C21.5914 29.7281 21.6499 29.5869 21.6499 29.4397V21.9998H24.5592C24.6827 22.0016 24.8032 21.9621 24.9018 21.8877C25.0003 21.8133 25.0712 21.7082 25.1033 21.589L25.9028 18.7019C25.9249 18.6198 25.9279 18.5338 25.9115 18.4504C25.8951 18.3671 25.8598 18.2886 25.8084 18.221C25.7569 18.1534 25.6906 18.0986 25.6145 18.0606C25.5385 18.0227 25.4548 18.0028 25.3698 18.0023H21.6499V15.0041C21.6775 14.7293 21.8066 14.4746 22.0119 14.2898C22.2173 14.105 22.4841 14.0034 22.7603 14.0048H25.5364C25.6837 14.0048 25.8249 13.9463 25.929 13.8421C26.0331 13.738 26.0916 13.5968 26.0916 13.4496V10.5624Z" fill="#5C5C5B"/>
</svg>
