<svg width="40" height="40" viewBox="0 0 40 40" fill="none" xmlns="http://www.w3.org/2000/svg">
<circle cx="20" cy="20" r="20" fill="#F5F5F3"/>
<g clip-path="url(#clip0_277_1372)">
<path d="M20 32C20 32 29 23.471 29 17C29 14.6131 28.0518 12.3239 26.364 10.636C24.6761 8.94821 22.3869 8 20 8C17.6131 8 15.3239 8.94821 13.636 10.636C11.9482 12.3239 11 14.6131 11 17C11 23.471 20 32 20 32ZM20 21.5C18.8065 21.5 17.6619 21.0259 16.818 20.182C15.9741 19.3381 15.5 18.1935 15.5 17C15.5 15.8065 15.9741 14.6619 16.818 13.818C17.6619 12.9741 18.8065 12.5 20 12.5C21.1935 12.5 22.3381 12.9741 23.182 13.818C24.0259 14.6619 24.5 15.8065 24.5 17C24.5 18.1935 24.0259 19.3381 23.182 20.182C22.3381 21.0259 21.1935 21.5 20 21.5Z" fill="#5C5C5B"/>
</g>
<defs>
<clipPath id="clip0_277_1372">
<rect width="24" height="24" fill="white" transform="translate(8 8)"/>
</clipPath>
</defs>
</svg>
