<svg width="857" height="249" viewBox="0 0 857 249" fill="none" xmlns="http://www.w3.org/2000/svg">
<path d="M579.756 167.221C611.753 167.221 637.692 141.174 637.692 109.044C637.692 76.9138 611.753 50.8672 579.756 50.8672C547.758 50.8672 521.819 76.9138 521.819 109.044C521.819 141.174 547.758 167.221 579.756 167.221Z" fill="#AACC3A"/>
<path d="M761.755 143.767C801.291 143.767 833.341 111.583 833.341 71.8833C833.341 32.1833 801.291 0 761.755 0C722.219 0 690.169 32.1833 690.169 71.8833C690.169 111.583 722.219 143.767 761.755 143.767Z" fill="#AACC3A"/>
<path d="M425.057 160.821V103.863L503.923 187.93V80.1048H498.766V162.344L419.9 79.4956V84.3691V109.345V119.702V160.821V187.016H425.057V160.821Z" fill="#0B0B09"/>
<path d="M764.181 216.259V131.583C775.101 130.669 785.111 127.623 793.301 121.836C797.548 119.094 800.884 116.049 804.221 112.394L808.164 107.825C810.894 104.17 813.321 100.514 815.444 96.2502C820.297 85.8941 822.724 75.8427 822.724 65.7912C822.724 51.1709 817.567 38.6827 807.558 28.3266C797.548 17.9705 784.504 12.7925 768.428 12.7925C748.711 12.7925 733.241 19.1889 721.411 32.2863C709.582 45.3836 703.515 61.2223 703.515 80.1069C703.515 94.7273 708.672 107.215 718.985 116.962C719.288 117.267 719.591 117.572 720.198 117.876L701.392 163.26L654.679 48.125H638.299L695.325 187.627H696.842L724.141 121.227C733.545 127.928 744.768 131.583 758.115 131.583C758.418 131.583 758.721 131.583 759.024 131.583V215.65C697.145 208.644 637.692 206.816 583.699 208.339V154.427H584.609C595.529 152.599 604.326 147.726 611.606 139.807C621.009 129.451 625.862 116.962 625.862 101.733C625.862 90.1584 621.919 80.4115 613.729 72.4922C605.539 64.5728 595.226 60.9177 582.486 60.9177C571.869 60.9177 562.466 63.6591 554.883 68.8371C546.996 74.0151 541.233 80.7161 537.29 88.94C533.346 97.164 531.526 105.083 531.526 113.003C531.526 124.577 535.47 134.629 543.66 142.853C551.849 151.076 562.163 155.341 574.599 155.341C576.116 155.341 577.633 155.341 579.149 155.036V208.949C436.584 213.517 333.451 239.103 331.935 239.408V248.241C334.361 247.632 594.922 174.53 857 237.885V231.793C825.757 225.092 794.818 219.914 764.181 216.259ZM552.759 134.629C543.963 125.186 539.716 113.916 539.716 101.428C539.716 91.6814 543.356 83.4574 550.333 76.7564C557.613 70.0555 565.499 66.705 574.296 66.705C580.363 66.705 587.339 68.8371 594.619 72.7968C601.899 76.7564 607.966 82.2391 612.516 89.2446C617.066 96.2502 619.492 104.17 619.492 112.698C619.492 118.79 617.672 124.577 614.336 130.364C610.999 136.152 606.146 140.72 600.382 143.766C594.316 147.117 588.553 148.64 582.486 148.64C571.263 148.944 561.556 144.375 552.759 134.629ZM743.555 116.658C738.701 113.916 734.455 110.871 730.511 107.215L753.868 50.2571H748.105L726.265 102.951C724.445 100.819 722.625 98.3823 720.805 95.9456C715.042 87.1125 712.008 77.3656 712.008 66.4004C712.008 58.7856 714.132 51.1709 718.378 44.1653C722.625 36.8551 728.691 31.3725 735.971 27.1082C743.555 22.844 751.138 21.0164 758.721 21.0164C772.371 21.0164 784.808 27.1082 795.728 38.9872C806.647 50.8663 812.107 64.8774 812.107 80.7161C812.107 89.5492 809.681 97.4686 805.131 104.17C805.131 104.17 805.131 104.474 804.827 104.474L801.794 108.434C800.884 109.652 799.671 110.871 798.458 111.784C789.358 120.008 779.348 124.273 768.428 124.273C761.148 124.273 752.655 121.836 743.555 116.658Z" fill="#0B0B09"/>
<path d="M34.9731 116.049H4.63997V161.433H1V112.394H38.9164V161.433H34.9731V116.049Z" fill="#0B0B09" stroke="#0B0B09" stroke-width="0.5493" stroke-miterlimit="10"/>
<path d="M54.3867 161.433V112.394C57.1167 112.394 63.4866 112.394 66.2166 112.394C79.8665 112.394 83.5065 120.008 83.5065 127.318C83.5065 134.933 78.3499 142.243 66.2166 142.243C63.79 142.243 60.7567 142.243 58.0267 141.939V161.433H54.3867ZM58.33 116.049V137.979C61.06 138.284 63.4866 138.284 66.2166 138.284C75.0132 138.284 79.5632 133.715 79.5632 126.709C79.5632 120.313 75.9232 115.744 66.52 115.744C64.7 115.744 60.4533 116.049 58.33 116.049Z" fill="#0B0B09" stroke="#0B0B09" stroke-width="0.5493" stroke-miterlimit="10"/>
<path d="M95.3359 161.433V112.394H99.2792V155.036L132.039 112.394H135.376V161.433H131.432V118.79L98.6726 161.433H95.3359Z" fill="#0B0B09" stroke="#0B0B09" stroke-width="0.5493" stroke-miterlimit="10"/>
<path d="M185.425 138.284H154.789V161.433H150.846V112.394H154.789V134.629H185.425V112.394H189.369V161.433H185.425V138.284Z" fill="#0B0B09" stroke="#0B0B09" stroke-width="0.5493" stroke-miterlimit="10"/>
<path d="M204.535 112.394H208.478V157.777H238.508V112.394H242.452V157.777H248.821V170.875H245.181V161.433H204.535V112.394Z" fill="#0B0B09" stroke="#0B0B09" stroke-width="0.5493" stroke-miterlimit="10"/>
<path d="M259.135 161.433V112.394H263.078V155.036L295.838 112.394H299.174V161.433H295.231V118.79L262.471 161.433H259.135Z" fill="#0B0B09" stroke="#0B0B09" stroke-width="0.5493" stroke-miterlimit="10"/>
<path d="M348.921 116.049H318.588V161.433H314.645V112.394H352.561V161.433H348.921V116.049Z" fill="#0B0B09" stroke="#0B0B09" stroke-width="0.5493" stroke-miterlimit="10"/>
</svg>
