<svg width="40" height="40" viewBox="0 0 40 40" fill="none" xmlns="http://www.w3.org/2000/svg">
<circle cx="20" cy="20" r="20" fill="#F5F5F3"/>
<g clip-path="url(#clip0_277_1359)">
<path d="M29.5531 12C29.4622 11.9906 29.3706 11.9906 29.2798 12H10.6131C10.4935 12.0018 10.3746 12.0198 10.2598 12.0533L19.8931 21.6467L29.5531 12Z" fill="#5C5C5B"/>
<path d="M30.5404 12.9266L20.8338 22.5933C20.584 22.8416 20.246 22.981 19.8938 22.981C19.5415 22.981 19.2036 22.8416 18.9538 22.5933L9.33378 13C9.3042 13.1087 9.28852 13.2207 9.28711 13.3333V26.6666C9.28711 27.0203 9.42759 27.3594 9.67763 27.6094C9.92768 27.8595 10.2668 28 10.6204 28H29.2871C29.6407 28 29.9799 27.8595 30.2299 27.6094C30.48 27.3594 30.6204 27.0203 30.6204 26.6666V13.3333C30.6151 13.1944 30.5881 13.0572 30.5404 12.9266ZM11.5338 26.6666H10.6071V25.7133L15.4538 20.9066L16.3938 21.8466L11.5338 26.6666ZM29.2738 26.6666H28.3404L23.4804 21.8466L24.4204 20.9066L29.2671 25.7133L29.2738 26.6666Z" fill="#5C5C5B"/>
</g>
<defs>
<clipPath id="clip0_277_1359">
<rect width="24" height="24" fill="white" transform="translate(8 8)"/>
</clipPath>
</defs>
</svg>
