<svg width="40" height="40" viewBox="0 0 40 40" fill="none" xmlns="http://www.w3.org/2000/svg">
<circle cx="20" cy="20" r="20" fill="#F5F5F3"/>
<path d="M28.4873 25.14L24.4223 21.444C24.2301 21.2693 23.9776 21.1762 23.7181 21.1842C23.4585 21.1922 23.2123 21.3008 23.0313 21.487L20.6383 23.948C20.0623 23.838 18.9043 23.477 17.7123 22.288C16.5203 21.095 16.1593 19.934 16.0523 19.362L18.5113 16.968C18.6977 16.7871 18.8064 16.5408 18.8144 16.2812C18.8225 16.0216 18.7292 15.769 18.5543 15.577L14.8593 11.513C14.6843 11.3204 14.4412 11.2035 14.1814 11.1873C13.9217 11.171 13.6659 11.2567 13.4683 11.426L11.2983 13.287C11.1254 13.4605 11.0222 13.6914 11.0083 13.936C10.9933 14.186 10.7073 20.108 15.2993 24.702C19.3053 28.707 24.3233 29 25.7053 29C25.9073 29 26.0313 28.994 26.0643 28.992C26.3088 28.9783 26.5396 28.8747 26.7123 28.701L28.5723 26.53C28.7423 26.333 28.8286 26.0774 28.8127 25.8177C28.7968 25.558 28.68 25.3148 28.4873 25.14Z" fill="#5C5C5B"/>
</svg>
