<svg width="40" height="41" viewBox="0 0 40 41" fill="none" xmlns="http://www.w3.org/2000/svg">
<circle cx="20" cy="20.8525" r="20" fill="#F5F5F3"/>
<g clip-path="url(#clip0_639_2756)">
<path d="M30.9627 15.8841C31.1668 16.4202 30.54 17.6712 29.0825 19.637C28.8784 19.905 28.616 20.2624 28.2954 20.7092C27.6249 21.5432 27.2459 22.0942 27.1585 22.3622C27.0127 22.7197 27.071 23.0622 27.3334 23.3898C27.4791 23.5685 27.8144 23.9259 28.3391 24.4621H28.3828V24.5067C29.578 25.6088 30.3797 26.547 30.7878 27.3214L30.8753 27.5001L30.9627 27.8352V28.2596L30.6566 28.5947L29.9133 28.751L26.7212 28.8404C26.5171 28.8702 26.2766 28.8404 25.9997 28.751C25.7228 28.6617 25.5114 28.5723 25.3657 28.483L25.1033 28.3043C24.8409 28.1256 24.5494 27.8575 24.2288 27.5001C23.9081 27.1427 23.6239 26.815 23.3761 26.5172C23.1283 26.2193 22.8732 25.9736 22.6109 25.78C22.3485 25.5864 22.1153 25.5194 21.9112 25.579C21.8821 25.579 21.8456 25.5939 21.8019 25.6237C21.7582 25.6534 21.6853 25.7205 21.5833 25.8247C21.4812 25.9289 21.3938 26.0555 21.3209 26.2045C21.248 26.3534 21.1824 26.5693 21.1241 26.8523C21.0658 27.1352 21.0367 27.4703 21.0367 27.8575C21.0367 27.9766 21.0221 28.0883 20.993 28.1926C20.9638 28.2968 20.9347 28.3787 20.9055 28.4383L20.8618 28.483C20.6869 28.6617 20.4537 28.751 20.1621 28.751H18.7629C18.1507 28.8106 17.5312 28.751 16.9045 28.5723C16.2777 28.3936 15.7311 28.1628 15.2647 27.8798C14.7983 27.5969 14.3756 27.3139 13.9966 27.031C13.6177 26.748 13.3261 26.5023 13.1221 26.2938L12.816 25.9811C12.7285 25.9215 12.6119 25.8024 12.4662 25.6237C12.3204 25.4449 12.0216 25.0577 11.5698 24.4621C11.1179 23.8664 10.6734 23.226 10.2361 22.541C9.79883 21.8559 9.28869 20.9549 8.70566 19.838C8.12263 18.7211 7.58333 17.5669 7.08776 16.3755C7.02946 16.2266 7.00031 16.1075 7.00031 16.0181C7.00031 15.9288 7.01488 15.8543 7.04403 15.7947L7.08776 15.7501C7.20436 15.5714 7.43758 15.482 7.78739 15.482H11.2418C11.3293 15.482 11.4167 15.5043 11.5042 15.549L11.7228 15.6607L11.7666 15.7054C11.9123 15.7947 12.0143 15.9288 12.0726 16.1075C12.2475 16.5245 12.4443 16.9638 12.663 17.4254C12.8816 17.8871 13.0492 18.2371 13.1658 18.4754L13.3407 18.8328C13.6031 19.3391 13.8436 19.7784 14.0622 20.1507C14.2809 20.523 14.4776 20.8134 14.6525 21.0219C14.8274 21.2304 15.0024 21.3942 15.1773 21.5134C15.3522 21.6325 15.4979 21.6921 15.6145 21.6921C15.7311 21.6921 15.8477 21.6772 15.9643 21.6474L16.0081 21.5804L16.1611 21.29L16.336 20.7092L16.4453 19.6816V18.0733C16.4162 17.7456 16.3725 17.4403 16.3142 17.1574C16.2559 16.8744 16.1976 16.6734 16.1393 16.5542L16.0955 16.4202C15.8915 16.1224 15.5271 15.9288 15.0024 15.8394C14.9149 15.8394 14.944 15.7352 15.0898 15.5267C15.2356 15.3778 15.3959 15.2586 15.5708 15.1693C16.0081 14.931 16.9992 14.8267 18.5442 14.8565C19.2147 14.8565 19.7832 14.9161 20.2496 15.0352C20.3954 15.065 20.5265 15.1171 20.6431 15.1916C20.7597 15.2661 20.8472 15.3703 20.9055 15.5043C20.9638 15.6384 21.0075 15.7724 21.0367 15.9064C21.0658 16.0405 21.0804 16.2341 21.0804 16.4872V17.1797C21.0513 17.418 21.0367 17.7158 21.0367 18.0733V19.1455C21.0367 19.2349 21.0294 19.4136 21.0148 19.6816C21.0002 19.9497 20.993 20.1582 20.993 20.3071C20.993 20.456 21.0075 20.6273 21.0367 20.8209C21.0658 21.0145 21.1168 21.1783 21.1897 21.3123C21.2626 21.4464 21.3573 21.5432 21.474 21.6027C21.5323 21.6325 21.5978 21.6549 21.6707 21.6698C21.7436 21.6846 21.8529 21.64 21.9987 21.5357C22.1444 21.4315 22.3048 21.2826 22.4797 21.089C22.6546 20.8954 22.8732 20.605 23.1356 20.2178C23.3979 19.8306 23.6749 19.3838 23.9664 18.8774C24.462 17.9839 24.9138 17.0159 25.3219 15.9734C25.3511 15.9139 25.3875 15.8469 25.4312 15.7724C25.475 15.6979 25.526 15.6458 25.5843 15.616H25.628L25.6717 15.5714L25.8467 15.5267H26.109L29.6946 15.482C30.0153 15.4522 30.2849 15.4671 30.5036 15.5267C30.7222 15.5862 30.8461 15.6607 30.8753 15.7501L30.9627 15.8841Z" fill="#464744"/>
</g>
<defs>
<clipPath id="clip0_639_2756">
<rect width="24" height="24" fill="white" transform="translate(7.00031 9.85156)"/>
</clipPath>
</defs>
</svg>
