<svg width="40" height="40" viewBox="0 0 40 40" fill="none" xmlns="http://www.w3.org/2000/svg">
<circle cx="20" cy="20" r="20" fill="#F5F5F3"/>
<path d="M30.9624 15.0316C31.1665 15.5677 30.5397 16.8186 29.0821 18.7844C28.8781 19.0525 28.6157 19.4099 28.2951 19.8567C27.6246 20.6906 27.2456 21.2416 27.1582 21.5097C27.0124 21.8671 27.0707 22.2096 27.3331 22.5373C27.4788 22.716 27.8141 23.0734 28.3388 23.6095H28.3825V23.6542C29.5777 24.7562 30.3794 25.6944 30.7875 26.4688L30.875 26.6475L30.9624 26.9826V27.4071L30.6563 27.7421L29.913 27.8985L26.7209 27.9879C26.5168 28.0176 26.2763 27.9879 25.9994 27.8985C25.7225 27.8091 25.5111 27.7198 25.3654 27.6304L25.103 27.4517C24.8406 27.273 24.5491 27.005 24.2284 26.6475C23.9078 26.2901 23.6236 25.9625 23.3758 25.6647C23.128 25.3668 22.8729 25.1211 22.6105 24.9275C22.3482 24.7339 22.115 24.6669 21.9109 24.7264C21.8818 24.7264 21.8453 24.7413 21.8016 24.7711C21.7579 24.8009 21.685 24.8679 21.583 24.9722C21.4809 25.0764 21.3935 25.203 21.3206 25.3519C21.2477 25.5008 21.1821 25.7168 21.1238 25.9997C21.0655 26.2827 21.0364 26.6178 21.0364 27.005C21.0364 27.1241 21.0218 27.2358 20.9926 27.34C20.9635 27.4443 20.9343 27.5262 20.9052 27.5858L20.8615 27.6304C20.6866 27.8091 20.4533 27.8985 20.1618 27.8985H18.7626C18.1504 27.9581 17.5309 27.8985 16.9042 27.7198C16.2774 27.5411 15.7308 27.3103 15.2644 27.0273C14.798 26.7443 14.3753 26.4614 13.9963 26.1784C13.6174 25.8955 13.3258 25.6498 13.1218 25.4413L12.8157 25.1285C12.7282 25.069 12.6116 24.9498 12.4659 24.7711C12.3201 24.5924 12.0213 24.2052 11.5695 23.6095C11.1176 23.0138 10.6731 22.3735 10.2358 21.6884C9.79853 21.0034 9.28838 20.1024 8.70535 18.9855C8.12233 17.8685 7.58303 16.7144 7.08745 15.523C7.02915 15.3741 7 15.2549 7 15.1656C7 15.0762 7.01458 15.0018 7.04373 14.9422L7.08745 14.8975C7.20406 14.7188 7.43727 14.6295 7.78709 14.6295H11.2415C11.329 14.6295 11.4164 14.6518 11.5039 14.6965L11.7225 14.8082L11.7662 14.8528C11.912 14.9422 12.014 15.0762 12.0723 15.2549C12.2472 15.6719 12.444 16.1112 12.6626 16.5729C12.8813 17.0346 13.0489 17.3845 13.1655 17.6228L13.3404 17.9802C13.6028 18.4866 13.8433 18.9259 14.0619 19.2982C14.2805 19.6705 14.4773 19.9609 14.6522 20.1694C14.8271 20.3779 15.002 20.5417 15.177 20.6608C15.3519 20.78 15.4976 20.8396 15.6142 20.8396C15.7308 20.8396 15.8474 20.8247 15.964 20.7949L16.0078 20.7279L16.1608 20.4375L16.3357 19.8567L16.445 18.8291V17.2207C16.4159 16.8931 16.3722 16.5878 16.3139 16.3048C16.2556 16.0219 16.1973 15.8208 16.1389 15.7017L16.0952 15.5677C15.8912 15.2698 15.5268 15.0762 15.002 14.9869C14.9146 14.9869 14.9437 14.8826 15.0895 14.6741C15.2353 14.5252 15.3956 14.4061 15.5705 14.3167C16.0078 14.0784 16.9989 13.9742 18.5439 14.004C19.2144 14.004 19.7829 14.0636 20.2493 14.1827C20.395 14.2125 20.5262 14.2646 20.6428 14.3391C20.7594 14.4135 20.8469 14.5178 20.9052 14.6518C20.9635 14.7858 21.0072 14.9199 21.0364 15.0539C21.0655 15.1879 21.0801 15.3815 21.0801 15.6347V16.3272C21.051 16.5655 21.0364 16.8633 21.0364 17.2207V18.293C21.0364 18.3823 21.0291 18.561 21.0145 18.8291C20.9999 19.0972 20.9926 19.3056 20.9926 19.4546C20.9926 19.6035 21.0072 19.7748 21.0364 19.9684C21.0655 20.162 21.1165 20.3258 21.1894 20.4598C21.2623 20.5938 21.357 20.6906 21.4736 20.7502C21.5319 20.78 21.5975 20.8023 21.6704 20.8172C21.7433 20.8321 21.8526 20.7874 21.9984 20.6832C22.1441 20.5789 22.3045 20.43 22.4794 20.2364C22.6543 20.0428 22.8729 19.7524 23.1353 19.3652C23.3976 18.978 23.6746 18.5312 23.9661 18.0249C24.4617 17.1314 24.9135 16.1634 25.3216 15.1209C25.3508 15.0613 25.3872 14.9943 25.4309 14.9199C25.4747 14.8454 25.5257 14.7933 25.584 14.7635H25.6277L25.6714 14.7188L25.8463 14.6741H26.1087L29.6943 14.6295C30.015 14.5997 30.2846 14.6146 30.5033 14.6741C30.7219 14.7337 30.8458 14.8082 30.875 14.8975L30.9624 15.0316Z" fill="#5C5C5B"/>
</svg>
