<svg width="40" height="40" viewBox="0 0 40 40" fill="none" xmlns="http://www.w3.org/2000/svg">
<circle cx="20" cy="20" r="20" fill="#F5F5F3"/>
<path d="M28.1607 14.84C25.2807 10.4 19.4007 9.08 14.8407 11.84C10.4007 14.6 8.96071 20.6 11.8407 25.04L12.0807 25.4L11.1207 29L14.7207 28.04L15.0807 28.28C16.6407 29.12 18.3207 29.6 20.0007 29.6C21.8007 29.6 23.6007 29.12 25.1607 28.16C29.6007 25.28 30.9207 19.4 28.1607 14.84ZM25.6407 24.08C25.1607 24.8 24.5607 25.28 23.7207 25.4C23.2407 25.4 22.6407 25.64 20.2407 24.68C18.2007 23.72 16.5207 22.16 15.3207 20.36C14.6007 19.52 14.2407 18.44 14.1207 17.36C14.1207 16.4 14.4807 15.56 15.0807 14.96C15.3207 14.72 15.5607 14.6 15.8007 14.6H16.4007C16.6407 14.6 16.8807 14.6 17.0007 15.08C17.2407 15.68 17.8407 17.12 17.8407 17.24C17.9607 17.36 17.9607 17.6 17.8407 17.72C17.9607 17.96 17.8407 18.2 17.7207 18.32C17.6007 18.44 17.4807 18.68 17.3607 18.8C17.1207 18.92 17.0007 19.16 17.1207 19.4C17.6007 20.12 18.2007 20.84 18.8007 21.44C19.5207 22.04 20.2407 22.52 21.0807 22.88C21.3207 23 21.5607 23 21.6807 22.76C21.8007 22.52 22.4007 21.92 22.6407 21.68C22.8807 21.44 23.0007 21.44 23.2407 21.56L25.1607 22.52C25.4007 22.64 25.6407 22.76 25.7607 22.88C25.8807 23.24 25.8807 23.72 25.6407 24.08Z" fill="#5C5C5B"/>
</svg>
