<svg width="40" height="40" viewBox="0 0 40 40" fill="none" xmlns="http://www.w3.org/2000/svg">
<circle cx="20" cy="20" r="20" fill="#F5F5F3"/>
<path d="M30.0617 14.9398C29.9422 14.4946 29.7078 14.0886 29.382 13.7624C29.0563 13.4363 28.6505 13.2014 28.2055 13.0813C26.5672 12.6406 20 12.6406 20 12.6406C20 12.6406 13.4328 12.6406 11.7945 13.0789C11.3493 13.1986 10.9433 13.4334 10.6175 13.7596C10.2917 14.0859 10.0574 14.4921 9.93828 14.9375C9.5 16.5781 9.5 20 9.5 20C9.5 20 9.5 23.4219 9.93828 25.0602C10.1797 25.9648 10.8922 26.6773 11.7945 26.9188C13.4328 27.3594 20 27.3594 20 27.3594C20 27.3594 26.5672 27.3594 28.2055 26.9188C29.1102 26.6773 29.8203 25.9648 30.0617 25.0602C30.5 23.4219 30.5 20 30.5 20C30.5 20 30.5 16.5781 30.0617 14.9398ZM17.9141 23.1406V16.8594L23.3516 19.9766L17.9141 23.1406Z" fill="#5C5C5B"/>
</svg>
